<defs>
<font horiz-adv-x="507" ><font-face
    font-family="komika-display"
    units-per-em="1000"
    panose-1="2 0 5 6 8 0 0 2 0 4"
    ascent="940"
    descent="-241"
    alphabetic="0" />
<missing-glyph horiz-adv-x="500" />
<glyph unicode=" " glyph-name="space" horiz-adv-x="349" />
<glyph unicode="!" glyph-name="exclam" horiz-adv-x="439" d="M115 236L196 201Q209 206 221 216T244 239T260 263T268 285Q269 289 281 323T311 405T348 510T386 615T417 698T433 738Q440 746 440 756Q440 764 436 772T425 787L422 789Q403 809 385 816T347
823Q342 823 334 822T316 819Q291 814 275 802T249 774T233 737T222 697Q200 606 172 522T118 350Q117 346 115 338T111 319T107 297T105 275Q105 249 115 236ZM58 4Q79 -2 104 -2Q120 -2 132 -1T152 1Q165 4 178 11T202 29T221 51T232 74Q233 78 233 82T234 94Q234
122 209 141L154 174Q155 173 149 172T134 170T119 167T113 165Q79 158 55 140T21 94Q13 84 13 69Q13 60 18 50Q21 39 31 26T55 4H58Z" />
<glyph unicode="&quot;" glyph-name="quotedbl" horiz-adv-x="336" d="M149 530L189 646Q190 648 190 651Q190 655 191 657Q193 669 195 681T194 704T182 722T153 729Q120 729 102 706T76 652Q74 649 74 646T73 639L45 534Q42 528 41 526T37 513Q35 504 34 493T34
472T43 455T64 445H71Q94 445 116 469T149 530ZM340 645L344 659Q346 664 346 668T349 677Q352 687 352 696T349 713T336 725T311 729Q290 729 277 722T255 702T241 674T232 642L201 531L199 518Q195 503 193 491T193 468T202 452T224 445H228Q257 445 278 472T309
537L308 538L340 645Z" />
<glyph unicode="#" glyph-name="numbersign" horiz-adv-x="577" d="M620 456Q620 476 603 502Q583 531 557 531H491Q492 535 492 541T495 555Q497 566 497 576T498 591Q498 662 434 662Q405 662 390 640Q374 615 373 567Q372 547 370 535T366 517Q366 518 349
518H278V572Q278 593 278 604T277 617Q265 678 219 678Q171 678 164 623Q163 618 163 613T162 601Q161 599 161 589V576Q159 553 158 536T157 505Q149 502 139 502Q134 502 124 503T100 506Q83 510 61 510Q3 510 3 452Q3 438 8 426T21 402Q26 394 36 387T58 375T83
367T106 363H116Q127 363 134 364T146 366Q143 361 143 340V335H131Q128 336 123 336H108Q103 337 99 337T87 338Q62 338 43 326H44Q16 308 16 276Q16 251 36 228Q54 205 80 202Q95 201 109 201T133 199H134Q138 181 140 166T145 139Q150 115 168 97Q191 74 210
74Q246 74 260 119L259 118Q267 144 267 166Q267 171 267 176T265 186L263 195Q288 202 360 202Q370 202 370 194Q370 192 370 189T369 181V170Q369 162 370 153T375 129Q378 115 381 108T387 95Q390 90 397 84T413 71T430 61T442 57Q451 57 461 63T479 78T493
98T499 118V190Q499 191 499 195T498 202Q497 203 497 207H529Q541 209 552 217T578 239Q590 254 597 267T604 295Q604 302 600 311T590 329T575 343T557 349H486Q483 349 483 357Q483 363 486 375V378Q506 383 525 385T565 389Q576 391 585 396T603 416Q620 439
620 456ZM360 374V365Q360 355 355 338H290Q288 338 286 338T281 337Q280 336 276 336V370H275Q290 377 329 377Q353 377 361 374H360Z" />
<glyph unicode="$" glyph-name="dollar" horiz-adv-x="503" d="M490 385Q490 436 468 470V469Q451 502 442 508H443Q398 548 305 568Q285 569 263 570T221 573Q177 575 177 580Q177 587 194 601Q213 620 227 621Q320 636 343 636H350Q378 636 395 641Q407 645
420 675Q430 696 430 709Q430 736 407 750T360 764H350Q341 764 339 763Q335 762 331 762Q328 761 319 761H279V768Q279 772 279 775T280 783Q280 798 279 815T271 847T252 872T217 882Q202 882 184 869T163 841V843Q161 838 161 821T160 785V762Q160 731 151 721Q134
709 122 700T101 685Q26 616 26 564Q26 517 59 484Q86 453 178 439Q195 436 213 434T248 429Q264 427 280 425T314 420Q367 406 367 387Q367 384 360 374Q339 346 319 338Q288 322 265 322Q242 322 226 325T198 328Q196 328 194 328T190 327H185Q174 327 161 333T133
349T103 367T75 382Q71 384 67 384Q57 384 47 375T26 354Q3 325 3 304Q3 258 45 228Q56 220 73 212T115 192Q131 185 139 180T150 173V172H151Q155 163 155 158V76Q155 58 175 32Q194 5 217 5Q239 5 259 34L258 33Q275 59 275 77V171Q275 169 309 182Q338 192 352
197T367 202Q483 273 485 362Q485 361 485 363T487 371L486 370Q487 374 488 379T490 385Z" />
<glyph unicode="%" glyph-name="percent" horiz-adv-x="972" d="M950 294Q931 339 889 355T793 371Q763 371 734 368T678 361Q647 357 617 344T561 309T514 261T481 200Q475 177 472 160T467 116Q467 74 490 40T562 -9Q607 -25 660 -25Q726 -25 782 -2T877 58Q892
72 907 90T935 129T955 174T963 226Q963 265 950 294ZM841 714Q838 737 820 747T779 757Q764 757 749 753T722 741Q672 707 639 667T573 583Q555 559 536 534T494 486V487Q486 478 476 468T457 447Q436 424 416 403T378 358L379 359Q341 313 313 279T262 214T217
155T170 92Q162 81 154 70T136 48Q118 22 118 1Q118 -23 135 -36T178 -50Q197 -50 218 -40T257 -9Q370 132 483 267T728 540Q738 551 746 557T763 570Q777 580 791 592T816 618T835 651T842 693V703Q842 712 841 714ZM469 607Q463 634 447 652T410 682T366 702T320
717Q302 722 287 723T258 725Q215 725 180 710T117 670T68 616T30 555Q16 524 16 499Q16 467 30 438T68 390Q92 370 124 361T191 352Q217 352 243 355Q288 364 320 378T381 406Q387 409 392 411T403 416H402Q444 435 460 472T476 551Q476 580 470 606L469 607ZM800
227Q803 218 803 212Q803 186 788 161T747 124Q735 119 719 114T680 109Q674 109 665 110T648 114T633 119T625 125Q617 136 614 146T610 166Q610 179 615 192T629 216T649 236T672 248Q682 252 699 253T734 254H772Q781 254 788 248T800 227ZM325 537Q318 523
303 514T270 498T234 490T202 487Q191 487 184 490T174 502Q174 504 174 506T173 512Q173 531 180 544T198 567T221 584T244 597Q247 599 256 599Q266 599 278 595T302 584T321 568T329 548Q329 542 326 538L325 537Z" />
<glyph unicode="&amp;" glyph-name="ampersand" horiz-adv-x="764" d="M767 418Q767 467 750 489T697 512Q680 512 667 510T635 505Q634 504 630 504Q626 504 624 503Q613 502 604 502T586 501Q574 501 563 501T537 502Q482 502 463 459Q457 441 454 430T449 411Q449
407 445 394Q430 355 420 331T405 297Q390 277 377 260T353 230Q351 227 350 227Q306 164 206 164Q187 164 175 172T163 196Q163 217 178 250Q206 296 224 314Q243 332 257 344T277 365Q294 381 330 401Q332 402 332 402T335 404Q339 405 347 409T364 419T384 429T401
438Q416 449 422 459T428 482Q428 573 345 573Q328 573 283 551L284 552Q268 546 259 543T247 538Q248 539 248 541Q248 547 246 557T243 579Q243 595 251 611T289 642Q312 653 334 655T375 658H401Q417 658 441 631Q488 584 513 584Q533 584 550 597T568 634Q568
679 527 726Q472 775 438 781Q431 782 421 784T400 789T379 794T360 796Q332 796 306 788T255 767T208 738T167 705Q97 644 97 550Q97 521 101 497T118 448Q118 437 110 428T91 409T72 392T62 375Q8 294 8 212Q8 125 62 68Q120 8 212 8Q368 8 450 84L448 83Q463
95 478 111T511 148Q528 170 539 186T559 214Q575 252 586 279T603 325Q603 327 603 327T602 329Q602 337 611 338T633 340Q638 340 643 340T655 342Q713 342 740 362T767 418Z" />
<glyph unicode="&apos;" glyph-name="quotesingle" horiz-adv-x="187" d="M149 530L189 646Q190 648 190 651Q190 655 191 657Q193 669 195 681T194 704T182 722T153 729Q120 729 102 706T76 652Q74 649 74 646T73 639L45 534Q42 528 41 526T37 513Q35 504 34
493T34 472T43 455T64 445H71Q94 445 116 469T149 530Z" />
<glyph unicode="(" glyph-name="parenleft" horiz-adv-x="383" d="M372 831Q372 898 304 898Q287 898 268 889T232 866T202 836T181 807Q140 769 108 708Q73 646 63 594Q61 585 58 576T53 557Q46 535 39 508T25 452T15 398T9 351Q12 311 18 274T37 201T68 132T115
67Q118 64 121 61T128 55Q142 39 150 34Q178 13 211 13Q268 13 268 69Q268 100 234 143Q215 169 202 187T183 216Q170 242 163 270T156 327Q156 410 197 547L196 546Q198 548 199 554Q207 568 210 579Q215 591 219 600T230 618Q249 650 278 686T347 758H346Q358
774 365 792T372 831Z" />
<glyph unicode=")" glyph-name="parenright" horiz-adv-x="390" d="M341 708Q333 724 317 749T283 800T247 848T217 882Q206 893 194 897T168 901Q112 901 112 844Q112 815 126 795T155 758Q157 754 163 748Q170 737 178 724T195 694Q203 661 211 645T220 610Q222
601 222 593T223 574Q223 553 217 519T199 433Q195 427 194 418T191 399T189 382T185 371Q172 336 163 315T148 281T138 261T129 248Q126 237 107 216T66 170T27 121T9 82Q9 48 24 32T75 16Q88 16 99 20T118 29Q124 34 134 46T153 66Q160 72 166 78T179 89Q198
115 211 132T235 162T252 184T265 205Q272 216 277 234T295 272Q312 302 324 341T345 425T359 519T368 619L341 708Z" />
<glyph unicode="*" glyph-name="asterisk" horiz-adv-x="450" d="M437 630Q437 685 379 685Q374 685 364 684T342 682T321 680T304 679Q276 679 265 693Q262 702 260 716T256 753Q255 777 253 792T247 815Q235 845 201 845Q179 843 166 827T152 789V781Q152 772
153 761T157 736Q155 728 148 728Q138 739 129 748T110 769Q86 790 60 790Q45 790 34 779T23 752Q23 734 50 698Q61 685 70 673T91 647Q80 636 57 636H55Q37 636 36 635Q22 632 11 622T0 598Q0 565 25 543Q53 519 84 519Q89 519 100 521T117 523Q137 523 144 513Q149
505 149 482Q149 474 149 463T148 443Q148 395 190 370Q194 366 212 366Q240 366 247 409Q253 462 265 477Q269 475 280 471T310 457Q344 440 348 440Q364 440 374 453T385 481Q385 501 357 522Q326 544 320 557Q340 562 359 565T397 574Q437 586 437 630Z" />
<glyph unicode="+" glyph-name="plus" horiz-adv-x="534" d="M525 418Q525 464 480 475Q420 483 389 484Q344 487 340 491Q324 504 324 532Q324 539 325 550T328 575T331 599T333 618Q333 691 271 691Q229 691 216 643Q214 632 212 612T208 562Q206 539 205 523T201
496Q197 468 125 468Q96 468 76 467T45 463Q0 451 0 409Q0 389 11 365Q29 334 86 334Q92 334 105 335T127 336Q164 336 164 308Q164 291 161 261Q158 229 158 214Q158 125 219 125Q244 125 255 137Q259 142 264 156T277 193Q287 230 292 253Q298 288 317 313Q339
343 371 343H461Q489 343 509 367Q525 386 525 418Z" />
<glyph unicode="," glyph-name="comma" horiz-adv-x="225" d="M-27 -8Q-27 -31 -11 -45T29 -60Q38 -60 50 -56T72 -40L71 -42Q74 -39 84 -26T106 5T130 39T151 67H155Q157 80 157 85T158 95Q158 109 151 120T130 141Q118 145 112 146T101 147H96Q89 147 83 147T67
142V141Q58 134 42 111T11 63T-15 17T-27 -8Z" />
<glyph unicode="-" glyph-name="hyphen" horiz-adv-x="537" d="M45 220Q53 208 73 204T122 200Q134 200 147 200T175 201Q188 202 201 203T228 204H230Q236 204 262 204T318 206T375 208T410 212H430Q456 212 468 213T490 222Q499 226 501 230T504 243Q499 254
494 264T484 278Q458 302 418 308T332 315H289Q279 315 269 314T248 313Q223 313 194 313T139 311T94 309T69 307H70Q50 303 39 299T28 279V275Q28 271 29 269V262Q31 254 34 241T45 220Z" />
<glyph unicode="." glyph-name="period" horiz-adv-x="158" d="M-16 72V64Q-16 53 -13 45T-4 30Q16 15 33 10T60 4Q74 4 87 7T110 16Q129 26 141 42T155 77Q155 111 118 126Q108 131 97 134T75 138Q68 138 64 138T54 136Q27 131 7 113T-16 72Z" />
<glyph unicode="/" glyph-name="slash" horiz-adv-x="732" d="M670 748Q667 748 665 748T659 749Q632 749 607 739T560 712T517 676T481 638L43 172Q35 164 23 151T-1 123T-21 93T-30 64Q-30 56 -28 50T-21 37Q3 3 49 3Q72 3 93 15Q113 29 129 48T156 78Q159 83
163 86T170 94L169 91L682 629Q688 634 696 645V643Q711 657 721 668T732 697Q732 702 732 707T727 718V717Q716 733 706 738T676 748H670Z" />
<glyph unicode="0" glyph-name="zero" horiz-adv-x="646" d="M618 315Q632 353 640 387T649 451Q649 488 632 531Q624 550 615 563T595 586T571 604T543 623Q503 648 463 662T381 676Q306 676 224 627Q134 573 87 500T22 323Q19 303 17 283T15 245Q15 187 32 142T95
59Q153 5 232 5Q274 5 320 19T414 62Q453 84 484 110T540 166T584 234T618 315ZM525 321Q511 283 490 260T437 211Q399 179 365 163T289 147Q285 147 282 147T274 148Q236 150 213 160T166 197Q124 245 124 307Q124 348 145 401Q160 437 183 464T236 511T297 540T362
550Q369 550 376 550T391 548Q422 544 449 530T496 495T527 446T539 387Q539 355 525 321Z" />
<glyph unicode="1" glyph-name="one" horiz-adv-x="288" d="M277 561Q288 589 288 608Q288 638 271 655T234 673Q215 673 202 664Q180 644 161 631T122 606Q96 589 73 572T23 527Q17 516 17 503Q17 478 30 457T57 434Q58 433 65 433Q76 433 85 437T104 449Q121
464 135 467Q136 466 136 459Q136 442 131 417T120 369Q118 361 117 353T114 337Q105 286 96 248T77 176T59 107T42 24V17Q42 -7 55 -13T89 -19H114Q133 -10 144 -2T160 18T168 45T172 85Q173 95 176 112T184 151T193 195T202 240Q208 273 213 296T222 338T232
376T243 419T258 477T277 560V561Z" />
<glyph unicode="2" glyph-name="two" horiz-adv-x="657" d="M665 505Q672 526 672 548Q672 581 657 607T614 649Q604 654 596 655T578 659Q564 665 541 665Q510 665 469 658T391 641T329 622T303 609Q303 608 304 608Q280 606 245 587T177 540T121 485T98 435Q98
428 102 420T112 403T127 390T144 384Q157 381 164 381Q179 381 188 390T206 411Q211 417 216 423T229 433Q240 440 252 447T275 462Q307 483 340 502T411 524Q416 525 422 525T434 527Q446 529 458 531T483 533Q500 533 513 528T529 506V501Q529 488 522 478T502
460T474 446T443 434Q431 429 420 425T400 416Q377 404 358 396T322 380Q293 367 269 355T212 320Q205 316 199 312T185 303Q168 292 154 283T126 262T97 235T64 199Q22 148 22 107Q22 86 29 68L28 69Q35 44 48 25T86 6Q95 6 103 9Q151 22 187 26T257 31Q281 31
304 29T354 25Q370 23 386 23T422 20Q433 19 442 17T463 13Q484 5 500 5Q528 5 547 33Q558 47 566 66T574 103Q574 129 551 139Q500 156 449 163T346 170Q306 170 270 167T204 157Q210 171 221 180T246 202V201Q249 203 251 205T258 210Q297 239 340 260T425 298Q465
315 502 332T570 373T626 428T665 505Z" />
<glyph unicode="3" glyph-name="three" horiz-adv-x="626" d="M587 136Q621 207 621 269Q621 305 606 341Q596 363 588 377T564 402Q576 412 589 426T615 459T634 500T642 547Q642 558 641 569T634 592V591Q623 628 602 647T541 673Q506 679 461 679Q423 679 383
673T305 651T231 610T168 547Q173 521 187 500T228 478H233Q233 478 241 480Q249 485 257 489T273 498Q310 522 353 545T439 568Q455 568 471 564T505 548V549Q511 544 511 538Q511 530 506 520T494 500T478 482T463 469V470Q445 457 418 451T362 438Q327 430 295
421T241 393Q238 381 237 372T236 355Q236 325 251 308T291 290Q302 290 314 295V294Q336 302 361 307T410 312Q438 312 461 303T492 269Q500 248 500 231Q500 210 491 189T461 153Q423 127 389 113T313 99Q297 99 281 100T244 107Q220 112 202 130T167 168Q153
187 140 199T111 212Q101 212 100 211Q90 204 77 195T52 173T32 148T23 121V114Q23 114 25 106Q37 77 51 59T84 27T124 4T174 -16Q231 -33 283 -33Q332 -33 380 -21T469 14T541 67T587 136Z" />
<glyph unicode="4" glyph-name="four" horiz-adv-x="632" d="M665 306Q665 333 655 342T626 351Q618 351 610 350T592 348Q566 342 535 342Q541 375 545 394T552 429T558 461T566 505Q570 519 581 533Q588 542 593 552T598 573V581Q593 603 578 613T543 624Q531
624 519 620T496 609H497Q483 600 476 588T466 562T460 535T455 512Q446 486 441 463T431 416Q425 390 420 367T405 327Q384 322 355 318T295 310T232 305T173 303H156Q161 325 171 344T195 383Q202 392 208 401T221 421Q230 440 240 454T259 483Q274 503 287 524T312
577L311 576Q322 596 322 610Q322 630 312 644T286 666Q281 667 277 668T265 669Q219 669 191 594Q186 578 182 568T174 551T165 536T156 520Q151 512 146 504T133 484V485Q116 456 100 434Q74 394 54 358T20 277H21Q20 275 20 266Q20 253 25 237T37 204T53 172T69
148Q80 140 93 140Q103 140 113 143T136 149Q149 153 162 156T189 162Q206 163 227 164T269 166T311 167T348 168H384Q380 142 371 109T353 42Q348 28 347 21Q343 7 340 -6T337 -31Q337 -45 342 -53T365 -61H388Q391 -61 394 -61T401 -62Q421 -62 434 -54T462 -16Q473
9 479 39T489 99Q493 123 497 145T507 183Q517 187 525 188T542 189H552Q555 189 557 189T564 188Q573 188 583 190T605 201Q619 209 630 216T649 235T661 261T665 301V306Z" />
<glyph unicode="5" glyph-name="five" horiz-adv-x="575" d="M566 199Q580 247 580 279Q580 325 563 362T516 425Q479 455 438 466T354 477Q319 477 287 472T229 462L227 461Q229 479 236 495T252 526Q252 531 253 532Q276 532 303 536T362 546Q373 548 384 549T407
553Q412 554 416 554T423 555H484Q504 555 521 557T555 567Q574 576 586 599T598 643Q598 662 586 671Q576 687 561 693T527 700Q507 700 486 696T441 685Q422 680 402 675T364 668Q350 666 337 666T312 664Q276 661 244 655T174 630Q166 585 154 559T128 512Q114
489 101 464T83 393Q92 368 99 352T112 327T125 314T140 310Q149 310 156 312T173 316Q201 324 239 331T319 342H332Q359 342 383 337T426 320T456 293T467 256Q467 239 458 217Q448 192 432 177T392 146Q385 145 385 141Q349 115 315 105T249 94Q232 94 216 96T182
102Q166 106 159 116T147 139Q141 156 133 169T98 183Q93 183 89 183T80 181Q45 174 32 155T19 109Q19 89 25 70T38 34Q56 -2 102 -18T205 -35Q224 -35 243 -34T282 -28Q313 -23 340 -16T393 3T443 33T491 80Q505 94 516 107T536 134T552 163T566 199Z" />
<glyph unicode="6" glyph-name="six" horiz-adv-x="629" d="M612 204Q641 260 641 309Q641 347 625 379Q605 417 578 432T509 449H496Q454 449 412 440T330 416T252 382T177 341Q182 364 201 386T244 432Q248 435 251 438T258 445Q296 484 333 502T416 533Q431
536 447 544T476 564T498 590T507 618Q507 624 505 630L506 629Q502 650 488 659T453 669Q439 669 419 664H420Q393 657 373 651T336 638T301 621T263 597Q220 567 187 536T127 468T82 390T50 297Q42 266 38 240T33 186Q33 166 36 147T44 107Q61 45 104 9T224 -27Q245
-27 268 -25T318 -15Q368 -3 409 13T486 53T552 114T612 204ZM531 262Q529 251 518 237T491 207T454 178T415 151Q373 126 332 116T267 105Q255 105 239 106T207 112T182 125T171 147Q171 154 173 162T184 184Q220 217 264 247T365 288Q369 288 372 288T379 290Q403
295 429 298T479 302Q501 302 516 296T531 271V262Z" />
<glyph unicode="7" glyph-name="seven" horiz-adv-x="536" d="M579 612Q571 635 560 643T523 652H511Q503 652 499 651Q416 640 352 634T227 628H207Q202 628 197 628Q192 628 187 629H188Q174 632 161 632Q143 632 127 626T99 609T79 581T71 543Q71 537 71 533T73
524Q77 505 85 494T117 482Q135 482 152 486Q181 494 210 496T268 499Q317 499 365 490Q338 444 307 402T243 315Q216 279 189 241T132 157Q115 133 93 115Q73 95 58 77T43 22V14Q54 -12 74 -26T113 -41Q126 -41 143 -29Q166 3 189 39T234 114V113L263 163Q296
215 326 257T387 339T454 418T532 503Q551 522 566 546T582 593Q582 602 579 611V612Z" />
<glyph unicode="8" glyph-name="eight" horiz-adv-x="679" d="M686 210Q690 223 690 240Q690 260 685 274T672 300T652 320T629 338Q624 343 618 346T607 354Q623 370 640 390T670 433T693 481T702 533Q702 560 690 589Q664 647 615 667T499 688H471Q465 688 462
687Q421 685 382 677T308 652T242 606T183 534Q146 473 146 420Q146 381 166 352Q138 338 117 326T78 298T47 264T21 218Q10 194 5 172T0 129Q0 107 5 87T21 46Q34 21 53 6T95 -19T147 -34T206 -43Q207 -44 212 -44Q218 -44 220 -45Q240 -48 259 -50T299 -52Q393
-52 480 -16T639 99Q651 111 659 127T673 159T682 188T686 210ZM504 131Q459 107 416 97T331 87Q261 87 203 110Q174 123 153 140T129 181Q131 200 140 212T162 233T191 246T224 257Q237 260 248 264T273 274L272 273Q274 274 279 274Q285 274 286 275Q312 277
343 279T407 282Q428 282 448 280T486 273L507 268Q529 262 548 253T568 222V219Q566 190 548 168T504 131ZM582 505Q581 483 567 468T533 443T489 426T444 416Q404 408 384 408Q359 408 337 412T299 424T273 442T263 464Q263 467 264 468Q268 493 289 509T341
535T407 550T475 558Q478 558 481 558T487 559Q505 559 522 555T552 543T574 525T582 505Z" />
<glyph unicode="9" glyph-name="nine" horiz-adv-x="654" d="M674 381Q684 422 684 465Q684 490 679 513T663 563Q655 581 648 595T632 621T612 643T585 665Q562 680 535 686T479 692Q436 692 396 682T326 663Q247 636 194 588T108 465Q87 420 87 379Q87 353 96
332T125 290Q142 272 159 261T193 245T230 237T272 232Q274 231 281 231H291Q300 230 309 230T329 229Q380 229 428 239T513 266Q502 247 496 237T484 220T475 210T465 201Q436 173 407 156T348 128T286 114T218 110Q201 110 188 117T161 132Q148 141 135 147T107
153Q95 153 82 147T56 131T33 107T17 76V69Q17 37 27 19T54 -8T91 -21T131 -25Q139 -26 145 -26T158 -28Q173 -32 188 -33T218 -34Q241 -34 264 -31T316 -19Q343 -12 366 -4T410 14T452 39T498 75Q537 109 565 141T613 209T648 286T674 381ZM371 370Q328 370 290
378T228 401Q207 411 207 426Q207 439 219 453T247 480Q265 495 289 507T341 528T396 542T450 547Q460 547 470 546T490 543Q528 535 546 503T566 429Q551 413 530 402T482 384T428 374T371 370Z" />
<glyph unicode=":" glyph-name="colon" horiz-adv-x="159" d="M204 433Q204 478 184 500T129 523Q105 523 89 511T62 480T46 437T41 391Q41 353 62 330T112 307Q132 307 149 318T178 346T197 386T204 433ZM184 125Q184 170 163 193T108 216Q85 216 69 204T42 173T26
131T21 85Q21 47 41 24T91 0Q111 0 128 11T157 39T177 79T184 125Z" />
<glyph unicode=";" glyph-name="semicolon" horiz-adv-x="236" d="M222 174Q222 191 215 207T197 236T171 257T143 265Q131 265 118 258T95 238T77 210T70 178Q70 152 69 129T59 84Q57 80 55 75T50 65Q44 63 43 56Q42 55 42 51Q39 43 34 40Q23 28 16 14T8 -36Q8
-59 15 -72T32 -93T56 -102T81 -104Q130 -104 156 -51Q180 0 201 54T222 174ZM233 444Q233 490 212 513T155 537Q130 537 112 525T83 493T66 449T60 402Q60 362 82 338T135 314Q157 314 175 325T206 354T226 396T233 444Z" />
<glyph unicode="&lt;" glyph-name="less" horiz-adv-x="417" d="M403 705Q403 720 397 733T382 757T360 774T335 780Q306 780 239 711Q228 700 219 690T199 669Q188 658 179 648T159 628Q139 611 123 599T95 579Q91 576 84 571T77 566Q3 510 3 465Q3 429 16 403Q24
389 37 369T70 322Q85 302 96 286T115 258Q118 253 120 251T125 244Q159 181 209 124L218 115Q223 110 226 107T234 100L271 52Q304 17 331 17Q384 17 384 88Q384 112 360 147L361 146Q356 155 350 160T336 176Q327 187 314 200T285 234Q262 260 246 281T221 320Q218
324 216 328T211 334H212Q210 336 209 338T204 344L205 342Q152 419 152 426Q152 440 236 515Q250 528 265 540T294 565V564Q308 577 322 590T351 616Q403 668 403 705Z" />
<glyph unicode="=" glyph-name="equal" horiz-adv-x="447" d="M422 437V450Q421 451 421 458Q421 497 374 518Q342 531 307 531Q265 531 214 527T99 512Q94 511 90 511T82 509Q74 508 70 507T61 504Q44 498 33 490H34Q10 476 10 452Q13 426 27 403T56 370Q69 363
104 363H115Q124 363 127 364L310 374Q314 375 325 377Q329 378 332 378T341 380Q362 383 370 383Q401 383 411 394T422 437ZM409 254Q409 283 400 300T371 329Q340 343 292 343Q290 343 279 343T248 340Q236 339 225 338T202 337Q190 336 177 336T150 333Q120
329 101 327Q72 324 63 321H65Q48 317 36 300T24 265Q24 223 60 196Q91 171 132 171Q136 171 183 174Q228 176 266 179T337 185Q348 186 353 186T362 187H368Q389 191 401 219V218Q409 236 409 254Z" />
<glyph unicode="&gt;" glyph-name="greater" horiz-adv-x="417" d="M399 439Q399 491 329 534Q312 545 292 560T248 598Q235 611 223 624T198 651V650L173 676Q107 744 81 744Q68 744 56 738T35 721T20 698T14 672Q14 646 34 617Q52 596 64 582T84 561V562Q119
524 145 499T190 458Q201 450 211 442T233 426L231 427Q255 403 255 401Q255 396 243 377T207 324V325Q200 317 195 311T188 299Q170 263 129 216Q95 181 78 160T56 133Q28 99 28 76Q28 52 41 33Q49 19 59 13T82 7Q109 7 142 43Q147 48 152 55T162 67L161 66Q166
72 172 78T183 92Q194 109 204 122T224 147Q232 158 239 167T251 185V184Q259 194 265 203T278 221Q297 247 314 269T344 308Q353 322 358 330T366 343T371 352T378 364V363Q399 397 399 439Z" />
<glyph unicode="?" glyph-name="question" horiz-adv-x="736" d="M711 620H710Q714 631 715 640T716 657Q716 698 688 735Q648 785 592 796Q572 800 545 802T480 804Q416 804 387 797H388Q289 784 257 773Q99 728 78 660Q77 657 77 655T76 647Q76 639 76 628T79
606T87 589T101 582Q113 569 129 569Q143 569 161 577T204 600Q226 614 238 623T252 634Q269 640 280 645T300 655T320 663T346 668Q380 673 405 675T449 678H451Q581 678 581 633Q581 629 579 621Q559 562 429 519Q414 514 403 511T381 505Q363 502 340 498T287
487Q281 485 275 484T262 481Q252 479 244 477T227 473Q220 471 216 470T207 468Q184 463 167 443T142 402Q140 397 139 388T136 362Q135 355 135 349T134 337V316Q134 298 132 282T130 252Q130 237 135 229T158 218Q166 217 173 217Q181 217 187 217Q222 217 231
227T241 264Q241 275 242 288T246 317L253 332Q258 336 263 339T277 345Q277 345 286 346T305 350Q340 355 379 367T464 399Q513 419 550 440T613 482Q643 508 670 546Q672 548 672 550T675 554Q687 574 696 590T711 620ZM256 102L255 101Q257 106 257 110T258
119Q258 141 239 159Q217 178 186 178Q127 178 105 145Q86 126 85 118V119Q81 104 79 91T76 66Q76 11 134 11Q170 11 207 39Q245 67 256 102Z" />
<glyph unicode="@" glyph-name="at" horiz-adv-x="935" d="M915 535Q915 568 915 578Q915 588 914 593Q914 641 890 680Q888 682 887 684T884 690Q877 704 872 712T864 725Q841 762 805 791T717 844Q627 883 532 883Q459 883 373 857Q276 830 226 786Q205 769
184 746T141 693Q15 519 15 322Q15 279 21 245T42 185Q48 174 59 160T85 125Q102 105 115 91T139 69Q193 36 259 21T406 5Q428 5 445 13T475 36T494 70T501 110Q501 140 474 157Q452 170 425 170Q418 170 410 170T392 168Q384 167 375 167T361 166Q321 166 260
185Q208 201 180 265Q161 309 161 353Q161 374 165 387Q235 721 508 724H547Q566 724 582 722T609 717Q668 705 691 690Q737 664 751 647T771 604Q778 582 778 545Q778 532 772 495Q767 446 731 398Q711 374 692 361T652 348Q626 348 626 404Q626 451 635 499Q636
504 638 514T646 540Q654 559 656 570T658 586Q658 625 607 648Q590 656 573 659T535 663Q518 663 496 659T448 645H449Q423 637 403 628T368 607H369Q344 591 323 566T284 509Q261 471 248 434T240 361Q249 304 271 271T321 222T375 202T420 198Q450 198 492 210Q542
224 551 224Q555 224 558 223T567 219L576 216H575Q587 210 599 206T626 201Q677 200 705 207T756 229Q830 275 876 362Q896 402 905 445T915 535ZM497 436Q492 409 490 392T485 369Q480 367 474 365T458 358V359Q440 354 431 351T422 348Q405 348 394 363T382
395Q382 430 427 471Q473 513 505 513H506Q506 496 497 436Z" />
<glyph unicode="A" glyph-name="A" horiz-adv-x="628" d="M468 96L478 45Q482 24 488 12T503 -8T524 -18T553 -24Q559 -24 566 -22T585 -15Q602 -8 609 7T617 40Q617 54 612 66L611 68Q528 663 494 676Q486 678 480 679T462 681H459V682Q412 675 384 664T339 638T312
603T289 559Q279 538 267 514T238 466Q213 425 183 376T122 274T65 172T19 81Q12 64 9 50T5 19V6Q5 -5 10 -14T25 -30T44 -40T65 -44Q91 -44 112 -34T147 8Q158 31 165 48T179 79T193 104T210 125L214 126H225Q227 126 228 126T231 127Q255 128 285 130Q327 132
370 134T438 136H449L456 133H457L461 129L463 126L468 96ZM431 233L427 231H270L267 232L261 243V247L390 462L397 465L407 463L412 458L438 244L436 240L429 233H431Z" />
<glyph unicode="B" glyph-name="B" horiz-adv-x="674" d="M644 404Q660 418 668 434T679 465Q682 477 682 490Q682 521 663 547T613 594T542 627T462 645Q430 650 392 653T311 656Q295 656 279 655T247 652H245Q195 650 166 600Q154 580 150 569T145 552Q116 440
96 363T63 233T43 151T32 104T28 81T27 69Q27 58 28 56V54Q29 34 33 19T45 0L57 -13L63 -14Q89 -35 115 -41T167 -48H177Q224 -48 286 -38T410 -6T528 47T616 124Q636 150 636 176Q636 203 615 227Q573 287 505 310L504 312L503 323L505 326Q543 342 579 360T644
404ZM212 232L221 236Q297 254 360 254Q442 254 486 225Q494 221 497 215T503 203V198Q497 173 469 150T402 106T324 70T253 45Q244 41 230 39T196 36Q189 36 182 36T167 38L171 75L212 232ZM251 353L248 361Q258 404 264 430T277 472T289 500T304 525L315 536Q367
552 437 552Q502 547 529 531T556 494Q556 471 528 445T457 396T362 360T262 345L256 348L251 353Z" />
<glyph unicode="C" glyph-name="C" horiz-adv-x="610" d="M526 499Q528 498 538 493T560 481T574 474Q597 485 611 500T625 528Q625 532 624 534V542Q618 568 596 587T539 624Q512 638 492 647T457 661T428 669T399 672Q383 672 361 669T313 657Q251 619 198 569T105
457T38 327T4 184V171Q4 163 5 160Q7 133 11 115T25 79L47 53Q83 5 137 -15T247 -44Q263 -46 279 -48T314 -50Q389 -50 447 -25T568 48Q585 62 592 71T605 90V88Q605 137 563 137H559Q558 137 550 135T529 129T504 119T480 105H482Q456 91 424 77T341 48Q332 45
304 45Q288 45 264 50T195 73Q176 91 160 113T138 163V175Q138 187 139 190Q145 246 171 300Q199 354 232 405T304 493Q332 523 365 543T433 564H436L526 499Z" />
<glyph unicode="D" glyph-name="D" horiz-adv-x="666" d="M131 -39Q154 -39 175 -37T210 -31L212 -33L219 -28Q313 -21 396 20T542 122T641 255T678 398Q678 444 660 486T604 563T505 622T358 658H356Q330 665 296 666T220 668L155 657Q118 560 113 535Q113 530
113 528T110 521Q92 456 78 399T51 286T30 173T12 50V36L13 35Q16 8 35 -7L131 -39ZM283 557Q371 557 424 549T503 523Q542 494 556 469T573 423L574 416Q573 375 547 330T478 240T376 154T254 83Q248 79 223 70T168 53L162 56L156 61L153 67Q156 100 164 145T184
238T209 336T235 428T257 503T272 551H271L275 554L283 557Z" />
<glyph unicode="E" glyph-name="E" horiz-adv-x="649" d="M11 23Q23 15 36 5T63 -15T87 -31T108 -38Q136 -38 158 -34T213 -25H215L524 19Q545 21 554 24T565 29Q571 35 573 40T576 57Q576 61 576 65Q576 70 575 76H570Q560 87 538 90T499 95Q477 95 453 91T406
87Q402 87 399 87T392 88Q390 88 381 87T360 86T336 84T316 83Q279 81 242 79T168 72L164 73L155 82L154 86Q155 99 160 127T172 184T185 239T195 273L197 274H198L204 276H223Q230 275 235 275Q241 275 246 275H267Q283 275 299 275T337 277T388 281T459 288Q463
288 472 288T492 290T512 291T524 292Q551 296 557 309T563 336V355Q558 375 534 379T481 384H369Q331 384 293 384T232 388L225 398L224 402Q226 411 231 433T243 479T256 525T265 555H264L267 557L272 559Q283 560 289 560T300 561T312 562T328 563H368L556 571H594Q603
571 604 572Q607 575 608 575Q631 580 639 589T647 608V616Q642 626 636 632T621 641T598 647T564 651Q538 652 504 654T435 657T368 660T313 661H235Q227 661 216 661Q206 661 195 662Q168 662 152 659T127 646T112 618T99 568L11 23Z" />
<glyph unicode="F" glyph-name="F" horiz-adv-x="551" d="M481 274Q481 276 481 277T482 281Q482 300 452 304T342 308H194L193 309Q194 310 194 315V316Q194 317 195 318Q201 349 209 387T225 460T239 517T248 542L256 550Q279 556 314 559T411 563Q431 563 455
563Q479 563 507 562Q523 561 536 561T561 560Q587 560 598 567T610 596L608 638V642Q599 651 582 653T544 656Q531 656 518 656T491 655Q412 655 366 655Q320 655 295 655Q270 655 259 655T239 654Q230 654 217 654T172 653Q167 654 157 654Q138 654 127 645T109
622T98 589T90 552Q64 423 46 335T17 188T-1 97T-11 48T-14 27T-15 19V10Q-13 -1 -8 -11T18 -35Q26 -40 36 -42T70 -45Q83 -41 93 -25T112 15T126 65T138 117T150 162T163 191Q163 193 163 194T164 196L170 201L178 204H364Q375 204 385 204T404 203Q425 203 441
207T469 229L481 274Z" />
<glyph unicode="G" glyph-name="G" horiz-adv-x="665" d="M642 498L636 536Q635 537 635 541Q632 555 616 579T574 626T517 668T452 688H428Q407 688 384 687T353 680Q295 664 247 630T158 550T88 452T38 347T8 247T-3 162Q-3 139 2 119L14 78Q25 44 46 26T112
-10V-9Q114 -10 119 -12T131 -16T143 -20T151 -23H152L156 -25Q182 -33 208 -36T261 -39Q313 -39 357 -28T430 -3Q464 10 503 35T577 89T633 149T655 205L654 209Q653 214 653 218Q653 222 653 227Q653 241 649 254T627 278Q612 286 585 287T527 289H490Q460 289
427 287T364 282T309 275T267 267L268 270Q245 260 234 247T223 221Q223 212 228 206T246 198Q260 188 281 185T327 181Q415 199 457 199Q485 199 497 193T509 177Q509 165 493 149T452 118T394 90T330 71Q307 63 280 60T231 56Q217 56 208 57T199 62L198 63H194Q188
67 179 72T162 84T148 98T140 114Q129 117 125 133T121 170Q121 194 126 218T139 255Q180 346 216 406T288 502T364 553T449 570H452Q474 570 495 555T534 522T569 488T599 473H601L642 498Z" />
<glyph unicode="H" glyph-name="H" horiz-adv-x="695" d="M431 5Q440 -9 457 -19T491 -30Q503 -30 511 -23Q528 -23 540 -13T560 11T572 42T578 72H579L580 76V86L664 533Q668 543 671 553T678 577T685 610T691 660Q687 701 631 703H624Q565 703 560 671Q544 626
521 528T464 287L462 284L458 282L450 279H452L210 275L201 285L200 289Q204 311 212 344T231 412T254 481T280 539Q294 559 294 573Q294 588 284 602T257 622Q242 628 211 628Q199 628 189 625L188 628L179 623Q146 617 136 592T118 530Q87 383 67 287T35 131T19
42T14 -1Q14 -13 16 -18T23 -27Q36 -38 53 -43T88 -49H91Q92 -49 93 -49T95 -48Q101 -47 109 -46T124 -40T136 -26T144 2Q152 39 160 76T177 151Q179 157 180 164T187 183L189 184L196 187Q221 188 254 189T320 192T384 193T435 194L439 192H437L445 184L446 180Q443
164 442 156T441 142T440 129T438 108L431 5Z" />
<glyph unicode="I" glyph-name="I" horiz-adv-x="278" d="M99 -27H111Q118 -17 122 -12T128 -1T132 10T136 27Q136 28 140 47T151 99T168 172T187 257T208 345T227 426Q232 454 241 478T256 525Q262 544 267 568T278 615Q278 642 256 662T203 682H189Q182 689
174 689Q155 689 137 645T98 517T55 310T5 30Q8 13 20 1L21 0H19Q20 0 26 -4L99 -27Z" />
<glyph unicode="J" glyph-name="J" horiz-adv-x="548" d="M444 676Q427 673 416 655T393 586T364 440T322 189V183Q322 165 315 144T294 104T262 72T223 59Q200 59 179 76Q165 85 149 99T115 125T80 147T45 157Q27 157 13 144T-9 97V95Q-9 71 8 49T55 20Q109 -9
159 -24T255 -39Q342 -39 400 17T470 191Q480 240 487 278T500 346Q506 388 513 421T527 487T543 552T559 629Q559 656 551 661Q534 671 517 676T485 682Q477 682 472 682T462 680L444 676Z" />
<glyph unicode="K" glyph-name="K" horiz-adv-x="631" d="M225 411Q226 414 228 422T232 440T235 458T237 467Q238 480 242 495T251 528Q257 548 262 568T267 609V614Q267 625 261 635T244 653T220 665T195 670Q193 670 191 670T186 669H180Q149 669 129 650T109
595V585Q90 500 77 440T53 327T30 224T4 107Q1 90 -1 80T-4 62T-7 45T-10 19V9Q-7 -11 4 -22Q20 -31 31 -33T54 -36H66Q82 -33 93 -27T114 3T138 74T174 206L175 208L184 214L189 215Q198 211 217 197T261 157L282 139Q297 125 311 113T339 88Q367 65 387 45T426
8T464 -21T509 -39Q550 -21 550 10Q550 27 537 48T501 94T446 149T376 213Q354 233 331 253T284 296Q273 297 273 303Q273 313 297 332T351 373T410 411T446 434Q451 439 457 444T468 454L660 593Q677 605 688 615T700 642Q698 664 677 676T636 689Q621 689 606
679T564 648Q555 640 546 633T527 619Q502 601 491 593T471 579T453 568T425 550L225 411Z" />
<glyph unicode="L" glyph-name="L" horiz-adv-x="499" d="M143 81V83L147 101V103L252 453L257 458Q263 475 270 493T283 530T294 567T299 600Q299 623 286 637T236 652Q220 652 201 649Q165 647 147 637T124 599V597Q116 586 114 572T112 542V543Q102 504 95
475T82 421T71 370T59 311T43 234T21 129Q19 119 16 105T11 77T6 50T4 27Q6 7 9 -5T23 -25V-28Q43 -39 57 -42T86 -45Q153 -35 204 -30T300 -19Q349 -14 396 -7T492 13Q497 22 499 28T501 42Q501 62 489 74T462 86Q457 86 455 85Q428 83 411 82T382 80T359 78T337
75Q336 74 333 74Q306 71 289 69T255 66T216 63T156 60H158L149 63L145 67L142 74V76Q143 77 143 81Z" />
<glyph unicode="M" glyph-name="M" horiz-adv-x="833" d="M120 19V20L244 355L247 357L259 355L263 351Q263 306 263 277T264 226V171Q263 161 263 149T262 122Q262 102 264 81T272 43T289 15T318 4H322Q332 4 351 12Q368 19 381 27T395 36Q406 53 423 85T461
158Q478 192 497 227T534 293T567 344T593 370L598 371L612 365L613 363Q605 325 599 295T588 238T582 188T580 136Q579 133 579 120T578 92V72Q578 66 580 58Q583 38 588 23T604 -2L613 -11Q636 -24 668 -24Q675 -24 687 -21Q714 -19 718 -10T724 14V35Q724 110
733 178T761 315T807 453T868 599V604Q868 622 857 637T828 664T788 684T745 695Q717 695 694 675T650 631V632Q649 631 649 630T647 628Q644 625 644 623Q625 602 599 569T541 493T475 396T404 281L399 278L385 280L382 285Q383 334 384 367T387 424T392 470T399
516Q402 523 405 534T411 558T415 581T417 598Q414 613 402 622T374 635T341 642T311 645H299Q291 645 289 644Q250 642 230 627T196 585Q188 565 182 550T171 523T161 499T151 474Q137 441 124 409T95 335T58 235T5 89H6Q4 84 1 75T-7 54T-13 30T-16 9V4Q-15 -22
-1 -36T34 -50H57Q74 -50 81 -46L120 19Z" />
<glyph unicode="N" glyph-name="N" horiz-adv-x="668" d="M616 675Q599 672 587 662T567 639T553 609T545 576Q545 576 541 557T530 508T514 438T494 357T473 276T451 204L448 202L435 201Q418 240 405 276T381 346T363 415T349 486Q346 492 346 502T345 527V543Q345
560 344 578T338 611T323 636T296 647Q243 644 212 635T164 610T140 572T127 520Q120 494 114 469T101 421Q77 327 60 262T32 152T15 83T5 43T1 23T0 13V5Q0 -9 6 -20T23 -40T46 -53T71 -58Q91 -58 106 -47T125 -10V-5Q129 6 136 30T153 87T172 158T192 235T210
311T223 378L228 382L241 383L245 380Q264 312 284 255T325 153T362 80T390 41Q413 11 435 -2T477 -16Q500 -16 517 -1T543 40Q564 107 575 142T592 196T601 225T608 252Q610 263 614 280T624 316T634 352T642 379Q645 385 650 401T662 441T674 491T683 544Q691
562 697 583T703 625Q703 651 690 664L616 675Z" />
<glyph unicode="O" glyph-name="O" horiz-adv-x="736" d="M457 657Q388 649 339 638T259 609Q233 594 217 584T193 569Q149 537 114 495T53 407T15 311T1 217V202Q1 192 2 189Q5 166 12 142T40 88V89Q74 33 125 5T256 -36Q278 -41 298 -42T341 -44Q407 -44 461
-31T555 14Q600 53 633 99T688 195T720 294T731 392V414Q731 419 731 425T729 436Q727 455 723 474T709 512Q688 551 665 577T616 620T567 645T522 657H457ZM488 573Q517 573 546 555Q571 537 584 503T602 434Q603 426 603 418T604 401Q604 346 586 283T530 166T434
74T296 34Q285 34 267 40T231 56Q191 69 170 98T147 163Q146 164 146 167Q147 199 157 238T186 319T230 400T288 473T358 531T438 566Q448 569 460 571T488 573Z" />
<glyph unicode="P" glyph-name="P" horiz-adv-x="608" d="M398 264Q494 307 549 356T604 473Q599 524 573 559T489 620Q467 630 434 639T364 655T287 667T214 673H211Q188 673 172 666T142 647Q116 620 107 591T90 526Q86 503 81 477T71 426Q55 348 41 277T11
127Q5 101 0 71T-7 15V9Q-7 1 1 -8T23 -25T50 -38T77 -44Q86 -44 90 -42Q104 -39 112 -35T126 -25T133 -10T137 14Q137 40 144 65L170 198L169 197L170 199L179 207Q217 212 247 217T304 230T353 245T398 264ZM207 303L204 304L193 315L192 318Q195 336 198 353T204
387Q211 429 217 463T231 522T246 561T265 575Q284 575 309 573T359 567T409 555T452 536Q452 533 455 533Q456 532 459 532Q490 502 490 476Q490 452 470 431T415 389T335 349T239 310L207 303Z" />
<glyph unicode="Q" glyph-name="Q" horiz-adv-x="728" d="M719 379Q719 384 719 400T714 438T703 485T681 535Q652 584 613 612T508 652Q488 654 473 657T435 661Q388 661 339 646T245 604T161 543T97 467Q49 394 30 323T10 192Q10 186 10 180T11 169Q13 148 18
127T34 86T66 46T120 9Q174 -20 215 -30T296 -40Q318 -40 333 -40T359 -38T381 -34T403 -28L444 -14Q461 -20 476 -33T507 -57Q513 -62 524 -71T548 -89T577 -104T607 -111Q625 -111 638 -97Q640 -92 643 -81T647 -56Q648 -52 648 -49T649 -43Q649 -28 640 -18T617
-1T588 11T560 21Q559 21 558 24T553 46Q577 61 608 92H606Q663 149 691 226T719 379ZM445 105Q435 105 422 111T392 127Q391 128 390 128Q390 128 390 128Q390 128 388 130V129Q366 140 343 150T300 160Q298 161 293 161Q285 161 275 156T257 144T244 127T238
108Q238 91 255 83Q256 82 257 82T259 81Q269 75 276 73T289 68T302 61T320 45Q304 40 285 39T257 38Q223 38 199 58T158 106T135 165T127 217Q127 268 149 317T206 411T287 494T377 561Q394 568 419 573T473 579Q488 579 503 576Q542 564 561 528T584 449Q585
441 585 432T586 413Q586 378 580 341T561 267T530 199T487 143L445 105Z" />
<glyph unicode="R" glyph-name="R" horiz-adv-x="631" d="M626 509Q622 537 605 555T552 598Q474 634 406 645T275 656Q258 655 240 655T205 651T173 641T146 618V619Q141 613 136 604T127 584T120 566T116 554Q88 427 69 339T36 193T16 101T6 49T1 25T0 14V6Q2
-17 32 -37Q37 -41 51 -49T74 -57H76Q92 -57 102 -45T112 -13V-11L114 -7Q118 1 127 26T148 82T172 146T194 200H197Q223 178 247 157T294 117H293Q295 115 298 112T309 103Q358 56 404 21T511 -40Q529 -34 541 -27T554 0Q574 4 574 16Q574 30 545 53T476 105T392
169T319 239L318 243L321 252L327 258Q376 271 426 291T520 338T593 396T631 463L626 509ZM454 407L452 406Q426 391 403 381T357 365T308 356T252 351Q236 338 226 338Q212 338 212 365Q212 387 220 421T238 488T256 546T266 577Q287 577 314 576T368 571T421
560T464 540H463L465 538Q469 533 476 528T489 515T501 501T507 487Q507 483 503 474T494 452L454 407Z" />
<glyph unicode="S" glyph-name="S" horiz-adv-x="649" d="M315 606Q258 579 214 542T151 470Q135 440 125 415T114 367Q115 343 127 320T157 276T197 239T243 211Q252 207 258 204T270 197Q284 190 300 186T333 178Q364 171 393 163T429 145Q446 137 451 130T458
115V111Q458 101 452 93T438 78T420 67T405 62Q402 60 389 59T361 56T332 55T311 54Q298 54 287 55T264 58T236 63T201 72Q174 86 149 105T107 151Q100 162 92 172T68 191V192Q54 190 37 189T8 176L7 175Q-9 156 -9 134Q-9 112 6 91T48 50T108 14T179 -15T253 -35T324
-42Q332 -42 340 -42T357 -40Q388 -40 409 -33T451 -21Q489 -7 517 12T568 56Q587 77 595 98T603 121Q602 125 601 135T597 153Q583 184 549 211T458 249Q424 262 389 272T318 298Q317 299 313 299Q285 301 269 323T253 375Q253 401 266 421Q289 456 326 487T409
532H413Q428 532 446 531T483 525T520 512T552 490Q575 472 590 462T615 450H620Q646 450 656 463T666 497Q666 504 665 511T662 524Q656 541 641 552T593 580Q555 600 520 615T437 636Q430 636 429 635Q405 635 381 630T333 615L315 606Z" />
<glyph unicode="T" glyph-name="T" horiz-adv-x="583" d="M610 566Q627 572 634 584T642 610Q642 632 624 651T572 670Q561 670 548 667Q533 667 510 668T460 669H444Q440 669 436 669Q432 669 428 668Q424 668 403 668T356 666T306 664T270 661H191Q162 661 145
661T118 662H101Q88 662 69 661T11 657Q-4 655 -10 644T-16 617Q-16 602 -11 586T1 557Q22 552 38 550T77 548H189L198 537L197 538L198 533Q173 408 156 322T127 179T109 91T99 43T94 23T91 16Q91 6 94 -1T112 -25V-24Q115 -30 127 -34T155 -38Q176 -38 195 -29T214
4V11Q243 139 261 224T291 364T310 449T322 497T333 525T349 552L610 566Z" />
<glyph unicode="U" glyph-name="U" horiz-adv-x="634" d="M482 518Q477 486 471 450T450 356Q442 323 433 288T413 221T392 163T371 123L334 74L331 70Q319 61 304 56T275 49T249 46T231 45H226Q218 45 205 49T178 62T154 84T144 116Q144 122 145 126Q145 149
151 180T169 249Q196 341 212 394T239 477T252 517T258 536T260 555T264 597V599Q264 610 255 620T234 639T207 654T180 664Q162 664 147 653T108 605L107 599V600Q105 596 101 580T89 536Q75 489 65 457T49 400T37 359T29 324T22 288T14 242Q11 224 9 206T7 168Q7
130 19 94T64 30L71 27Q117 -10 152 -24T226 -39Q231 -38 241 -38Q250 -38 260 -38T282 -39H290Q291 -38 294 -38H298Q365 -38 411 -2T490 92T543 220T581 358Q597 417 611 483T633 611Q633 629 632 642T626 675Q622 682 613 687T594 697T572 703T553 705Q543 705
531 695T516 682L482 518Z" />
<glyph unicode="V" glyph-name="V" horiz-adv-x="660" d="M67 64Q70 52 74 38T84 10T100 -16T121 -35Q146 -40 174 -40Q201 -40 229 -36T279 -22T316 3T331 41V44Q393 166 436 245T509 374T559 454T595 508Q600 518 613 534T640 570T667 607T684 640Q684 648 681
657T672 675T658 689T641 695Q640 697 635 697T621 698Q609 698 597 697T581 691Q554 671 522 630T456 538T388 429T323 318T266 219T222 148L210 150L207 155Q204 167 200 183T194 214Q192 234 191 253T189 291V359Q189 407 193 439T202 494Q207 519 208 543T210
584Q206 610 183 622T135 635H114Q106 635 103 634Q72 627 59 601T39 531Q37 513 36 485T34 420Q34 378 36 329T45 220L67 64Z" />
<glyph unicode="W" glyph-name="W" horiz-adv-x="877" d="M67 -13V-12Q93 -29 113 -29Q129 -29 144 -24H146Q154 -26 159 -26Q175 -26 188 -12T214 29T241 95T276 184Q289 215 298 237T315 273T328 297T339 315L348 318L358 316L363 312Q366 277 367 266T369 249T371
239T375 211Q379 189 383 166T392 122Q395 103 401 80T416 35T439 -6T471 -34Q487 -39 502 -41T528 -43Q546 -43 558 -43T583 -38Q595 -34 602 -30T615 -20T623 -5T632 19H633Q646 49 656 74T677 129T703 194T740 282T794 403T872 569V570H873V569Q881 582 885
594T893 622L892 623V624Q892 626 891 627H895Q880 650 864 659T829 669Q815 669 795 664Q774 664 753 642T710 579T663 482T610 360Q593 318 576 279T539 198L536 196L525 198L520 202Q516 237 514 262T510 305T509 339Q509 355 509 372Q509 415 509 439Q509 463
509 475Q509 487 509 490T508 495Q507 505 505 513T494 526Q472 539 447 544T411 550Q374 545 345 517T292 452Q279 432 269 416T250 383T229 347T203 300L198 297L185 301L182 306Q186 380 192 419T203 485V484Q205 496 206 505T209 526T212 551T214 586Q211 611
188 622T140 634Q124 634 113 630Q92 628 81 622T63 606T54 580T48 543V541Q39 484 34 411T28 256Q29 205 30 150T37 38Q39 24 45 11T65 -11L67 -13Z" />
<glyph unicode="X" glyph-name="X" horiz-adv-x="631" d="M199 629H190Q181 629 168 628T141 625T114 619T93 612Q81 607 77 597T73 575Q73 555 80 539L84 536Q88 528 99 506T126 451T157 380T189 301L190 298L188 290Q155 249 131 219T89 167T56 125T27 87T-4
45T-43 -9Q-41 -30 1 -38Q6 -39 9 -39T14 -40H25Q49 -40 78 -25Q108 9 131 36T173 85Q188 103 200 117T222 142Q232 152 238 160T250 176L254 178L265 177L268 174Q281 152 303 120T349 56T396 2T434 -24V-25Q450 -28 463 -28Q484 -28 499 -21Q517 -19 525 -12T533
3Q531 21 519 38T492 71T464 103T445 135Q434 151 425 166T406 199T388 241T369 295H368V296L370 304L369 303L371 307V306Q405 344 421 363T447 393L456 402Q456 402 457 403T458 406L461 409Q466 415 471 421T485 436T507 458T540 492Q568 522 587 541T622 573T650
598T680 625Q685 632 685 638Q685 648 677 657T656 674T630 686T605 691H601Q591 691 580 687T554 672T522 643T483 594L326 433L319 430L308 433H307Q286 465 272 494T247 548T225 593T199 629Z" />
<glyph unicode="Y" glyph-name="Y" horiz-adv-x="576" d="M585 667Q579 678 563 684T528 691Q500 691 479 669Q412 597 349 526T231 383L232 384H231Q223 398 213 422T190 478Q180 503 169 528T147 576T122 617T95 646Q88 648 79 649T61 650Q46 650 31 648T8 639Q-1
633 -4 624T-7 601V596Q-7 580 0 563T15 530Q29 509 44 474T72 401T96 327T111 266V262L70 24Q71 2 99 -15L108 -24Q152 -40 175 -40Q196 -40 206 -26T223 22T240 108T269 237Q272 252 274 263T281 285T292 306T310 331Q346 384 404 449T552 599Q556 602 563 607T576
619T588 632T593 647V651Q593 652 593 652T592 654L585 667Z" />
<glyph unicode="Z" glyph-name="Z" horiz-adv-x="730" d="M606 458Q625 476 648 496T690 539T722 581T735 620Q735 639 717 652T650 670Q630 670 600 667Q595 667 579 667T544 665T509 664T487 663H431Q419 663 399 662T340 657Q249 651 193 646T106 633T65 618T54
599Q54 592 57 585V575Q57 561 59 547T75 528Q90 516 102 513T128 509Q136 509 148 510T174 513Q183 513 214 516T284 523T359 533T416 543L414 541Q428 543 439 544T462 546Q482 546 499 536V531L84 151Q71 139 58 126T35 97T18 67T11 36V32Q9 25 8 19T6 1Q6 -6
14 -20Q26 -33 48 -38T103 -43Q206 -41 273 -35T378 -28H391Q411 -29 441 -29T499 -30H531Q537 -30 542 -30T553 -28Q598 -27 615 -18T633 8Q633 14 630 23T621 40V42Q617 88 538 88H467Q454 88 443 88T413 91Q404 91 392 91T360 89T310 86T236 81L220 91V94L606
458Z" />
<glyph unicode="[" glyph-name="bracketleft" horiz-adv-x="373" d="M355 76Q355 92 350 100Q336 119 317 124Q305 128 258 133Q216 136 201 142Q196 145 190 154T183 170Q183 176 184 187T186 210T189 232T191 248Q197 344 197 450Q197 475 197 492T195 520Q190
565 186 596T179 650Q178 655 175 665T166 693Q156 720 156 731Q156 742 171 750Q187 752 198 753T218 755Q230 757 242 758T268 762Q299 765 314 775Q356 796 356 826Q356 850 337 865Q331 871 296 871H156Q153 870 148 870H108Q7 870 7 788Q7 776 10 761T21 724Q27
707 32 692T44 659Q51 640 56 626T65 603Q70 563 73 533T79 483Q81 460 82 447T83 428Q83 420 83 399T81 342Q80 339 80 333V301Q79 290 75 264T65 193Q55 129 53 86V79Q53 45 84 30Q98 25 116 20T159 11Q179 9 197 7T236 3Q253 1 263 1T276 0Q304 0 329 25Q355
49 355 76Z" />
<glyph unicode="\" glyph-name="backslash" horiz-adv-x="596" d="M556 83Q556 115 321 503Q305 526 294 541T274 568Q243 610 220 642T180 696Q173 705 161 725T130 776Q115 801 102 820T76 852Q56 875 48 875Q-34 875 -34 800Q-34 775 -22 754Q-2 723 14 699T43
658Q94 585 133 531T198 441Q236 387 258 350T291 294Q317 243 340 201T388 121Q405 93 415 77T427 56Q458 -1 477 -1Q499 -1 527 30Q556 62 556 83Z" />
<glyph unicode="]" glyph-name="bracketright" horiz-adv-x="373" d="M365 788Q365 811 361 825T346 848T320 859T279 862Q262 862 233 864T160 870L86 879Q74 879 67 879T58 880Q46 880 20 860Q20 822 34 798T80 765Q90 761 142 758Q161 757 175 756T200 750Q215
742 215 731Q215 720 205 693Q194 661 193 650L182 564Q179 535 177 515T175 483Q175 374 177 303T186 195Q189 172 189 170Q189 145 160 140Q125 134 99 130T54 124Q43 121 30 110T16 88Q16 55 39 26Q62 0 96 0Q94 0 113 3T174 11L240 20Q289 28 298 37Q319 58
319 70Q319 85 318 86Q309 158 303 211T292 301Q291 303 291 311V337Q288 403 288 428Q288 476 293 518T306 603Q308 612 316 636T340 699Q365 761 365 788Z" />
<glyph unicode="^" glyph-name="asciicircum" horiz-adv-x="430" d="M397 674Q391 686 385 691T370 701Q368 703 364 705T359 707Q345 718 338 721T320 728Q315 730 308 733T285 744H286L281 746Q264 756 243 766T203 779Q200 780 197 780H190Q170 780 157 769T137
730Q137 730 132 726Q130 724 128 723T120 718Q107 707 101 704T89 698Q83 695 76 692T57 677Q43 666 33 648T22 607Q22 588 30 573Q47 540 81 540Q101 540 121 555Q139 570 150 579T172 599Q177 604 183 609T198 621Q230 618 250 610T296 584L295 585Q299 583
303 580T312 574Q322 569 331 565T350 561Q365 561 384 572Q409 589 409 626Q409 652 397 675V674Z" />
<glyph unicode="_" glyph-name="underscore" horiz-adv-x="529" d="M514 -48Q514 4 446 13Q443 14 438 14H424L268 1Q229 -2 210 -3T190 -4H50Q41 -4 27 -18Q13 -35 13 -43Q13 -92 41 -119T118 -147H195Q203 -147 214 -147T240 -145Q303 -141 353 -138T443 -130Q470
-129 473 -127Q492 -123 504 -95Q514 -72 514 -48Z" />
<glyph unicode="`" glyph-name="grave" horiz-adv-x="271" d="M207 596Q226 603 234 609T243 629Q243 638 232 662Q224 678 213 696T188 731T160 763T132 787Q100 808 77 808Q61 808 52 800T43 771Q43 762 43 758T46 749Q51 733 57 722T71 701T91 682T118 661Q135
649 146 640T163 624Q178 605 189 601T205 596H207Z" />
<glyph unicode="a" glyph-name="a" horiz-adv-x="616" d="M588 248Q592 272 595 293T603 339T617 391T642 458Q639 476 628 488T601 508T565 519T523 522Q506 522 491 521T465 518Q417 512 375 507T294 497T218 486T143 470Q129 454 126 441T122 408V383Q122 372
132 369T157 365Q196 365 235 372T313 387Q345 392 378 397T445 403H466Q471 403 476 403T487 401H489Q501 397 505 393T510 385Q510 383 509 380T507 375Q503 358 501 340T485 308L479 306Q439 319 406 327T330 336H325Q290 336 257 330T191 309T125 269T55 205Q35
182 27 157T18 105Q18 78 26 55T47 15Q67 -10 95 -20T156 -30Q187 -30 222 -22T292 -1T360 28T420 61H427Q431 56 432 51T433 39Q433 28 431 18T429 0Q429 -31 461 -31Q465 -31 470 -29T480 -27Q484 -27 486 -28Q496 -33 509 -33Q523 -33 533 -25T549 -5T558 22T561
52V61L588 248ZM179 99H162Q137 109 137 125Q137 141 157 158T204 191T259 216T305 226H309Q317 227 325 227T341 228Q371 228 396 220T425 192L423 187Q374 147 312 123T179 99Z" />
<glyph unicode="b" glyph-name="b" horiz-adv-x="627" d="M635 229Q647 254 650 276T653 325V356Q653 385 644 410T613 455Q590 467 560 472T495 477Q432 477 372 461T245 417Q253 458 262 505T271 596Q271 601 271 606Q271 612 270 617Q262 621 255 623T241 626Q223
624 204 618T166 608Q161 595 157 584T146 553T132 499T112 406T84 258T44 39Q44 31 45 29Q50 -1 76 -11T137 -22Q162 -22 188 -21T237 -15Q292 -3 349 12T457 50T551 107T617 188L635 229ZM545 302Q545 279 535 260T506 223T463 190T412 159Q363 139 310 125T202
110H186Q174 110 171 111L167 114Q165 119 165 123T164 132Q164 150 168 166T177 198T186 231T190 266L193 270Q194 270 197 274L198 275Q209 284 230 298T276 315Q324 331 368 340T452 350Q477 350 498 346T538 329L540 327Q541 326 541 323Q541 320 542 319Q545
310 545 302Z" />
<glyph unicode="c" glyph-name="c" horiz-adv-x="614" d="M447 365H448Q468 358 485 348T522 323Q523 322 523 322Q523 322 524 321H526Q537 313 543 308T563 302Q576 302 593 310T626 329T652 352T663 374V375Q659 378 659 381V382Q622 436 553 468T396 501Q370
501 342 498T284 486Q187 453 129 402T47 285Q44 276 41 259T35 224T30 190T28 165Q34 141 39 122T52 87T75 56T112 26Q148 3 184 -8T262 -19Q300 -19 342 -10Q381 -3 411 4T470 22T525 46T586 83Q593 87 597 97T601 118Q601 128 598 138T590 158T578 172T561 178H556Q536
175 517 167T477 150T437 132T398 118Q369 111 339 107T277 103Q269 101 262 101Q255 101 248 101Q224 101 205 107T174 123T154 144T145 165Q133 184 133 209Q133 229 140 248T159 283T183 309T205 322Q240 347 279 362T364 378Q385 378 405 374T447 365Z" />
<glyph unicode="d" glyph-name="d" horiz-adv-x="664" d="M740 672Q740 680 723 688T682 696Q668 696 655 692T630 679T612 653T604 612Q602 598 598 580T591 545Q585 514 578 481T559 423L555 420Q553 419 546 419H540Q528 419 517 423T494 440Q459 451 417 461T326
472Q294 472 262 465T198 439Q137 416 95 350T46 184Q42 168 41 153T40 125Q40 80 56 51T105 1Q122 -9 146 -15T199 -21Q262 -21 331 0T459 58L466 56Q468 52 468 42Q468 34 467 28T466 14Q466 -1 476 -10Q509 -13 534 -13Q587 -13 604 2T622 52Q622 72 619 98Q622
103 627 140T646 244Q649 259 656 288T673 355T693 435T714 517T733 591T747 646L740 672ZM489 194Q464 175 441 161T393 137T342 120T285 109Q262 106 244 104T211 102Q193 102 180 105Q168 107 162 114T152 133T148 158T147 184Q150 203 152 220T161 253T180
285T214 321Q234 338 254 344T296 350Q316 350 339 345T388 332H389Q399 330 409 327T433 322Q451 317 472 304T506 277L507 275Q507 272 507 269T508 263V240Q508 228 505 218T490 195L489 194Z" />
<glyph unicode="e" glyph-name="e" horiz-adv-x="563" d="M549 30Q565 38 572 59T580 100Q580 120 572 133T547 147Q532 147 512 141T472 126Q458 121 444 116T410 106Q368 97 331 90T260 83Q225 83 197 93T152 141Q166 155 192 157T241 160Q289 161 336 164T428
180T511 216T580 285Q595 304 601 328T607 380Q607 409 596 436T560 475Q532 488 496 494T417 501Q391 499 363 497T305 489T247 475T194 454Q175 443 149 416T98 350T57 263T40 160Q40 155 40 149Q40 144 41 139Q41 99 63 72T115 24Q153 -2 195 -11T285 -21Q348
-21 414 -7T548 30H549ZM466 301Q452 289 443 283T420 272T384 266T322 259Q273 263 245 266T201 271T182 276T177 281V284Q178 303 194 321T231 354T276 377T315 387Q335 394 348 396T372 399Q382 399 388 397T401 394H412Q428 394 444 392T473 384T493 372T501
356V352L466 301Z" />
<glyph unicode="f" glyph-name="f" horiz-adv-x="434" d="M548 695Q543 696 539 696Q535 696 531 696Q511 696 497 696Q484 696 474 696T453 695Q444 695 434 695Q419 695 389 695T324 693T259 692T210 691Q195 688 183 682T162 660T144 614T128 533Q123 449 108
385T77 262T49 142T36 2Q36 -14 44 -25T75 -37Q93 -37 105 -33Q133 -27 147 -16T168 11T176 45T180 83Q186 131 192 193T218 319Q233 326 252 326Q257 326 262 326T275 325Q280 325 285 325T297 327Q325 331 347 333T385 337T411 345T428 360Q436 372 436 386Q436
396 434 405T432 423Q432 449 423 453T390 458Q373 455 355 453T318 448T283 444T255 443Q255 443 257 465T264 514T276 563T293 586Q308 586 330 586T376 583T421 578T454 568Q455 568 467 567T493 565T521 562T537 559T542 558T548 557Q559 557 569 563T586 580T598
604T602 630Q602 643 598 654T582 672L548 695Z" />
<glyph unicode="g" glyph-name="g" horiz-adv-x="619" d="M605 117Q616 142 618 163T623 205Q631 250 635 275T642 321Q645 347 651 366T662 403T672 439T677 482Q677 504 662 509T625 514Q590 514 574 506T558 465L552 460Q522 465 494 475Q490 477 486 477T478
480Q459 485 440 490T403 495Q399 495 384 495T350 494T315 492T289 488Q269 485 245 479T195 460T141 424T86 364Q74 347 67 321T56 267T51 212T49 165Q49 129 72 97T131 48Q156 36 187 30T254 24Q311 24 369 40T479 89L487 85Q487 72 481 61T465 39T447 20T431
4Q403 -21 367 -34T289 -47Q276 -47 264 -46T238 -42Q221 -39 203 -33T168 -21T136 -10T107 -5Q94 -5 81 -14T58 -36T41 -65T34 -94Q34 -112 46 -121Q61 -133 83 -142T131 -157T184 -167T235 -170Q293 -170 344 -158T454 -108Q525 -62 559 -6T605 117ZM401 176Q366
162 325 155T248 148Q211 148 195 154Q178 160 170 175T162 211Q162 231 168 251T189 289Q204 311 226 326T273 350T325 364T375 368Q403 368 429 367T476 361T511 345T531 315V313Q531 268 496 234T401 176Z" />
<glyph unicode="h" glyph-name="h" horiz-adv-x="562" d="M582 401Q582 424 576 446T552 491Q516 502 491 502Q455 502 422 492T358 465T296 428T234 387Q240 419 243 443T251 495T264 561T286 660V665Q286 677 274 682T248 687H231Q212 687 195 684T166 672T146
648T139 608Q128 540 121 497T110 427T102 381T95 346T86 306T74 248T55 155T26 13Q26 -6 49 -14Q57 -18 72 -18Q97 -18 113 -17T139 -8T154 15T163 60Q164 74 168 96T178 142T193 189T211 229T237 258T273 281T318 302T369 327Q384 338 405 345T444 352Q452 352
459 350T468 341V337Q463 330 457 311T443 264T427 204T413 139T401 76T394 22V18Q394 2 407 -7T447 -17H455Q462 -17 464 -16Q493 -11 508 8T523 49L582 401Z" />
<glyph unicode="i" glyph-name="i" horiz-adv-x="236" d="M185 233Q191 253 196 273T208 317T223 375T242 455Q242 457 243 458Q243 460 243 460T244 463Q244 482 230 490T197 499Q173 499 151 488T124 456Q108 398 96 348T68 239Q60 210 54 186T43 138T34 90T24
35Q24 33 24 33T23 30V25Q23 4 36 -3T67 -10Q97 -10 110 -3T131 22T143 69T162 143L185 233ZM303 601Q305 609 305 608V612Q305 634 282 644T225 655Q210 655 193 650T162 635T139 611T129 577Q129 554 149 544T202 533Q250 538 272 552T300 584L303 601Z" />
<glyph unicode="j" glyph-name="j" horiz-adv-x="281" d="M314 460Q314 461 314 462T315 464Q315 484 297 494T257 505Q241 505 226 499T202 479Q192 462 187 451T178 425T169 389T153 330Q138 265 129 210T107 112T69 39T0 -5Q-5 23 -23 36T-63 49Q-89 49 -111
30T-134 -27Q-134 -39 -131 -52Q-128 -52 -119 -66T-99 -96T-79 -126T-67 -138Q-44 -151 -22 -151Q-7 -151 7 -146T33 -132T57 -115T79 -98Q107 -78 133 -58T179 -17T212 27T225 76L314 460ZM361 601Q363 609 363 608V612Q363 634 340 644T283 655Q248 655 222
636T188 587Q187 586 187 581V577Q187 554 207 544T260 533H274Q310 538 331 552T358 584L361 601Z" />
<glyph unicode="k" glyph-name="k" horiz-adv-x="597" d="M507 155Q494 166 476 180T440 208Q424 221 413 230T393 246T373 259T347 275V283Q373 305 404 321T469 354Q483 361 510 372T563 399T610 432T630 470Q630 492 615 513T570 535Q561 535 549 532T523 519Q504
507 491 500T465 485T440 471T409 453Q408 452 395 444T363 424T320 397T278 370T245 350T231 342Q224 331 219 331Q214 331 214 345Q214 362 220 394T234 458T249 516T260 547Q265 566 272 584T290 623Q291 624 291 632Q291 638 286 645T272 660T252 671T231 676H213Q201
676 190 668T164 634Q159 611 157 603T153 592T150 586T145 571Q142 557 136 530T123 471T107 403T92 338T80 286T74 259Q50 159 38 95T26 6Q26 -7 33 -15T63 -24Q68 -24 73 -24T83 -22H85Q112 -17 129 -2T147 33V38Q154 65 157 77T163 102T168 132T179 188L184
191H194Q214 191 230 189T263 179Q298 159 325 139T382 96Q393 86 398 84Q403 80 408 76T419 67Q449 49 468 30T505 -4Q510 -6 521 -6Q534 -6 548 -1T575 13T595 34T603 62Q603 72 601 77Q601 85 592 93L507 155Z" />
<glyph unicode="l" glyph-name="l" horiz-adv-x="233" d="M184 109Q197 248 225 378T295 626Q297 631 297 633T298 637Q298 658 281 668T238 678Q224 678 185 667Q174 662 169 658T162 648T158 633T154 608Q154 605 151 589T144 549T135 499T126 449T118 410T113
390Q108 365 106 353T102 334T99 321T94 300Q88 277 84 256T75 212T65 166T51 111Q46 91 40 70T34 26Q34 5 45 -11T88 -28H98Q133 -23 157 -4T181 54L184 109Z" />
<glyph unicode="m" glyph-name="m" horiz-adv-x="803" d="M470 488Q460 498 442 498Q427 498 410 493T376 480T344 463T320 447Q307 444 290 431T235 401Q235 416 243 438T252 480Q252 491 247 499T225 510Q220 510 214 510T202 508H201Q200 508 199 508T196 507H194Q152
501 137 484T122 444Q122 380 111 328T85 226T55 125T32 13V9Q32 -7 47 -14T79 -21Q97 -21 111 -14Q123 -13 132 3T148 45T162 101T176 161T191 216T210 255Q219 271 230 283T258 307T299 330T357 357Q377 352 381 352H392Q403 352 411 349T420 339V338Q420 300
410 263T386 190T361 117T344 42V36Q344 14 361 3T402 -8Q425 -8 445 4T468 39Q475 61 486 116T527 257Q545 270 562 286T598 316T638 339T685 349Q692 349 693 342T695 327V315Q694 305 690 286T677 237T658 164T633 64Q629 56 628 48T627 32V15Q627 -4 636 -11T669
-18Q702 -18 734 5Q746 14 756 44T774 117T790 208T801 302T808 385T811 440Q811 465 808 489Q795 500 781 503T751 507Q735 507 713 500T667 482T618 458T574 433T540 412T522 398L470 488Z" />
<glyph unicode="n" glyph-name="n" horiz-adv-x="597" d="M504 -9V-7Q511 -6 517 -6T528 -5Q543 -5 551 -2T563 19Q569 67 575 112T586 184Q589 198 590 202T593 217T600 250T616 327Q618 331 623 354T634 403T644 452T649 478Q649 496 637 509T605 522H597Q550
522 506 511T417 482T329 447T237 413Q239 430 241 447T244 481Q244 492 230 498T196 505Q184 505 171 502T148 490T131 468T124 434V428Q121 417 116 394T104 345T93 295T86 255Q83 246 78 223T67 168T56 97T46 17V13Q46 -1 58 -6T83 -11Q99 -11 115 -4T146 14Q160
27 163 43T166 76Q176 119 182 146T192 193T200 227T208 256Q213 263 233 273T278 295T329 316T369 332Q378 337 393 342T424 351T457 359T487 362Q492 362 502 360Q507 352 507 340Q507 331 504 318T495 283T481 232T462 160Q451 128 443 99T431 29V28Q431 -12
469 -12Q482 -12 503 -6L504 -9Z" />
<glyph unicode="o" glyph-name="o" horiz-adv-x="642" d="M593 435Q582 444 572 451T549 464T514 476T460 489Q436 494 414 497T370 500Q299 500 222 466Q136 421 84 354T25 209Q24 206 24 200Q24 187 28 171T38 142T49 119T55 110Q56 105 68 92T97 65T132 38T166
22Q220 -3 282 -3Q306 -3 335 1T394 12T451 30T500 53Q583 103 618 156T654 270Q654 280 654 294T652 323T646 354T635 383L593 435ZM541 266Q541 244 524 225T482 182Q480 180 479 179T477 176L475 174Q435 140 388 123T289 106Q248 106 212 117Q177 134 160 163T142
225Q142 251 153 275T188 314Q206 329 221 341T250 362T281 374T319 379Q327 382 342 384T376 386Q399 386 421 383T458 372Q504 356 527 334T541 266Z" />
<glyph unicode="p" glyph-name="p" horiz-adv-x="641" d="M247 483Q224 481 205 477T165 457Q137 385 116 311T79 162T48 11T19 -141Q19 -151 23 -157T38 -170Q57 -178 74 -178Q107 -178 139 -154Q149 -146 152 -137T155 -118V-84Q155 -57 159 -31T179 15L181
17Q199 23 228 29Q273 33 313 48T402 79Q464 106 512 134T594 193T645 258T663 333Q663 338 663 342Q663 346 662 351Q662 373 658 388Q649 426 623 448T549 486Q523 495 496 498T442 501Q391 501 344 495T248 483H247ZM295 154Q277 154 257 150T220 145Q215 145
211 145Q207 145 203 147L200 151Q203 199 215 253T251 356Q254 364 268 368T303 375Q332 382 364 384T426 387Q474 387 511 379T563 351L564 347Q552 311 524 282T458 228T378 186T297 154H295Z" />
<glyph unicode="q" glyph-name="q" horiz-adv-x="627" d="M518 435Q500 438 479 447T434 465T384 482T330 490Q298 490 266 483T202 457Q178 443 154 420T109 365T72 294T45 210Q44 205 44 200T43 188Q43 176 44 165T45 143Q45 98 60 69T108 19Q145 -3 202 -3Q232
-3 265 2T331 16T396 39T455 70Q456 68 456 64Q456 58 453 47T445 17T437 -27T432 -89Q428 -101 428 -114Q428 -134 440 -145T474 -156Q499 -156 524 -140Q549 -125 558 -112T568 -87Q568 -87 563 -69Q563 -56 566 -25T576 50T593 147T616 259Q624 294 630 318T642
366T658 414T680 475L681 477L684 480V485Q684 496 677 503T660 516T638 525T617 529H608Q591 529 581 525T563 511T550 488T537 454L518 435ZM477 252Q474 241 464 230T436 195Q414 175 395 160T355 135T311 120T257 115Q218 115 182 130Q168 135 163 149T158
182Q158 193 159 204T162 225Q165 244 170 259T184 288T207 316T244 349Q263 365 271 369T293 373H313Q333 373 354 370T398 361Q410 358 414 357T421 355L422 354Q429 351 438 348T458 340T477 329T492 312L477 252Z" />
<glyph unicode="r" glyph-name="r" horiz-adv-x="460" d="M574 479H573Q562 508 545 520T509 533Q492 533 471 526T426 509T380 486T334 461Q287 434 255 420Q255 438 262 455T269 486Q269 496 263 504T240 519Q230 521 221 521T202 522Q142 522 137 466Q134 460
127 432T111 363T91 272T72 173T54 80T42 4Q42 -16 56 -24T89 -32Q116 -32 138 -23T168 17Q175 45 181 73T191 127T200 171T207 199Q207 208 208 219T211 241T216 262T226 278Q233 289 243 298T270 316T309 334T365 357L452 387Q459 391 466 392T483 393H493Q505
393 516 395T538 405T558 430T575 477L574 479Z" />
<glyph unicode="s" glyph-name="s" horiz-adv-x="606" d="M377 303Q358 302 341 301T306 298Q287 296 270 294T235 292Q211 292 202 297T177 320Q179 343 198 361T245 391T304 409T360 416Q382 416 403 410T444 395T484 375T524 355Q569 367 587 383T606 416Q606
437 583 459T526 498T454 526T385 537Q363 537 339 532T283 519Q236 507 194 485T119 435T68 372T49 303Q49 300 49 297T50 290Q50 239 83 213T174 187Q225 187 283 195T398 204Q409 204 419 204T441 201Q455 199 471 192T488 173Q488 166 481 159Q472 139 456
126T419 105T374 93T324 89Q284 89 245 100Q233 103 223 108T204 120L201 122H200Q187 141 164 141Q150 141 135 134T108 116T87 90T79 61Q79 44 93 30Q143 12 195 -7T302 -26Q325 -26 347 -24T398 -15H408Q451 -15 487 4T549 53T589 119T604 190Q604 214 597 235T575
272T535 297T478 307Q474 307 470 307T462 306L377 303Z" />
<glyph unicode="t" glyph-name="t" horiz-adv-x="466" d="M560 478Q560 501 548 509T516 517Q496 517 476 512T436 505Q402 499 366 494T298 488Q294 487 288 487Q276 487 274 495T271 520V526Q272 527 272 527Q272 528 272 528H271Q270 528 272 530Q280 552 280
571Q280 584 274 592T252 601Q243 604 232 607T208 611Q191 611 178 601T163 560Q161 552 160 545T158 530Q158 528 158 528T157 525V524Q155 504 146 487T109 470H107Q85 467 67 451T49 408Q49 394 57 375Q57 369 61 365T73 357T87 351T100 347L104 341Q101 330
99 319T95 297L92 288Q82 243 75 202T67 115Q67 77 75 40T106 -28Q114 -36 129 -40T163 -45Q180 -45 209 -35T274 -9T344 29T409 74T456 122T475 167Q475 178 470 191T450 218Q442 225 432 229T410 234Q402 234 393 230T374 220T356 206T344 191Q332 177 316 160T280
128T242 103T205 93Q201 93 193 95Q180 99 176 111T171 139Q171 152 173 165T177 190T182 210T184 222Q188 240 191 255T198 285T203 314T207 347L210 349Q222 354 233 356T259 359T296 364T353 375Q384 376 417 378T470 383H479Q511 383 536 396T567 432L560 478Z"
/>
<glyph unicode="u" glyph-name="u" horiz-adv-x="558" d="M600 443Q607 454 607 471Q607 487 599 500T573 513Q569 513 561 511Q558 511 556 511T550 512Q530 512 511 502T484 462Q474 424 468 402T458 364T450 337T444 311T436 274T424 216Q415 190 407 177T388
158T361 147T319 135Q312 133 293 129T250 121T205 113T169 109Q168 108 166 108Q160 108 160 119Q160 130 163 144T169 165Q179 207 184 227T193 263T203 303T221 375Q223 378 227 391T234 420T241 449T244 465Q244 479 231 487T198 495Q153 495 132 474T101 417Q99
411 95 388T85 330T73 255T60 173T49 93T41 27Q41 24 41 22T40 17Q40 -1 46 -12T60 -26Q70 -26 72 -27T77 -28T84 -28T102 -25T142 -16T214 0Q250 8 276 13T320 22T351 26T371 27Q380 27 386 27T398 26Q398 26 399 17T404 -4T418 -25T444 -35H447Q475 -33 490 -26T505
0Q505 10 499 27Q504 55 508 76T516 117T525 158T537 210Q541 227 546 250T556 296T567 338T578 369L600 443Z" />
<glyph unicode="v" glyph-name="v" horiz-adv-x="526" d="M608 465Q612 472 612 482Q612 499 595 514T555 529Q545 529 540 527Q526 524 518 520T502 506T486 481T464 439T430 375T377 282Q365 267 355 251T334 219T310 188T279 161L271 163Q259 167 251 194T235
262T221 347T205 430T182 493T148 519H147Q132 518 115 516T83 503T62 476T55 445Q55 431 61 411T75 375Q78 363 80 355T85 337T92 314T105 278Q105 278 108 267T116 239T126 203T135 165Q135 163 137 153T142 132T147 112T150 101Q157 79 162 62T174 29T186 -2T202
-36Q215 -46 230 -50T263 -55Q295 -55 315 -40Q325 -33 337 -14T360 27T380 71T394 105Q406 124 411 134T420 153T432 174T454 210Q493 267 518 303T560 367T587 416T607 465H608Z" />
<glyph unicode="w" glyph-name="w" horiz-adv-x="737" d="M106 38Q106 3 119 -8T153 -19Q185 -19 218 2Q266 87 303 164T375 307L384 304Q389 290 392 279T397 260Q400 251 401 245T405 232T409 218T415 199Q421 176 426 152T437 105T447 65T457 37Q459 14 466
-4T501 -22Q507 -22 523 -21T552 -15Q573 10 597 47T645 128T694 218T742 309T786 393T826 462L820 503Q820 517 806 523T772 530Q751 530 738 524T716 508T703 483T691 453Q677 431 663 404T632 345T595 282T550 218Q539 249 534 265T527 291T523 308T517 327Q514
380 511 418T507 464V465Q507 477 502 495Q498 498 488 501T464 506T438 509T417 511Q404 511 396 509T380 501T367 489T351 471Q348 465 343 456T327 430T301 383T261 308Q247 283 236 264T216 245Q210 245 206 259T201 308Q198 314 196 331T193 370T190 416T186
461T182 496T175 511Q170 511 160 513T138 516Q134 516 130 516Q126 516 122 514Q94 514 76 494T57 445Q57 438 58 434L106 38Z" />
<glyph unicode="x" glyph-name="x" horiz-adv-x="590" d="M605 522Q594 522 583 515T558 495T529 469T494 442Q459 415 443 401T414 377T387 356T342 323Q316 351 295 383T254 451Q251 456 246 464T234 480T221 495T211 506Q207 508 198 511T178 515Q169 515 160
512T144 500T131 476T125 436Q134 410 145 390T169 348T200 300T237 237Q218 220 208 210T187 190T165 171T128 143Q126 141 118 134T100 119T82 104T73 97Q58 86 46 76T28 48Q26 42 26 37Q26 27 32 17T47 0T69 -13T94 -18Q103 -18 120 -9T155 14T190 40T214 60Q232
77 263 104T334 154Q369 129 389 104T431 49Q432 47 439 38T455 17T475 -2T495 -11H514Q523 -11 532 -10T549 -3T562 11T567 35Q567 38 567 41Q567 45 566 49Q551 84 536 105T499 142Q467 183 453 205T439 242V244Q455 258 467 268T490 288T514 307T542 327L566
344Q582 354 599 368Q611 377 620 384T639 399T659 419T683 447Q683 462 676 476T658 500T633 516T605 522Z" />
<glyph unicode="y" glyph-name="y" horiz-adv-x="536" d="M618 480Q618 494 607 505T580 523Q569 528 557 531T534 535Q511 535 496 515T469 471Q464 453 452 427T421 371T375 307T315 243L308 244Q257 301 225 365T176 483Q169 498 158 504T134 510Q128 510 121
509T104 505Q82 498 66 481T49 447Q49 441 52 435L53 434Q68 401 85 373T118 320T147 275T169 240Q179 228 190 212T211 181T226 154T232 138V137L231 135Q219 111 194 92T138 50T72 0T8 -68Q2 -80 2 -95Q2 -118 14 -137T43 -157Q72 -157 96 -145T146 -109Q181
-78 214 -49T283 17T362 105T458 230Q491 275 516 312T565 387Q571 395 576 403T588 421L618 480Z" />
<glyph unicode="z" glyph-name="z" horiz-adv-x="564" d="M597 517Q585 517 562 516T515 512T467 508T431 504Q388 497 356 495T293 490Q285 484 264 483T216 480T164 478T122 473Q91 463 82 449T72 420Q72 408 75 398T78 382Q78 363 91 354T122 345Q127 345 131
345T140 347Q154 349 168 351T199 358Q231 365 265 371T327 378Q340 378 347 379T358 380Q363 380 365 377T372 362Q354 345 342 335T318 313T290 288T248 250T181 188T81 93Q60 73 47 59T28 33T19 14T16 -1Q16 -7 17 -12T18 -24Q18 -40 35 -46T68 -52Q155 -44
221 -41T334 -37T409 -35T449 -31Q457 -33 464 -33Q471 -33 478 -33Q520 -33 540 -14T560 28Q560 43 550 60Q547 74 540 82T522 95T497 102T468 105H463Q461 105 460 105T456 106Q438 106 415 102T366 92Q339 87 311 82T259 76Q253 76 248 76T239 75Q232 75 228
78T219 91Q228 103 238 114T262 139T298 171T350 217Q376 241 396 259T435 292T477 325T530 365Q572 396 596 420T621 460Q621 464 618 469L597 517Z" />
<glyph unicode="{" glyph-name="braceleft" horiz-adv-x="462" d="M402 -54V-47Q402 -28 391 -12T359 4Q352 4 347 2T335 -3Q312 -15 297 -15Q285 -15 279 -7T273 15Q273 17 273 19T274 23Q276 36 277 49T281 79Q285 105 289 138T297 215Q298 223 298 230Q298
238 298 246Q298 276 291 301T262 352Q283 370 296 393T318 444T331 507T340 583Q342 602 345 623T355 662T372 691T400 703H420Q429 703 437 704T451 711T461 726T467 753V762Q467 793 454 801T419 810Q375 810 341 791T282 740T243 668T224 585L222 556Q219 524
216 500T205 460T180 435T136 426Q119 426 105 420T82 403T67 379T62 353Q62 332 75 316T116 299Q156 299 169 288T183 249Q183 241 183 234T181 217Q178 185 174 155T165 97V98Q161 77 159 58T155 25Q154 17 154 9T153 -8Q153 -66 176 -96T256 -127Q286 -127 328
-116Q326 -117 330 -116T338 -113L337 -114Q346 -112 357 -109T377 -99T393 -82T402 -54Z" />
<glyph unicode="|" glyph-name="bar" horiz-adv-x="191" d="M152 -62L153 -47Q154 -42 154 -36T155 -21L212 634Q212 640 213 648T214 666Q216 679 217 693T218 722Q218 749 210 768T179 788Q177 788 175 788T170 787Q149 781 138 774T121 753T113 720T108 671V672Q107
667 107 661Q107 655 106 648L44 -61V-59Q42 -66 42 -71Q42 -76 42 -80Q42 -98 48 -109T63 -128T82 -137T101 -140Q117 -140 130 -120T151 -61L152 -62Z" />
<glyph unicode="}" glyph-name="braceright" horiz-adv-x="462" d="M376 400L377 399Q372 400 368 402T360 410T354 426T352 456Q352 499 358 549T376 653L375 652Q378 662 379 671T380 689Q380 714 373 737T351 778T314 806T260 817Q232 817 213 816T171 808H172Q149
803 138 786T127 748Q127 728 139 712T180 696Q179 696 182 696T189 697T199 698T207 699L235 702Q240 702 250 700H249Q257 698 259 694T262 684Q262 682 262 678Q262 675 261 672Q249 613 242 556T235 450Q235 375 267 340Q231 313 215 271T195 175L187 79Q186
69 185 57T179 35T166 16T145 7Q107 2 87 -17T63 -61V-69Q63 -102 81 -114T120 -126Q154 -126 186 -109T243 -63T284 3T303 78L311 173Q312 185 315 203T328 238T352 267T394 280Q429 280 447 300T465 343Q465 362 452 377T410 393L388 395Q385 396 383 397T376
400Z" />
<glyph unicode="~" glyph-name="asciitilde" horiz-adv-x="436" d="M430 593V596Q430 610 414 622T378 634Q363 634 350 627T329 605Q326 593 325 591Q323 582 320 572T307 561Q299 561 293 568T278 584Q267 599 251 613T202 627Q182 627 157 619T109 596T70 563T53
527V523Q53 506 68 494T107 481Q123 481 135 490T158 511Q166 519 174 526T189 533Q195 533 205 518Q218 504 237 490T294 475Q324 475 348 480T389 499T416 535T430 593Z" />
<glyph unicode="&#xa0;" glyph-name="space" horiz-adv-x="349" />
<glyph unicode="&#xa1;" glyph-name="onesuperior" horiz-adv-x="222" d="M224 576L222 575Q229 589 237 608T246 639V644Q246 651 240 657Q229 673 216 675T179 678Q178 678 163 678T129 675T90 668T63 654Q57 648 55 641T53 628Q53 621 55 615Q62 600 78 598T105
595L18 351Q16 351 15 351T12 350Q5 349 0 348T-15 345L-14 346Q-34 342 -41 330T-48 306Q-48 277 -12 268Q-8 264 4 264Q17 264 35 265T71 269T105 274T130 277Q135 279 136 279T144 280Q162 288 167 296T173 313V320Q168 334 157 340T135 350L217 564Q218 570
224 576Z" />
<glyph unicode="&#xa2;" glyph-name="cent" horiz-adv-x="349" d="M255 571Q256 573 257 575T263 582Q267 589 272 598T282 617T290 636T294 654Q294 656 294 659T293 663Q285 683 271 689T240 696Q216 696 200 686T177 658Q171 647 168 640T161 625T154 604T143
569Q95 551 63 518T12 448T-16 374T-24 311V301Q-20 262 -5 235T53 194Q51 189 50 185T48 174Q31 123 31 102V95Q36 80 46 70T76 55H86Q109 55 122 64T143 88Q146 94 148 100T152 117T155 141T159 177V176Q159 179 160 182T161 187Q198 197 224 211T265 232Q267
235 271 237T275 240L274 239Q319 273 319 299V304Q312 318 304 325T287 337Q279 339 277 339H271Q260 339 249 335T221 319Q209 311 198 306T166 294Q149 286 138 283T119 279H118Q111 281 110 284T107 297V301Q107 316 113 339T129 387T154 431T183 460H186Q188
460 208 454Q208 454 213 452T221 448V449Q233 442 241 439T264 435Q275 435 290 440Q306 448 312 455T319 475Q319 488 308 507Q289 533 250 555Q251 558 252 562T255 571Z" />
<glyph unicode="&#xa3;" glyph-name="sterling" horiz-adv-x="510" d="M63 261Q66 254 68 243T70 228Q76 210 92 204T132 198H148Q142 185 129 173T99 150T68 131T42 119Q37 116 30 112T23 107Q3 87 3 70Q3 62 5 57T16 43Q39 19 63 11T128 2H147Q155 2 163 2T179
3Q220 6 243 7T283 10T312 11T348 13Q367 14 390 17T435 27T474 43T499 66Q501 68 502 68Q503 68 503 67H504Q506 67 506 70T507 87Q507 88 507 88T506 90Q506 106 497 117Q478 130 462 130Q459 130 454 130T444 129Q441 128 430 128Q419 128 415 128T398 126Q383
124 363 122T322 119T278 116T238 113H233Q242 121 247 127T257 141T266 158T275 181Q277 187 277 193T279 206Q293 206 306 206T329 208Q334 208 338 208T346 209Q363 209 372 209T388 211T398 216T410 223Q418 230 419 234T421 244Q421 249 419 257T408 276Q402
284 402 284H413Q420 284 424 285H421Q439 289 449 292T465 302T475 322T486 361L484 360L508 437Q509 440 509 444Q509 448 510 451Q514 461 516 468T518 490Q518 507 510 524T483 558Q475 564 453 575T405 599T352 620T308 629H300Q261 623 226 601T162 550T113
491T84 440V439Q81 429 79 420T77 403V396Q77 392 78 389Q80 363 89 341T109 298H105Q63 298 63 261ZM308 306Q300 306 293 306T277 305H250Q247 307 245 308T241 312Q230 326 222 340T213 370V375Q213 378 215 384V383Q221 408 237 431T275 472T318 503T359 522Q362
522 364 522T372 523Q375 523 383 520V515Q383 507 381 499T376 482Q372 470 372 459L356 417Q355 415 355 412T354 404Q351 393 348 381T344 353Q344 322 365 301Q353 304 339 305T308 306Z" />
<glyph unicode="&#xa4;" glyph-name="twosuperior" horiz-adv-x="355" d="M279 693Q260 701 242 701Q220 701 192 689T129 648Q114 637 92 615T49 568T13 521T-2 486V481Q3 465 11 456T36 442L35 443Q40 442 45 442T55 441Q67 441 79 446T97 463L96 460Q127 502
144 521T168 546Q175 550 175 554Q192 571 214 586T256 602H263Q265 600 265 597V588Q261 573 258 563T249 544T235 523T212 493Q183 456 154 427T82 369H83Q72 363 64 359T41 351H42Q39 350 37 350T32 348H33Q21 345 10 342T-10 328Q-13 323 -16 317T-19 305V300Q-19
290 -14 284Q-1 254 34 254Q36 254 40 254T50 257H46Q70 262 84 265T112 269T141 272T185 275Q203 278 218 279T249 280H289Q325 289 328 313Q329 316 329 323Q329 335 322 343T306 355Q293 361 271 363T227 366H224Q239 380 258 399T300 442Q315 459 329 481T354
525T371 568T378 604V612Q375 652 334 658Q330 658 324 660Q313 660 306 665Q303 668 303 669T301 672Q296 677 293 682T280 691L279 693Z" />
<glyph unicode="&#xa5;" glyph-name="yen" horiz-adv-x="576" d="M378 149Q378 171 369 183T340 205Q325 210 306 212T263 215Q265 220 266 225T269 237L279 238Q281 239 285 239Q289 239 294 240Q298 241 301 241T310 242Q321 244 328 244Q335 244 339 244Q370
244 380 252T391 284V294Q390 295 390 300Q390 329 343 344Q338 346 333 347T323 349Q359 400 414 460T552 599Q556 602 563 607T576 619T588 632T593 647V651Q593 652 593 652T592 654L585 667Q579 678 563 684T528 691Q500 691 479 669Q412 597 350 527T232 384H231Q223
398 213 422T190 478Q180 503 169 528T147 576T122 617T95 646Q88 648 79 649T61 650Q46 650 31 648T8 639Q-1 633 -4 624T-7 601V596Q-7 580 0 563T15 530Q25 515 35 494T55 447T74 395T91 343Q85 342 80 342T68 340Q63 339 59 339T51 338Q43 337 39 337T30 334Q22
332 15 329T2 324H3Q-21 313 -21 296Q-18 276 -4 259T25 235Q36 230 73 230H105L101 205Q91 204 83 204T70 203Q56 202 47 201T32 199H34Q17 196 5 184T-7 157Q-7 125 29 106Q52 92 81 89L70 24Q71 2 99 -15L108 -24Q152 -40 175 -40Q190 -40 199 -33T214 -9T225
32T237 93Q256 95 273 95T306 98Q317 99 322 99Q328 99 331 99H337Q358 103 370 123V122Q378 136 378 149Z" />
<glyph unicode="&#xa6;" glyph-name="brokenbar" horiz-adv-x="190" d="M154 -80V-66Q155 -60 155 -54T157 -40L171 124Q171 130 171 138T173 156Q175 169 176 183T177 211Q177 238 169 257T137 277Q136 277 134 277T129 276Q108 271 97 263T79 242T71 210T67
162Q66 157 66 150Q66 144 65 138L46 -79L47 -77Q43 -89 43 -99Q43 -117 49 -128T64 -146T83 -156T102 -159Q119 -159 132 -139T153 -79L154 -80ZM194 430L195 444Q196 451 196 457T198 471L212 635Q212 641 212 649T214 667Q217 691 217 722Q217 749 210 768T178
788Q177 788 175 788T170 787Q149 782 138 774T120 753T112 721T107 672Q107 667 107 660Q107 654 106 648L87 431Q85 425 85 421T84 412Q84 394 90 383T105 364T124 355T143 352Q160 352 173 371T194 430Z" />
<glyph unicode="&#xa7;" glyph-name="section" horiz-adv-x="423" d="M401 485Q401 507 393 514T369 521Q363 521 358 521T347 519Q336 515 329 519Q330 524 330 528T332 536Q338 564 343 581T353 609T360 627T363 645Q358 662 347 670T321 678Q303 676 290 663T268
632T253 592T244 551T239 519T236 505Q212 500 176 497T111 493Q120 508 135 532T166 579T191 621T200 644Q202 649 203 652T204 660Q204 691 175 702Q173 703 170 703T161 704Q126 704 108 654Q95 629 87 614T73 589T64 574T58 565Q41 540 30 517T10 458Q12 441
22 419T41 386Q49 380 62 380T87 384T108 390T117 392Q137 394 163 395T209 396H218Q216 389 214 383T210 368Q204 347 201 334T195 312T193 300T192 291Q192 278 197 271T219 264Q235 264 245 264T262 268T273 278T283 296Q286 300 289 311T295 336T300 363T303
383T305 395T308 406Q331 407 340 408T361 417Q380 428 390 439T401 482V485Z" />
<glyph unicode="&#xa8;" glyph-name="dieresis" horiz-adv-x="410" d="M196 631Q193 654 171 670T108 686H106Q68 686 45 672T21 635Q26 612 48 597T106 580Q146 580 171 593T196 630V631ZM392 631Q390 654 367 670T306 686H301Q264 686 242 673T219 636Q220 613
242 597T302 580Q340 580 366 593T392 630V631Z" />
<glyph unicode="&#xa9;" glyph-name="copyright" horiz-adv-x="809" d="M812 361Q830 416 830 464Q830 530 802 585T728 693Q709 715 681 731T621 758T554 774T490 780Q466 780 442 773T395 755T350 729T308 701Q253 663 210 613T136 506T86 386T59 261Q58 250
58 240T57 219Q57 167 71 123T114 48T186 -1T288 -19Q311 -19 334 -16T381 -6Q462 16 529 44T649 115T743 216T812 361ZM722 438Q714 369 688 316T617 217Q588 188 552 165T477 125T399 100T323 91Q238 91 192 131T145 261Q145 271 145 281Q145 291 147 302Q152
352 175 406T233 508T310 593T394 646Q404 639 417 639Q429 639 443 645T473 658T507 672T547 679Q586 679 618 663T674 617T710 550T723 467Q723 460 723 453Q723 446 722 438ZM593 297V301Q593 316 582 333T558 350Q547 350 535 340T513 323Q499 314 483 305T450
288T416 275T382 270Q351 270 327 275T302 303V306Q304 324 311 338T329 364T353 389T379 415Q387 424 403 438T437 464T473 486T502 495Q513 495 514 485Q516 463 529 455T557 446Q571 446 581 455T597 478T607 507T612 533Q613 538 613 548Q613 583 592 601T532
620Q495 620 452 596T369 537T298 463T255 392Q244 368 236 343T227 293V284Q228 261 234 238T255 196T290 165T344 153Q350 153 356 153T370 155Q424 164 467 180T555 228Q561 232 567 241T579 260T589 281T593 297Z" />
<glyph unicode="&#xaa;" glyph-name="ordfeminine" horiz-adv-x="342" d="M197 574Q214 580 230 584T264 589Q266 589 269 589Q273 589 274 587L272 564Q173 557 108 525T32 425Q32 423 32 420T31 414Q31 399 37 382T55 351T82 327T114 317Q155 317 193 331T257
356H258Q258 342 266 334T300 325Q327 325 338 339T349 383L363 580V587Q363 612 356 628T337 653T311 665T282 669Q241 669 196 660T112 624H113L107 621Q98 616 89 610T77 582V577Q77 559 85 553T108 546Q122 546 138 552T161 562Q171 565 179 568T197 574ZM310
210Q338 210 352 221T367 249Q367 265 350 278T294 291Q291 291 288 291T280 292Q275 292 271 292T262 293Q250 293 241 290H117Q114 291 104 291Q99 291 92 291T78 289Q74 288 71 288Q69 288 67 288Q38 288 24 276T9 250Q9 234 25 221T73 207Q73 207 83 205Q88
204 93 204T105 203Q117 203 126 208L246 209L310 210ZM140 397H132Q118 400 116 403T114 420V422Q115 434 129 444T166 462T215 477T269 489L271 451Q270 449 256 441T223 422T181 405T140 397ZM162 563L161 562Q161 562 161 562Q161 563 162 563Z" />
<glyph unicode="&#xab;" glyph-name="guillemotleft" horiz-adv-x="427" d="M420 430H417Q400 430 384 419L265 341Q249 334 236 321T220 291Q218 271 223 263T237 250L333 135L336 132V133Q343 122 349 116T369 107H378Q389 107 398 115T417 147V146Q419 150
419 152T421 158Q423 169 418 180T397 206L334 282L411 332Q434 343 443 359T454 384Q455 386 455 390Q455 394 452 397Q447 416 441 422T420 430ZM220 448H217Q200 448 184 437L65 359Q49 352 36 339T20 309Q18 289 23 281T37 268L133 153L136 150V151Q143 140
149 134T169 125H178Q189 125 198 133T217 165V164Q219 168 219 170T221 176Q223 187 218 198T197 224L134 300L211 350Q234 361 243 377T254 402Q255 404 255 408Q255 412 252 415Q247 434 241 440T220 448Z" />
<glyph unicode="&#xac;" glyph-name="logicalnot" horiz-adv-x="949" d="M860 173Q888 190 906 205Q926 222 938 242T943 287Q938 309 927 324T899 354Q882 369 851 373T785 374T714 362T652 340Q650 309 645 273T635 200T624 128T615 64Q611 46 615 39T631 19Q644
8 654 1T681 -13Q695 -22 706 -22T737 -18Q753 -14 772 -7T811 8T847 27T877 49Q894 63 902 78T905 115Q903 132 890 148T860 173ZM503 78Q505 58 507 42T511 10Q514 -4 519 -9T535 -18Q547 -23 558 -23T582 -24Q594 -24 597 -21T601 -8Q598 34 596 80T591 171T589
254T590 323Q590 335 586 341T567 353Q549 358 528 362T472 369Q452 371 442 365T424 347Q405 317 383 277T340 193T299 109T267 34Q260 13 265 7T281 -7Q289 -11 296 -14T310 -20Q322 -24 326 -23T336 -12Q344 4 351 20T370 56Q397 64 432 68T503 78ZM660 718Q662
728 660 733T646 746Q621 762 594 768Q580 771 574 770T564 755Q554 722 545 679T525 591Q508 589 490 588T451 585Q462 623 469 655T485 710Q487 721 485 726T470 739Q457 747 443 752T415 762Q401 766 394 764T385 749Q378 716 371 674T356 588T340 503T322 428Q319
414 323 407T338 395Q348 389 361 386T385 379Q398 376 402 378T408 389Q414 413 419 442T433 505Q452 508 471 510T510 516Q505 489 502 467T497 426Q492 408 503 400T535 385Q555 380 568 378T582 389Q589 429 599 474T620 563T641 647T660 718ZM697 738L643
449Q641 436 644 427T656 410Q665 401 673 396T689 384Q696 379 706 377T737 379Q766 384 798 390T861 403Q874 406 877 409T875 423Q872 432 869 440T860 459Q855 467 847 470T825 472Q802 470 782 469T739 462Q744 476 746 489T754 517Q781 523 810 527T867 537Q880
540 883 543T882 557Q879 566 876 574T867 592Q862 600 855 603T834 605Q802 605 779 601Q786 624 791 644T804 683Q835 688 863 690T917 696Q929 698 932 701T933 715Q931 724 928 731T920 749Q911 766 888 766Q837 764 786 756T697 738ZM343 703Q356 705 358
708T358 720Q348 743 334 760Q329 765 323 767T303 770Q278 769 247 767T182 761T116 754T58 746Q50 744 48 741T49 729Q54 721 60 708T77 686Q85 678 92 676T111 677Q119 679 130 680T155 684Q148 655 140 621T126 551T114 484T106 428Q101 408 113 400T145 385Q166
379 179 377T194 388Q201 424 209 463T227 542T247 621T266 696Q286 698 306 699T343 703ZM235 6Q250 9 251 12T250 26Q246 35 243 44T234 61Q226 70 220 73T200 75Q177 73 158 71T115 66Q123 97 132 131T150 198T168 261T186 317Q189 327 186 332T172 345Q146
359 115 366Q102 370 96 368T85 354Q75 324 64 283T44 199T27 117T15 49Q13 37 17 29T29 12Q40 3 47 -2T62 -14Q69 -19 78 -22T109 -19Q138 -13 170 -7T235 6ZM291 226Q297 232 304 242T318 263T331 287T341 309Q342 315 342 319T343 325Q343 333 336 341Q330 346
323 351T307 362Q296 369 290 368T278 357Q272 344 264 327T246 293T229 260T214 233Q207 217 227 213Q235 212 244 211T260 212Q269 212 276 215T291 226ZM739 205Q744 228 749 247T761 285Q799 301 824 302T855 292Q857 285 850 274T828 251T791 226T739 205ZM413
143Q436 185 456 223T494 291Q494 258 495 223T499 152Q476 150 455 148T413 143ZM719 130Q757 143 780 140T808 126Q812 110 783 90T701 56Q706 75 710 93T719 130Z" />
<glyph unicode="&#xae;" glyph-name="registered" horiz-adv-x="888" d="M872 361Q880 393 886 419T894 466Q895 474 895 481T896 497Q896 566 862 623Q825 687 742 732Q623 795 522 795Q420 795 320 737Q112 616 95 378Q94 366 94 355T93 332Q93 255 114 201Q144
124 219 69Q305 7 406 7Q509 7 637 75Q736 130 789 193Q817 226 837 267T872 361ZM785 414Q779 360 742 299Q707 239 662 203Q567 127 449 127Q443 127 436 127Q430 127 423 128Q319 136 256 194Q192 255 192 352Q192 360 192 368T194 385Q200 432 216 474Q248
565 331 620Q415 677 510 677Q619 677 704 601Q786 529 786 436Q786 431 786 425Q786 420 785 414ZM681 533Q646 604 517 604Q445 604 367 583Q330 573 325 530V523Q325 506 338 494Q338 472 333 424T316 298Q315 292 313 284T307 267T302 250T299 236V230Q299
214 306 203Q332 183 351 183Q365 183 385 192Q406 201 411 245Q411 250 411 257T413 272V295Q418 296 422 296Q426 296 430 296Q450 296 466 288Q487 277 517 241Q551 205 572 193Q575 192 587 192Q617 192 644 223Q653 233 653 242V243Q653 252 635 278Q598 317
580 329Q634 351 658 381Q691 420 695 462V473Q695 503 681 533ZM515 509Q530 509 545 507T576 501Q603 493 603 474V470Q601 448 564 429Q533 415 510 409Q490 404 473 402T440 399Q436 399 433 399T426 400Q426 420 428 444T436 499Q480 509 515 509Z" />
<glyph unicode="&#xaf;" glyph-name="overscore" horiz-adv-x="244" d="M200 628Q201 631 202 636T206 648Q211 663 217 679T224 707Q224 712 222 717T217 726Q203 742 190 745T151 749Q149 749 132 749T94 746T52 737T25 721V723Q15 710 15 698Q15 685 25 678Q33
663 45 661T69 658H77L1 384H-1Q-9 383 -14 383T-24 382Q-28 382 -32 382T-41 380H-40Q-69 369 -69 344V333Q-66 308 -34 297Q-27 295 -23 295T-12 294Q-2 294 13 295T45 299T78 303T108 307Q113 308 117 308T124 309Q128 309 136 311Q156 318 162 326T169 345Q169
347 169 349T168 352Q160 369 149 376T122 385L200 628Z" />
<glyph unicode="0;" glyph-name="degree" horiz-adv-x="215" d="M239 604Q239 607 239 610T240 616Q240 647 222 670T167 694Q136 694 112 681T70 649T43 605T32 560V555Q32 525 49 502T108 479Q132 479 155 489T196 516T225 555T239 603V604ZM126 559Q122
559 122 569Q123 583 132 596T161 610Q165 610 165 603V599Q164 583 153 571T126 559Z" />
<glyph unicode="1;" glyph-name="plusminus" horiz-adv-x="461" d="M474 465Q474 503 437 512Q412 515 394 516T361 519Q326 522 321 525Q308 535 308 559Q308 565 309 574T311 594T314 614T315 630Q315 691 264 691Q230 691 218 651Q216 642 215 625T212
584Q210 564 209 552T205 529Q202 506 143 506Q118 506 102 505T76 502Q39 492 39 458Q39 448 41 439T48 421Q62 395 110 395Q115 395 126 396T144 397Q175 397 175 374Q175 366 175 357T173 334Q170 310 170 295Q170 221 220 221Q241 221 250 232Q257 239 269
278Q273 294 276 306T281 328Q287 358 301 377Q321 403 346 403H421Q445 403 461 422Q474 438 474 465ZM450 113Q450 151 413 160Q388 163 370 165T337 167Q298 165 268 163T213 159T166 156T119 154Q94 154 78 153T52 150Q15 140 15 106Q15 96 17 87T24 69Q38
43 86 43Q91 43 102 44T120 45L397 51Q421 51 437 70Q450 86 450 113Z" />
<glyph unicode="3;" glyph-name="threesuperior" horiz-adv-x="419" d="M366 376Q386 416 386 459Q386 502 357 537Q371 551 384 572T398 622Q399 647 390 665T364 694T325 709T281 710Q258 710 233 706T184 691T139 665T99 624Q104 604 114 588T145 571Q150
572 159 576T177 585Q197 599 221 611T268 624Q276 624 284 622T301 615Q300 609 293 601T280 587H282Q267 579 251 575T216 567Q214 567 214 567T212 566Q194 561 177 555T142 535Q140 528 140 522T139 509Q139 486 150 473T181 460Q187 460 190 460T199 463Q227
473 251 473Q271 476 282 465T294 436Q289 415 274 399T239 374T196 363T155 372Q144 375 134 385T116 404Q106 417 97 425T75 434Q65 433 63 433T59 431H60Q53 426 45 420T30 405T18 386T13 362Q13 357 14 356Q30 320 52 306T108 280Q125 275 142 273T176 270Q206
270 236 277T292 299T337 332T366 376Z" />
<glyph unicode="4;" glyph-name="acute" horiz-adv-x="248" d="M91 593H94Q101 593 109 597T134 621Q139 628 150 637T179 658Q195 670 206 679T225 697T240 718T251 746Q252 751 253 755T254 768Q254 788 245 796T220 805Q209 805 195 800T164 784Q151 775
137 761T110 729T85 693T65 659Q54 635 54 626Q54 612 62 607T87 594L91 593Z" />
<glyph unicode="5;" glyph-name="mu" horiz-adv-x="476" d="M332 17Q336 -3 350 -9T383 -15Q411 -15 432 -3T453 39Q453 51 449 63L472 383V380Q474 392 475 402T477 422Q477 449 465 459T433 470H426Q395 467 379 449T354 388L337 143Q326 135 311 127T280
111T247 98T215 92H212Q199 92 191 102T183 135V140L204 375V372Q205 377 205 384Q205 391 205 398Q205 423 194 439T156 457H151Q117 457 101 435T84 388Q84 380 85 377Q79 287 75 231T69 142T66 95T65 76V72L56 -86Q56 -88 56 -91T55 -96Q54 -102 54 -108Q54
-115 54 -120Q54 -143 63 -157T103 -176H112Q131 -176 142 -169T159 -150T168 -123T173 -91V-90L177 -21Q200 -21 215 -20T245 -15T280 -4T332 17Z" />
<glyph unicode="6;" glyph-name="paragraph" horiz-adv-x="468" d="M378 611Q325 611 269 591T164 533T84 440T47 313V314Q46 308 46 301Q46 295 46 290Q46 218 80 177T178 136Q186 136 194 136Q203 136 211 137L197 -89V-96Q197 -127 210 -142T242 -157Q250
-157 255 -155L254 -156Q271 -152 282 -144T301 -120T312 -83T320 -28L362 500H368Q369 500 370 500T374 501Q377 501 380 500T388 491L340 -80V-89Q340 -119 353 -134T386 -149Q388 -149 391 -149Q394 -149 399 -147L398 -148Q415 -144 426 -136T445 -113T456
-76T463 -20L499 546V549Q499 569 486 581T453 600T413 609T378 611Z" />
<glyph unicode="7;" glyph-name="cedilla" horiz-adv-x="362" d="M149 38L50 -36Q39 -43 35 -46T31 -60Q31 -61 56 -61H115Q126 -61 134 -61Q142 -61 143 -62Q110 -71 88 -83T51 -107T30 -130T24 -147Q24 -164 49 -172T111 -180Q143 -180 179 -175T246 -159T297
-135T317 -104V-93Q317 -73 304 -58T273 -31Q256 -23 240 -17T204 -9L262 38H149Z" />
<glyph unicode="a;" glyph-name="ordmasculine" horiz-adv-x="449" d="M469 549Q463 576 447 594T410 624T366 644T320 659Q302 664 287 665T258 667Q215 667 180 652T117 612T68 558T30 497Q16 466 16 441Q16 409 30 380T68 332Q92 312 124 303T191 294Q217
294 243 297Q288 306 320 320T381 348Q387 351 392 353T403 358H402Q444 377 460 414T476 493Q476 522 470 548L469 549ZM41 159Q49 147 69 143T118 139Q130 139 143 139T171 140H174Q189 140 214 140T264 142T311 144T339 148H359Q385 148 397 149T419 158Q428
162 430 166T433 179Q428 190 423 200T413 214Q387 238 347 244T261 251H218Q208 251 198 250T177 249Q127 249 102 249T65 246H66Q46 242 35 238T24 218V214Q24 210 25 208V201Q27 193 30 180T41 159ZM325 479Q318 465 303 456T270 440T234 432T202 429Q191 429
184 432T174 444Q174 446 174 448T173 454Q173 473 180 486T198 509T221 526T244 539Q247 541 256 541Q266 541 278 537T302 526T321 510T329 490Q329 484 326 480L325 479Z" />
<glyph unicode="b;" glyph-name="guillemotright" horiz-adv-x="427" d="M54 126H57Q73 126 90 137L209 215Q225 222 238 235T254 265Q256 285 251 293T237 306L141 421L138 424V423Q131 434 125 440T105 449H96Q85 449 76 441T57 409V410Q55 406 55 404T53
398Q51 387 56 376T77 350L140 274L63 224Q40 213 31 197T20 172Q19 170 19 166Q19 162 22 159Q27 140 33 134T54 126ZM254 108H257Q273 108 290 119L409 197Q425 204 438 217T454 247Q456 267 451 275T437 288L341 403L338 406V405Q331 416 325 422T305 431H296Q285
431 276 423T257 391V392Q255 388 255 386T253 380Q251 369 256 358T277 332L340 256L263 206Q240 195 231 179T220 154Q219 152 219 148Q219 144 222 141Q227 122 233 116T254 108Z" />
<glyph unicode="c;" glyph-name="onequarter" horiz-adv-x="709" d="M725 218Q725 240 717 247T693 254Q687 254 682 254T671 252Q660 248 653 252Q654 257 654 261T656 269Q662 297 667 314T677 342T684 360T687 378Q682 395 671 403T645 411Q627 409 614
396T592 365T577 325T568 284T563 252T560 238Q536 233 500 230T435 226Q444 241 459 265T490 312T515 354T524 377Q526 382 527 385T528 393Q528 424 499 435Q497 436 494 436T485 437Q450 437 432 387Q419 362 411 347T397 322T388 307T382 298Q365 273 354 250T334
191Q336 174 346 152T365 119Q373 113 386 113T411 117T432 123T441 125Q461 127 487 128T533 129H542Q540 122 538 116T534 101Q528 80 525 67T519 45T517 33T516 24Q516 11 521 4T543 -3Q559 -3 569 -3T586 1T597 11T607 29Q610 33 613 44T619 69T624 96T627
116T629 128T632 139Q655 140 664 141T685 150Q704 161 714 172T725 215V218ZM505 607Q505 626 495 639T461 652Q426 652 411 638T391 607Q378 586 357 549T310 466T256 369T203 271T158 183T127 118Q107 78 107 50Q107 27 119 17T159 6Q172 6 182 12T199 27T212
46T222 66Q223 69 225 74T230 85T234 96T238 103Q247 125 263 154T298 218T340 290T384 363Q419 423 449 474T494 557V560Q497 571 501 583T505 607ZM261 608L259 607Q266 621 274 640T283 671V676Q283 683 277 689Q266 705 253 707T216 710Q215 710 200 710T166
707T127 700T100 686Q94 680 92 673T90 660Q90 653 92 647Q99 632 115 630T142 627L55 383Q53 383 52 383T49 382Q42 381 37 380T22 377L23 378Q3 374 -4 362T-11 338Q-11 309 25 300Q29 296 41 296Q54 296 72 297T108 301T142 306T167 309Q172 311 173 311T181
312Q199 320 204 328T210 345V352Q205 366 194 372T172 382L254 596Q255 602 261 608Z" />
<glyph unicode="d;" glyph-name="onehalf" horiz-adv-x="709" d="M610 422Q591 430 573 430Q551 430 523 418T460 377Q445 366 423 344T380 297T344 250T329 215V210Q334 194 342 185T367 171L366 172Q371 171 376 171T386 170Q398 170 410 175T428 192L427
189Q458 231 475 250T499 275Q506 279 506 283Q523 300 545 315T587 331H594Q596 329 596 326V317Q592 302 589 292T580 273T566 252T543 222Q514 185 485 156T413 98H414Q403 92 395 88T372 80H373Q370 79 368 79T363 77H364Q352 74 341 71T321 57Q318 52 315
46T312 34V29Q312 25 312 21T317 13Q330 -17 365 -17Q367 -17 371 -17T381 -14H377Q401 -9 415 -6T443 -2T472 1T516 4Q534 7 549 8T580 9H620Q656 18 659 42Q660 45 660 52Q660 64 653 72T637 84Q624 90 602 92T558 95H555Q570 109 589 128T631 171Q646 188 660
210T685 254T702 297T709 333V341Q706 381 665 387Q661 387 655 389Q644 389 637 394Q633 398 632 401Q627 406 624 411T611 420L610 422ZM505 607Q505 626 495 639T461 652Q426 652 411 638T391 607Q378 586 357 549T310 466T256 369T203 271T158 183T127 118Q107
78 107 50Q107 27 119 17T159 6Q172 6 182 12T199 27T212 46T222 66Q223 69 225 74T230 85T234 96T238 103Q247 125 263 154T298 218T340 290T384 363Q419 423 449 474T494 557V560Q497 571 501 583T505 607ZM261 608L259 607Q266 621 274 640T283 671V676Q283
683 277 689Q266 705 253 707T216 710Q215 710 200 710T166 707T127 700T100 686Q94 680 92 673T90 660Q90 653 92 647Q99 632 115 630T142 627L55 383Q53 383 52 383T49 382Q42 381 37 380T22 377L23 378Q3 374 -4 362T-11 338Q-11 309 25 300Q29 296 41 296Q54
296 72 297T108 301T142 306T167 309Q172 311 173 311T181 312Q199 320 204 328T210 345V352Q205 366 194 372T172 382L254 596Q255 602 261 608Z" />
<glyph unicode="e;" glyph-name="threequarters" horiz-adv-x="822" d="M338 380Q358 420 358 463Q358 506 329 541Q343 555 356 576T370 626Q371 651 362 669T336 698T297 713T253 714Q230 714 205 710T156 695T111 669T71 628Q76 608 86 592T117 575Q122
576 131 580T149 589Q169 603 193 615T240 628Q248 628 256 626T273 619Q272 613 265 605T252 591H254Q239 583 223 579T188 571Q186 571 186 571T184 570Q166 565 149 559T114 539Q112 532 112 526T111 513Q111 490 122 477T153 464Q159 464 162 464T171 467Q199
477 223 477Q243 480 254 469T266 440Q261 419 246 403T211 378T168 367T127 376Q116 379 106 389T88 408Q78 421 69 429T47 438Q37 437 35 437T31 435H32Q25 430 17 424T2 409T-10 390T-15 366Q-15 361 -14 360Q2 324 24 310T80 284Q97 279 114 277T148 274Q178
274 208 281T264 303T309 336T338 380ZM838 218Q838 240 830 247T806 254Q800 254 795 254T784 252Q773 248 766 252Q767 257 767 261T769 269Q775 297 780 314T790 342T797 360T800 378Q795 395 784 403T758 411Q740 409 727 396T705 365T690 325T681 284T676
252T673 238Q649 233 613 230T548 226Q557 241 572 265T603 312T628 354T637 377Q639 382 640 385T641 393Q641 424 612 435Q610 436 607 436T598 437Q563 437 545 387Q532 362 524 347T510 322T501 307T495 298Q478 273 467 250T447 191Q449 174 459 152T478 119Q486
113 499 113T524 117T545 123T554 125Q574 127 600 128T646 129H655Q653 122 651 116T647 101Q641 80 638 67T632 45T630 33T629 24Q629 11 634 4T656 -3Q672 -3 682 -3T699 1T710 11T720 29Q723 33 726 44T732 69T737 96T740 116T742 128T745 139Q768 140 777
141T798 150Q817 161 827 172T838 215V218ZM618 607Q618 626 608 639T574 652Q539 652 524 638T504 607Q491 586 470 549T423 466T369 369T316 271T271 183T240 118Q220 78 220 50Q220 27 232 17T272 6Q285 6 295 12T312 27T325 46T335 66Q336 69 338 74T343 85T347
96T351 103Q360 125 376 154T411 218T453 290T497 363Q532 423 562 474T607 557V560Q610 571 614 583T618 607Z" />
<glyph unicode="f;" glyph-name="questiondown" horiz-adv-x="675" d="M20 -20H21Q17 -31 16 -40T15 -57Q15 -98 43 -135Q83 -185 139 -196Q159 -200 186 -202T251 -204Q315 -204 344 -197H343Q442 -184 474 -173Q632 -128 653 -60Q654 -57 654 -55T655 -47Q655
-39 655 -28T652 -6T644 11T630 18Q618 31 602 31Q588 31 570 23T527 0Q505 -14 493 -23T479 -34Q462 -40 451 -45T431 -55T411 -63T385 -68Q351 -73 326 -75T282 -78H280Q150 -78 150 -33Q150 -29 152 -21Q171 37 302 81Q317 86 328 89T350 95Q368 98 391 102T444
113Q450 115 456 116T469 119Q479 121 487 123T504 127Q511 129 515 130T524 132Q547 137 564 157T589 198Q591 203 592 212T595 238Q596 245 596 251T597 263V284Q597 302 599 318T601 348Q601 363 596 371T573 382Q565 383 557 383Q550 383 544 383Q509 383 500
373T490 336Q490 325 489 312T485 283L478 268Q473 264 468 261T454 255Q454 255 445 254T426 250Q391 245 352 233T267 201Q218 181 181 160T118 118Q88 92 61 54Q59 52 59 50T56 46Q44 26 35 10T20 -20ZM475 498L476 499Q474 494 474 490T473 481Q473 459 492
441Q514 422 545 422Q603 422 626 455Q643 472 646 481Q650 496 652 509T655 534Q655 589 597 589Q561 589 524 561Q486 533 475 498Z" />
<glyph unicode="0;" glyph-name="Agrave" horiz-adv-x="628" d="M468 96L478 45Q482 24 488 12T503 -8T524 -18T553 -24Q559 -24 566 -22T585 -15Q602 -8 609 7T617 40Q617 54 612 66L611 68Q528 663 494 676Q486 678 480 679T462 681H459V682Q412 675 384
664T339 638T312 603T289 559Q279 538 267 514T238 466Q213 425 183 376T122 274T65 172T19 81Q12 64 9 50T5 19V6Q5 -5 10 -14T25 -30T44 -40T65 -44Q91 -44 112 -34T147 8Q158 31 165 48T179 79T193 104T210 125L214 126H225Q227 126 228 126T231 127Q255 128
285 130Q327 132 370 134T438 136H449L456 133H457L461 129L463 126L468 96ZM431 233L427 231H270L267 232L261 243V247L390 462L397 465L407 463L412 458L438 244L436 240L429 233H431ZM497 709Q516 716 524 722T533 742Q533 751 522 775Q514 791 503 809T478
844T450 876T422 900Q390 921 367 921Q351 921 342 913T333 884Q333 875 333 871T336 862Q341 846 347 835T361 814T381 795T408 774Q425 762 436 753T453 737Q468 718 479 714T495 709H497Z" />
<glyph unicode="1;" glyph-name="Aacute" horiz-adv-x="628" d="M468 96L478 45Q482 24 488 12T503 -8T524 -18T553 -24Q559 -24 566 -22T585 -15Q602 -8 609 7T617 40Q617 54 612 66L611 68Q528 663 494 676Q486 678 480 679T462 681H459V682Q412 675 384
664T339 638T312 603T289 559Q279 538 267 514T238 466Q213 425 183 376T122 274T65 172T19 81Q12 64 9 50T5 19V6Q5 -5 10 -14T25 -30T44 -40T65 -44Q91 -44 112 -34T147 8Q158 31 165 48T179 79T193 104T210 125L214 126H225Q227 126 228 126T231 127Q255 128
285 130Q327 132 370 134T438 136H449L456 133H457L461 129L463 126L468 96ZM431 233L427 231H270L267 232L261 243V247L390 462L397 465L407 463L412 458L438 244L436 240L429 233H431ZM392 703H395Q402 703 410 707T435 731Q440 738 451 747T480 768Q496 780
507 789T526 807T541 828T552 856Q553 861 554 865T555 878Q555 898 546 906T521 915Q510 915 496 910T465 894Q452 885 438 871T411 839T386 803T366 769Q355 745 355 736Q355 722 363 717T388 704L392 703Z" />
<glyph unicode="2;" glyph-name="Acircumflex" horiz-adv-x="628" d="M468 96L478 45Q482 24 488 12T503 -8T524 -18T553 -24Q559 -24 566 -22T585 -15Q602 -8 609 7T617 40Q617 54 612 66L611 68Q528 663 494 676Q486 678 480 679T462 681H459V682Q412 675
384 664T339 638T312 603T289 559Q279 538 267 514T238 466Q213 425 183 376T122 274T65 172T19 81Q12 64 9 50T5 19V6Q5 -5 10 -14T25 -30T44 -40T65 -44Q91 -44 112 -34T147 8Q158 31 165 48T179 79T193 104T210 125L214 126H225Q227 126 228 126T231 127Q255
128 285 130Q327 132 370 134T438 136H449L456 133H457L461 129L463 126L468 96ZM539 808Q534 818 530 822T521 829Q524 827 516 836T491 858T453 880T404 891H401Q387 891 379 882T365 852Q365 847 358 842T342 832T324 822T311 811Q302 803 295 789T288 756Q288
740 293 730Q306 704 327 704Q340 704 355 716Q366 727 373 734T388 750Q392 754 396 758T406 767Q427 765 441 758T482 730Q488 726 494 723T508 720Q518 720 529 729Q547 742 547 771Q547 782 545 791T539 809V808ZM431 233L427 231H270L267 232L261 243V247L390
462L397 465L407 463L412 458L438 244L436 240L429 233H431Z" />
<glyph unicode="3;" glyph-name="Atilde" horiz-adv-x="628" d="M468 96L478 45Q482 24 488 12T503 -8T524 -18T553 -24Q559 -24 566 -22T585 -15Q602 -8 609 7T617 40Q617 54 612 66L611 68Q528 663 494 676Q486 678 480 679T462 681H459V682Q412 675 384
664T339 638T312 603T289 559Q279 538 267 514T238 466Q213 425 183 376T122 274T65 172T19 81Q12 64 9 50T5 19V6Q5 -5 10 -14T25 -30T44 -40T65 -44Q91 -44 112 -34T147 8Q158 31 165 48T179 79T193 104T210 125L214 126H225Q227 126 228 126T231 127Q255 128
285 130Q327 132 370 134T438 136H449L456 133H457L461 129L463 126L468 96ZM566 789V791Q566 803 553 812T524 821Q512 821 501 816T485 798Q484 796 484 793T482 788Q480 782 478 776T471 769Q466 769 462 774T453 785V784Q444 795 432 806T394 817Q378 817 359
811T323 793T293 769T280 741V739Q280 725 291 715T323 705Q336 705 345 712T363 728Q368 733 374 738T384 743Q384 743 386 740T393 734Q403 723 418 712T462 701Q508 701 534 719T566 789ZM431 233L427 231H270L267 232L261 243V247L390 462L397 465L407 463L412
458L438 244L436 240L429 233H431Z" />
<glyph unicode="4;" glyph-name="Adieresis" horiz-adv-x="628" d="M468 96L478 45Q482 24 488 12T503 -8T524 -18T553 -24Q559 -24 566 -22T585 -15Q602 -8 609 7T617 40Q617 54 612 66L611 68Q528 663 494 676Q486 678 480 679T462 681H459V682Q412 675
384 664T339 638T312 603T289 559Q279 538 267 514T238 466Q213 425 183 376T122 274T65 172T19 81Q12 64 9 50T5 19V6Q5 -5 10 -14T25 -30T44 -40T65 -44Q91 -44 112 -34T147 8Q158 31 165 48T179 79T193 104T210 125L214 126H225Q227 126 228 126T231 127Q255
128 285 130Q327 132 370 134T438 136H449L456 133H457L461 129L463 126L468 96ZM431 233L427 231H270L267 232L261 243V247L390 462L397 465L407 463L412 458L438 244L436 240L429 233H431ZM410 755Q407 778 385 794T322 810H320Q282 810 259 796T235 759Q240
736 262 721T320 704Q360 704 385 717T410 754V755ZM606 755Q604 778 581 794T520 810H515Q478 810 456 797T433 760Q434 737 456 721T516 704Q554 704 580 717T606 754V755Z" />
<glyph unicode="5;" glyph-name="Aring" horiz-adv-x="628" d="M468 96L478 45Q482 24 488 12T503 -8T524 -18T553 -24Q559 -24 566 -22T585 -15Q602 -8 609 7T617 40Q617 54 612 66L611 68Q528 663 494 676Q486 678 480 679T462 681H459V682Q412 675 384
664T339 638T312 603T289 559Q279 538 267 514T238 466Q213 425 183 376T122 274T65 172T19 81Q12 64 9 50T5 19V6Q5 -5 10 -14T25 -30T44 -40T65 -44Q91 -44 112 -34T147 8Q158 31 165 48T179 79T193 104T210 125L214 126H225Q227 126 228 126T231 127Q255 128
285 130Q327 132 370 134T438 136H449L456 133H457L461 129L463 126L468 96ZM534 826Q534 829 534 832T535 838Q535 869 517 892T462 916Q431 916 407 903T365 871T338 827T327 782V777Q327 747 344 724T403 701Q427 701 450 711T491 738T520 777T534 825V826ZM431
233L427 231H270L267 232L261 243V247L390 462L397 465L407 463L412 458L438 244L436 240L429 233H431ZM421 781Q417 781 417 791Q418 805 427 818T456 832Q460 832 460 825V821Q459 805 448 793T421 781Z" />
<glyph unicode="6;" glyph-name="AE" horiz-adv-x="1045" d="M468 96L478 45Q482 24 488 12T503 -8T524 -18T553 -24Q565 -24 582 -16Q587 -18 591 -19T598 -20Q626 -20 647 -16T699 -7H701L995 37Q1016 39 1024 42T1033 47Q1038 53 1038 58T1035 75Q1033
84 1027 94H1022Q1009 105 987 108T946 113Q924 113 901 109T855 105Q851 105 848 105T840 106Q838 106 830 105T810 104T787 102T767 101Q731 99 694 97T623 90L619 91L606 99Q601 137 597 171T587 238Q585 256 584 270T583 291L585 292H586L592 294H611Q618 293
623 293Q629 293 634 293H655Q671 293 687 293T725 295T774 299T843 306Q847 306 856 306T876 308T895 309T907 310Q932 314 934 327T931 354L924 373Q913 393 888 397T834 402H722Q684 402 646 402T583 406L573 416L571 420Q570 429 568 451T565 497T563 543T562
573H561L563 575L568 577Q579 578 585 578T595 579T605 580T621 581H661L848 589H886Q895 589 896 590Q897 593 897 593Q920 598 925 607T927 626L924 634Q916 644 908 650T890 659T865 665T829 669Q787 669 728 672T606 678T488 679T396 668Q370 660 354 649T327
625T307 595T289 559Q279 538 267 514T238 466Q213 425 183 376T122 274T65 172T19 81Q12 64 9 50T5 19V6Q5 -5 10 -14T25 -30T44 -40T65 -44Q91 -44 112 -34T147 8Q158 31 165 48T179 79T193 104T210 125L214 126H225Q227 126 228 126T231 127Q255 128 285 130Q327
132 370 134T438 136H449L456 133H457L461 129L463 126L468 96ZM431 233L427 231H270L267 232L261 243V247L390 462L397 465L407 463L412 458L438 244L436 240L429 233H431Z" />
<glyph unicode="7;" glyph-name="Ccedilla" horiz-adv-x="610" d="M165 -97Q154 -104 150 -107T146 -121Q146 -122 171 -122H230Q241 -122 249 -122Q257 -122 258 -123Q225 -132 203 -144T166 -168T145 -191T139 -208Q139 -225 164 -233T226 -241Q258 -241
294 -236T361 -220T412 -196T432 -165V-154Q432 -134 419 -119T388 -92Q371 -84 355 -78T319 -70L345 -49Q408 -44 460 -19T568 48Q585 62 592 71T605 90Q603 137 563 137H559Q558 137 550 135T529 129T504 119T480 105H482Q456 91 424 77T341 48Q332 45 304 45Q288
45 264 50T195 73Q176 91 160 113T138 163V175Q138 187 139 190Q145 246 171 300Q199 354 232 405T304 493Q332 523 365 543T433 564H436L526 499Q528 498 538 493T560 481T574 474Q597 485 611 500T625 528Q625 532 624 534V542Q618 568 596 587T539 624Q512 638
492 647T457 661T428 669T399 672Q383 672 361 669T313 657Q251 619 198 569T105 457T38 327T4 184V171Q4 163 5 160Q7 133 11 115T25 79L47 53Q82 7 132 -13T237 -43L165 -97Z" />
<glyph unicode="8;" glyph-name="Egrave" horiz-adv-x="649" d="M11 23Q23 15 36 5T63 -15T87 -31T108 -38Q136 -38 158 -34T213 -25H215L524 19Q545 21 554 24T565 29Q571 35 573 40T576 57Q576 61 576 65Q576 70 575 76H570Q560 87 538 90T499 95Q477 95
453 91T406 87Q402 87 399 87T392 88Q390 88 381 87T360 86T336 84T316 83Q279 81 242 79T168 72L164 73L155 82L154 86Q155 99 160 127T172 184T185 239T195 273L197 274H198L204 276H223Q230 275 235 275Q241 275 246 275H267Q283 275 299 275T337 277T388 281T459
288Q463 288 472 288T492 290T512 291T524 292Q551 296 557 309T563 336V355Q558 375 534 379T481 384H369Q331 384 293 384T232 388L225 398L224 402Q226 411 231 433T243 479T256 525T265 555H264L267 557L272 559Q283 560 289 560T300 561T312 562T328 563H368L556
571H594Q603 571 604 572Q607 575 608 575Q631 580 639 589T647 608V616Q642 626 636 632T621 641T598 647T564 651Q538 652 504 654T435 657T368 660T313 661H235Q227 661 216 661Q206 661 195 662Q168 662 152 659T127 646T112 618T99 568L11 23ZM437 705Q456
712 464 718T473 738Q473 747 462 771Q454 787 443 805T418 840T390 872T362 896Q330 917 307 917Q291 917 282 909T273 880Q273 871 273 867T276 858Q281 842 287 831T301 810T321 791T348 770Q365 758 376 749T393 733Q408 714 419 710T435 705H437Z" />
<glyph unicode="9;" glyph-name="Eacute" horiz-adv-x="649" d="M11 23Q23 15 36 5T63 -15T87 -31T108 -38Q136 -38 158 -34T213 -25H215L524 19Q545 21 554 24T565 29Q571 35 573 40T576 57Q576 61 576 65Q576 70 575 76H570Q560 87 538 90T499 95Q477 95
453 91T406 87Q402 87 399 87T392 88Q390 88 381 87T360 86T336 84T316 83Q279 81 242 79T168 72L164 73L155 82L154 86Q155 99 160 127T172 184T185 239T195 273L197 274H198L204 276H223Q230 275 235 275Q241 275 246 275H267Q283 275 299 275T337 277T388 281T459
288Q463 288 472 288T492 290T512 291T524 292Q551 296 557 309T563 336V355Q558 375 534 379T481 384H369Q331 384 293 384T232 388L225 398L224 402Q226 411 231 433T243 479T256 525T265 555H264L267 557L272 559Q283 560 289 560T300 561T312 562T328 563H368L556
571H594Q603 571 604 572Q607 575 608 575Q631 580 639 589T647 608V616Q642 626 636 632T621 641T598 647T564 651Q538 652 504 654T435 657T368 660T313 661H235Q227 661 216 661Q206 661 195 662Q168 662 152 659T127 646T112 618T99 568L11 23ZM338 697H341Q348
697 356 701T381 725Q386 732 397 741T426 762Q442 774 453 783T472 801T487 822T498 850Q499 855 500 859T501 872Q501 892 492 900T467 909Q456 909 442 904T411 888Q398 879 384 865T357 833T332 797T312 763Q301 739 301 730Q301 716 309 711T334 698L338 697Z"
/>
<glyph unicode="a;" glyph-name="Ecircumflex" horiz-adv-x="649" d="M11 23Q23 15 36 5T63 -15T87 -31T108 -38Q136 -38 158 -34T213 -25H215L524 19Q545 21 554 24T565 29Q571 35 573 40T576 57Q576 61 576 65Q576 70 575 76H570Q560 87 538 90T499 95Q477
95 453 91T406 87Q402 87 399 87T392 88Q390 88 381 87T360 86T336 84T316 83Q279 81 242 79T168 72L164 73L155 82L154 86Q155 99 160 127T172 184T185 239T195 273L197 274H198L204 276H223Q230 275 235 275Q241 275 246 275H267Q283 275 299 275T337 277T388
281T459 288Q463 288 472 288T492 290T512 291T524 292Q551 296 557 309T563 336V355Q558 375 534 379T481 384H369Q331 384 293 384T232 388L225 398L224 402Q226 411 231 433T243 479T256 525T265 555H264L267 557L272 559Q283 560 289 560T300 561T312 562T328
563H368L556 571H594Q603 571 604 572Q607 575 608 575Q631 580 639 589T647 608V616Q642 626 636 632T621 641T598 647T564 651Q538 652 504 654T435 657T368 660T313 661H235Q227 661 216 661Q206 661 195 662Q168 662 152 659T127 646T112 618T99 568L11 23ZM505
814Q500 824 496 828T487 835Q490 833 482 842T457 864T419 886T370 897H367Q353 897 345 888T331 858Q331 853 324 848T308 838T290 828T277 817Q268 809 261 795T254 762Q254 746 259 736Q272 710 293 710Q306 710 321 722Q332 733 339 740T354 756Q358 760 362
764T372 773Q393 771 407 764T448 736Q454 732 460 729T474 726Q484 726 495 735Q513 748 513 777Q513 788 511 797T505 815V814Z" />
<glyph unicode="b;" glyph-name="Edieresis" horiz-adv-x="649" d="M11 23Q23 15 36 5T63 -15T87 -31T108 -38Q136 -38 158 -34T213 -25H215L524 19Q545 21 554 24T565 29Q571 35 573 40T576 57Q576 61 576 65Q576 70 575 76H570Q560 87 538 90T499 95Q477
95 453 91T406 87Q402 87 399 87T392 88Q390 88 381 87T360 86T336 84T316 83Q279 81 242 79T168 72L164 73L155 82L154 86Q155 99 160 127T172 184T185 239T195 273L197 274H198L204 276H223Q230 275 235 275Q241 275 246 275H267Q283 275 299 275T337 277T388
281T459 288Q463 288 472 288T492 290T512 291T524 292Q551 296 557 309T563 336V355Q558 375 534 379T481 384H369Q331 384 293 384T232 388L225 398L224 402Q226 411 231 433T243 479T256 525T265 555H264L267 557L272 559Q283 560 289 560T300 561T312 562T328
563H368L556 571H594Q603 571 604 572Q607 575 608 575Q631 580 639 589T647 608V616Q642 626 636 632T621 641T598 647T564 651Q538 652 504 654T435 657T368 660T313 661H235Q227 661 216 661Q206 661 195 662Q168 662 152 659T127 646T112 618T99 568L11 23ZM387
768Q384 791 362 807T299 823H297Q259 823 236 809T212 772Q217 749 239 734T297 717Q337 717 362 730T387 767V768ZM583 768Q581 791 558 807T497 823H492Q455 823 433 810T410 773Q411 750 433 734T493 717Q531 717 557 730T583 767V768Z" />
<glyph unicode="c;" glyph-name="Igrave" horiz-adv-x="278" d="M99 -27H111Q118 -17 122 -12T128 -1T132 10T136 27Q136 28 140 47T151 99T168 172T187 257T208 345T227 426Q232 454 241 478T256 525Q262 544 267 568T278 615Q278 642 256 662T203 682H189Q182
689 174 689Q155 689 137 645T98 517T55 310T5 30Q8 13 20 1L21 0H19Q20 0 26 -4L99 -27ZM276 728Q295 735 303 741T312 761Q312 770 301 794Q293 810 282 828T257 863T229 895T201 919Q169 940 146 940Q130 940 121 932T112 903Q112 894 112 890T115 881Q120 865
126 854T140 833T160 814T187 793Q204 781 215 772T232 756Q247 737 258 733T274 728H276Z" />
<glyph unicode="d;" glyph-name="Iacute" horiz-adv-x="278" d="M99 -27H111Q118 -17 122 -12T128 -1T132 10T136 27Q136 28 140 47T151 99T168 172T187 257T208 345T227 426Q232 454 241 478T256 525Q262 544 267 568T278 615Q278 642 256 662T203 682H189Q182
689 174 689Q155 689 137 645T98 517T55 310T5 30Q8 13 20 1L21 0H19Q20 0 26 -4L99 -27ZM177 722H180Q187 722 195 726T220 750Q225 757 236 766T265 787Q281 799 292 808T311 826T326 847T337 875Q338 880 339 884T340 897Q340 917 331 925T306 934Q295 934 281
929T250 913Q237 904 223 890T196 858T171 822T151 788Q140 764 140 755Q140 741 148 736T173 723L177 722Z" />
<glyph unicode="e;" glyph-name="Icircumflex" horiz-adv-x="278" d="M99 -27H111Q118 -17 122 -12T128 -1T132 10T136 27Q136 28 140 47T151 99T168 172T187 257T208 345T227 426Q232 454 241 478T256 525Q262 544 267 568T278 615Q278 642 256 662T203 682H189Q182
689 174 689Q155 689 137 645T98 517T55 310T5 30Q8 13 20 1L21 0H19Q20 0 26 -4L99 -27ZM332 819Q327 829 323 833T314 840Q317 838 309 847T284 869T246 891T197 902H194Q180 902 172 893T158 863Q158 858 151 853T135 843T117 833T104 822Q95 814 88 800T81
767Q81 751 86 741Q99 715 120 715Q133 715 148 727Q159 738 166 745T181 761Q185 765 189 769T199 778Q220 776 234 769T275 741Q281 737 287 734T301 731Q311 731 322 740Q340 753 340 782Q340 793 338 802T332 820V819Z" />
<glyph unicode="f;" glyph-name="Idieresis" horiz-adv-x="278" d="M99 -27H111Q118 -17 122 -12T128 -1T132 10T136 27Q136 28 140 47T151 99T168 172T187 257T208 345T227 426Q232 454 241 478T256 525Q262 544 267 568T278 615Q278 642 256 662T203 682H189Q182
689 174 689Q155 689 137 645T98 517T55 310T5 30Q8 13 20 1L21 0H19Q20 0 26 -4L99 -27ZM212 776Q209 799 187 815T124 831H122Q84 831 61 817T37 780Q42 757 64 742T122 725Q162 725 187 738T212 775V776ZM408 776Q406 799 383 815T322 831H317Q280 831 258 818T235
781Q236 758 258 742T318 725Q356 725 382 738T408 775V776Z" />
<glyph unicode="&#xd0;" glyph-name="Eth" horiz-adv-x="710" d="M-56 301Q-48 289 -28 285T21 281H50Q38 226 29 170T12 50V36L13 35Q16 8 35 -7L131 -39Q154 -39 175 -37T212 -33Q308 -24 393 18T541 121T641 255T678 398Q678 444 660 486T604 563T505 622T358
658H356Q330 665 296 666T220 668L155 657Q118 560 113 535Q113 530 113 528T110 521Q100 486 92 455T76 393Q38 392 7 391T-32 388H-31Q-51 384 -62 380T-73 360Q-70 339 -67 324T-56 301ZM283 557Q371 557 424 549T503 523Q542 494 556 469T573 423L574 416Q573
375 547 330T478 240T376 154T254 83Q248 79 223 70T168 53L153 67Q157 109 169 167T196 286Q213 287 231 287T265 289T292 291T309 293H329Q355 293 367 294T389 303Q398 307 400 311T403 324Q398 335 393 345T383 359Q357 383 317 389T231 396H225Q240 450 253
491T272 551H271L275 554L283 557Z" />
<glyph unicode="&#xd1;" glyph-name="Ntilde" horiz-adv-x="668" d="M616 675Q599 672 587 662T567 639T553 609T545 576Q545 576 541 557T530 508T514 438T494 357T473 276T451 204L448 202L435 201Q418 240 405 276T381 346T363 415T349 486Q346 492 346 502T345
527V543Q345 560 344 578T338 611T323 636T296 647Q243 644 212 635T164 610T140 572T127 520Q120 494 114 469T101 421Q77 327 60 262T32 152T15 83T5 43T1 23T0 13V5Q0 -9 6 -20T23 -40T46 -53T71 -58Q91 -58 106 -47T125 -10V-5Q129 6 136 30T153 87T172 158T192
235T210 311T223 378L228 382L241 383L245 380Q264 312 284 255T325 153T362 80T390 41Q413 11 435 -2T477 -16Q500 -16 517 -1T543 40Q564 107 575 142T592 196T601 225T608 252Q610 263 614 280T624 316T634 352T642 379Q645 385 650 401T662 441T674 491T683
544Q691 562 697 583T703 625Q703 651 690 664L616 675ZM585 789V791Q585 803 572 812T543 821Q531 821 520 816T504 798Q503 796 503 793T501 788Q499 782 497 776T490 769Q485 769 481 774T472 785V784Q463 795 451 806T413 817Q397 817 378 811T342 793T312
769T299 741V739Q299 725 310 715T342 705Q355 705 364 712T382 728Q387 733 393 738T403 743Q403 743 405 740T412 734Q422 723 437 712T481 701Q527 701 553 719T585 789Z" />
<glyph unicode="&#xd2;" glyph-name="Ograve" horiz-adv-x="736" d="M457 657Q388 649 339 638T259 609Q233 594 217 584T193 569Q149 537 114 495T53 407T15 311T1 217V202Q1 192 2 189Q5 166 12 142T40 88V89Q74 33 125 5T256 -36Q278 -41 298 -42T341 -44Q407
-44 461 -31T555 14Q600 53 633 99T688 195T720 294T731 392V414Q731 419 731 425T729 436Q727 455 723 474T709 512Q688 551 665 577T616 620T567 645T522 657H457ZM488 573Q517 573 546 555Q571 537 584 503T602 434Q603 426 603 418T604 401Q604 346 586 283T530
166T434 74T296 34Q285 34 267 40T231 56Q191 69 170 98T147 163Q146 164 146 167Q147 199 157 238T186 319T230 400T288 473T358 531T438 566Q448 569 460 571T488 573ZM524 698Q543 705 551 711T560 731Q560 740 549 764Q541 780 530 798T505 833T477 865T449
889Q417 910 394 910Q378 910 369 902T360 873Q360 864 360 860T363 851Q368 835 374 824T388 803T408 784T435 763Q452 751 463 742T480 726Q495 707 506 703T522 698H524Z" />
<glyph unicode="&#xd3;" glyph-name="Oacute" horiz-adv-x="736" d="M457 657Q388 649 339 638T259 609Q233 594 217 584T193 569Q149 537 114 495T53 407T15 311T1 217V202Q1 192 2 189Q5 166 12 142T40 88V89Q74 33 125 5T256 -36Q278 -41 298 -42T341 -44Q407
-44 461 -31T555 14Q600 53 633 99T688 195T720 294T731 392V414Q731 419 731 425T729 436Q727 455 723 474T709 512Q688 551 665 577T616 620T567 645T522 657H457ZM488 573Q517 573 546 555Q571 537 584 503T602 434Q603 426 603 418T604 401Q604 346 586 283T530
166T434 74T296 34Q285 34 267 40T231 56Q191 69 170 98T147 163Q146 164 146 167Q147 199 157 238T186 319T230 400T288 473T358 531T438 566Q448 569 460 571T488 573ZM375 689H378Q385 689 393 693T418 717Q423 724 434 733T463 754Q479 766 490 775T509 793T524
814T535 842Q536 847 537 851T538 864Q538 884 529 892T504 901Q493 901 479 896T448 880Q435 871 421 857T394 825T369 789T349 755Q338 731 338 722Q338 708 346 703T371 690L375 689Z" />
<glyph unicode="&#xd4;" glyph-name="Ocircumflex" horiz-adv-x="736" d="M457 657Q388 649 339 638T259 609Q233 594 217 584T193 569Q149 537 114 495T53 407T15 311T1 217V202Q1 192 2 189Q5 166 12 142T40 88V89Q74 33 125 5T256 -36Q278 -41 298 -42T341
-44Q407 -44 461 -31T555 14Q600 53 633 99T688 195T720 294T731 392V414Q731 419 731 425T729 436Q727 455 723 474T709 512Q688 551 665 577T616 620T567 645T522 657H457ZM488 573Q517 573 546 555Q571 537 584 503T602 434Q603 426 603 418T604 401Q604 346
586 283T530 166T434 74T296 34Q285 34 267 40T231 56Q191 69 170 98T147 163Q146 164 146 167Q147 199 157 238T186 319T230 400T288 473T358 531T438 566Q448 569 460 571T488 573ZM595 799Q590 809 586 813T577 820Q580 818 572 827T547 849T509 871T460 882H457Q443
882 435 873T421 843Q421 838 414 833T398 823T380 813T367 802Q358 794 351 780T344 747Q344 731 349 721Q362 695 383 695Q396 695 411 707Q422 718 429 725T444 741Q448 745 452 749T462 758Q483 756 497 749T538 721Q544 717 550 714T564 711Q574 711 585 720Q603
733 603 762Q603 773 601 782T595 800V799Z" />
<glyph unicode="&#xd5;" glyph-name="Otilde" horiz-adv-x="736" d="M457 657Q388 649 339 638T259 609Q233 594 217 584T193 569Q149 537 114 495T53 407T15 311T1 217V202Q1 192 2 189Q5 166 12 142T40 88V89Q74 33 125 5T256 -36Q278 -41 298 -42T341 -44Q407
-44 461 -31T555 14Q600 53 633 99T688 195T720 294T731 392V414Q731 419 731 425T729 436Q727 455 723 474T709 512Q688 551 665 577T616 620T567 645T522 657H457ZM488 573Q517 573 546 555Q571 537 584 503T602 434Q603 426 603 418T604 401Q604 346 586 283T530
166T434 74T296 34Q285 34 267 40T231 56Q191 69 170 98T147 163Q146 164 146 167Q147 199 157 238T186 319T230 400T288 473T358 531T438 566Q448 569 460 571T488 573ZM574 787V789Q574 801 561 810T532 819Q520 819 509 814T493 796Q492 794 492 791T490 786Q488
780 486 774T479 767Q474 767 470 772T461 783V782Q452 793 440 804T402 815Q386 815 367 809T331 791T301 767T288 739V737Q288 723 299 713T331 703Q344 703 353 710T371 726Q376 731 382 736T392 741Q392 741 394 738T401 732Q411 721 426 710T470 699Q516 699
542 717T574 787Z" />
<glyph unicode="&#xd6;" glyph-name="Odieresis" horiz-adv-x="736" d="M457 657Q388 649 339 638T259 609Q233 594 217 584T193 569Q149 537 114 495T53 407T15 311T1 217V202Q1 192 2 189Q5 166 12 142T40 88V89Q74 33 125 5T256 -36Q278 -41 298 -42T341 -44Q407
-44 461 -31T555 14Q600 53 633 99T688 195T720 294T731 392V414Q731 419 731 425T729 436Q727 455 723 474T709 512Q688 551 665 577T616 620T567 645T522 657H457ZM488 573Q517 573 546 555Q571 537 584 503T602 434Q603 426 603 418T604 401Q604 346 586 283T530
166T434 74T296 34Q285 34 267 40T231 56Q191 69 170 98T147 163Q146 164 146 167Q147 199 157 238T186 319T230 400T288 473T358 531T438 566Q448 569 460 571T488 573ZM429 743Q426 766 404 782T341 798H339Q301 798 278 784T254 747Q259 724 281 709T339 692Q379
692 404 705T429 742V743ZM625 743Q623 766 600 782T539 798H534Q497 798 475 785T452 748Q453 725 475 709T535 692Q573 692 599 705T625 742V743Z" />
<glyph unicode="&#xd7;" glyph-name="multiply" horiz-adv-x="490" d="M455 229Q488 262 464 301Q445 325 431 342T406 372Q376 406 376 412Q373 431 394 452Q398 457 407 464T427 479T446 494T461 506Q512 558 468 602Q440 631 396 607Q386 600 371 588T333 555Q315
540 303 530T281 513Q258 496 208 547Q187 568 172 581T147 600Q107 624 77 594Q63 578 54 555Q45 520 85 480Q90 475 100 467T116 453Q141 426 122 407Q109 394 87 375Q74 365 65 357T51 344Q-12 281 31 238Q49 221 65 221Q72 223 85 228T121 245Q138 255 151
263T174 277Q202 297 234 302Q271 307 293 285L357 221Q377 201 408 204Q433 207 455 229Z" />
<glyph unicode="&#xd9;" glyph-name="Ugrave" horiz-adv-x="634" d="M482 518Q477 486 471 450T450 356Q442 323 433 288T413 221T392 163T371 123L334 74L331 70Q319 61 304 56T275 49T249 46T231 45H226Q218 45 205 49T178 62T154 84T144 116Q144 122 145 126Q145
149 151 180T169 249Q196 341 212 394T239 477T252 517T258 536T260 555T264 597V599Q264 610 255 620T234 639T207 654T180 664Q162 664 147 653T108 605L107 599V600Q105 596 101 580T89 536Q75 489 65 457T49 400T37 359T29 324T22 288T14 242Q11 224 9 206T7
168Q7 130 19 94T64 30L71 27Q117 -10 152 -24T226 -39Q231 -38 241 -38Q250 -38 260 -38T282 -39H290Q291 -38 294 -38H298Q365 -38 411 -2T490 92T543 220T581 358Q597 417 611 483T633 611Q633 629 632 642T626 675Q622 682 613 687T594 697T572 703T553 705Q543
705 531 695T516 682L482 518ZM418 689Q437 696 445 702T454 722Q454 731 443 755Q435 771 424 789T399 824T371 856T343 880Q311 901 288 901Q272 901 263 893T254 864Q254 855 254 851T257 842Q262 826 268 815T282 794T302 775T329 754Q346 742 357 733T374
717Q389 698 400 694T416 689H418Z" />
<glyph unicode="&#xda;" glyph-name="Uacute" horiz-adv-x="634" d="M482 518Q477 486 471 450T450 356Q442 323 433 288T413 221T392 163T371 123L334 74L331 70Q319 61 304 56T275 49T249 46T231 45H226Q218 45 205 49T178 62T154 84T144 116Q144 122 145 126Q145
149 151 180T169 249Q196 341 212 394T239 477T252 517T258 536T260 555T264 597V599Q264 610 255 620T234 639T207 654T180 664Q162 664 147 653T108 605L107 599V600Q105 596 101 580T89 536Q75 489 65 457T49 400T37 359T29 324T22 288T14 242Q11 224 9 206T7
168Q7 130 19 94T64 30L71 27Q117 -10 152 -24T226 -39Q231 -38 241 -38Q250 -38 260 -38T282 -39H290Q291 -38 294 -38H298Q365 -38 411 -2T490 92T543 220T581 358Q597 417 611 483T633 611Q633 629 632 642T626 675Q622 682 613 687T594 697T572 703T553 705Q543
705 531 695T516 682L482 518ZM340 691H343Q350 691 358 695T383 719Q388 726 399 735T428 756Q444 768 455 777T474 795T489 816T500 844Q501 849 502 853T503 866Q503 886 494 894T469 903Q458 903 444 898T413 882Q400 873 386 859T359 827T334 791T314 757Q303
733 303 724Q303 710 311 705T336 692L340 691Z" />
<glyph unicode="&#xdb;" glyph-name="Ucircumflex" horiz-adv-x="634" d="M482 518Q477 486 471 450T450 356Q442 323 433 288T413 221T392 163T371 123L334 74L331 70Q319 61 304 56T275 49T249 46T231 45H226Q218 45 205 49T178 62T154 84T144 116Q144 122 145
126Q145 149 151 180T169 249Q196 341 212 394T239 477T252 517T258 536T260 555T264 597V599Q264 610 255 620T234 639T207 654T180 664Q162 664 147 653T108 605L107 599V600Q105 596 101 580T89 536Q75 489 65 457T49 400T37 359T29 324T22 288T14 242Q11 224
9 206T7 168Q7 130 19 94T64 30L71 27Q117 -10 152 -24T226 -39Q231 -38 241 -38Q250 -38 260 -38T282 -39H290Q291 -38 294 -38H298Q365 -38 411 -2T490 92T543 220T581 358Q597 417 611 483T633 611Q633 629 632 642T626 675Q622 682 613 687T594 697T572 703T553
705Q543 705 531 695T516 682L482 518ZM496 807Q491 817 487 821T478 828Q481 826 473 835T448 857T410 879T361 890H358Q344 890 336 881T322 851Q322 846 315 841T299 831T281 821T268 810Q259 802 252 788T245 755Q245 739 250 729Q263 703 284 703Q297 703
312 715Q323 726 330 733T345 749Q349 753 353 757T363 766Q384 764 398 757T439 729Q445 725 451 722T465 719Q475 719 486 728Q504 741 504 770Q504 781 502 790T496 808V807Z" />
<glyph unicode="&#xdc;" glyph-name="Udieresis" horiz-adv-x="634" d="M482 518Q477 486 471 450T450 356Q442 323 433 288T413 221T392 163T371 123L334 74L331 70Q319 61 304 56T275 49T249 46T231 45H226Q218 45 205 49T178 62T154 84T144 116Q144 122 145
126Q145 149 151 180T169 249Q196 341 212 394T239 477T252 517T258 536T260 555T264 597V599Q264 610 255 620T234 639T207 654T180 664Q162 664 147 653T108 605L107 599V600Q105 596 101 580T89 536Q75 489 65 457T49 400T37 359T29 324T22 288T14 242Q11 224
9 206T7 168Q7 130 19 94T64 30L71 27Q117 -10 152 -24T226 -39Q231 -38 241 -38Q250 -38 260 -38T282 -39H290Q291 -38 294 -38H298Q365 -38 411 -2T490 92T543 220T581 358Q597 417 611 483T633 611Q633 629 632 642T626 675Q622 682 613 687T594 697T572 703T553
705Q543 705 531 695T516 682L482 518ZM356 780Q353 803 331 819T268 835H266Q228 835 205 821T181 784Q186 761 208 746T266 729Q306 729 331 742T356 779V780ZM552 780Q550 803 527 819T466 835H461Q424 835 402 822T379 785Q380 762 402 746T462 729Q500 729
526 742T552 779V780Z" />
<glyph unicode="&#xdd;" glyph-name="Yacute" horiz-adv-x="576" d="M585 667Q579 678 563 684T528 691Q500 691 479 669Q412 597 350 527T232 384H231Q223 398 213 422T190 478Q180 503 169 528T147 576T122 617T95 646Q88 648 79 649T61 650Q46 650 31 648T8
639Q-1 633 -4 624T-7 601V596Q-7 580 0 563T15 530Q29 509 44 474T72 401T96 327T111 266V262L70 24Q71 2 99 -15L108 -24Q152 -40 175 -40Q196 -40 206 -26T223 22T240 108T269 237Q272 252 274 263T281 285T292 306T310 331Q346 384 404 449T552 599Q556 602
563 607T576 619T588 632T593 647V651Q593 652 593 652T592 654L585 667ZM251 661H254Q261 661 269 665T294 689Q299 696 310 705T339 726Q355 738 366 747T385 765T400 786T411 814Q412 819 413 823T414 836Q414 856 405 864T380 873Q369 873 355 868T324 852Q311
843 297 829T270 797T245 761T225 727Q214 703 214 694Q214 680 222 675T247 662L251 661Z" />
<glyph unicode="&#xdf;" glyph-name="germandbls" horiz-adv-x="587" d="M594 219Q598 246 592 268T573 305T542 329T503 337Q451 337 426 356T405 404Q407 421 420 439T460 476Q478 489 488 497T505 512T515 525T524 541V540L529 549V548Q543 575 546 595Q550
625 540 647T508 685T459 708T402 716Q391 716 380 715T359 712Q312 703 280 681T226 627T191 558T168 479L162 454L147 448L149 449L137 446H138Q128 444 120 442T104 433T90 417T80 389Q80 387 79 385T78 380Q74 357 85 348T114 338Q126 338 137 341L67 6V5Q64
0 63 -4T61 -14Q57 -39 71 -55T109 -71H115Q141 -68 162 -49T187 -7Q188 4 187 9L291 515Q292 521 296 534T308 561T328 588T358 606Q372 610 385 612T408 615Q419 615 427 610T435 589Q427 581 420 574T404 560Q375 532 347 499T312 420L309 402Q307 397 306 393T304
383Q301 360 311 332T342 280T393 239T461 222H462Q467 222 471 218T473 205Q462 181 455 166T441 142T427 129T407 122H405Q393 122 378 134T339 166Q323 177 303 177Q283 177 263 167T235 132L236 134Q234 129 234 127T232 121Q229 100 241 81T274 47T321 24T373
15H393Q425 20 456 34T515 73T562 134T594 218V219Z" />
<glyph unicode="&#xe0;" glyph-name="agrave" horiz-adv-x="601" d="M588 248Q592 272 595 293T603 339T617 391T642 458Q639 476 628 488T601 508T565 519T523 522Q506 522 491 521T465 518Q417 512 375 507T294 497T218 486T143 470Q129 454 126 441T122 408V383Q122
372 132 369T157 365Q196 365 235 372T313 387Q345 392 378 397T445 403H466Q471 403 476 403T487 401H489Q501 397 505 393T510 385Q510 383 509 380T507 375Q503 358 501 340T485 308L479 306Q439 319 406 327T330 336H325Q290 336 257 330T191 309T125 269T55
205Q35 182 27 157T18 105Q18 78 26 55T47 15Q67 -10 95 -20T156 -30Q187 -30 222 -22T292 -1T360 28T420 61H427Q431 56 432 51T433 39Q433 28 431 18T429 0Q429 -31 461 -31Q465 -31 470 -29T480 -27Q484 -27 486 -28Q496 -33 509 -33Q523 -33 533 -25T549 -5T558
22T561 52V61L588 248ZM179 99H162Q137 109 137 125Q137 141 157 158T204 191T259 216T305 226H309Q317 227 325 227T341 228Q371 228 396 220T425 192L423 187Q374 147 312 123T179 99ZM437 570Q456 577 464 583T473 603Q473 612 462 636Q454 652 443 670T418
705T390 737T362 761Q330 782 307 782Q291 782 282 774T273 745Q273 736 273 732T276 723Q281 707 287 696T301 675T321 656T348 635Q365 623 376 614T393 598Q408 579 419 575T435 570H437Z" />
<glyph unicode="&#xe1;" glyph-name="aacute" horiz-adv-x="601" d="M588 248Q592 272 595 293T603 339T617 391T642 458Q639 476 628 488T601 508T565 519T523 522Q506 522 491 521T465 518Q417 512 375 507T294 497T218 486T143 470Q129 454 126 441T122 408V383Q122
372 132 369T157 365Q196 365 235 372T313 387Q345 392 378 397T445 403H466Q471 403 476 403T487 401H489Q501 397 505 393T510 385Q510 383 509 380T507 375Q503 358 501 340T485 308L479 306Q439 319 406 327T330 336H325Q290 336 257 330T191 309T125 269T55
205Q35 182 27 157T18 105Q18 78 26 55T47 15Q67 -10 95 -20T156 -30Q187 -30 222 -22T292 -1T360 28T420 61H427Q431 56 432 51T433 39Q433 28 431 18T429 0Q429 -31 461 -31Q465 -31 470 -29T480 -27Q484 -27 486 -28Q496 -33 509 -33Q523 -33 533 -25T549 -5T558
22T561 52V61L588 248ZM179 99H162Q137 109 137 125Q137 141 157 158T204 191T259 216T305 226H309Q317 227 325 227T341 228Q371 228 396 220T425 192L423 187Q374 147 312 123T179 99ZM364 564H367Q374 564 382 568T407 592Q412 599 423 608T452 629Q468 641
479 650T498 668T513 689T524 717Q525 722 526 726T527 739Q527 759 518 767T493 776Q482 776 468 771T437 755Q424 746 410 732T383 700T358 664T338 630Q327 606 327 597Q327 583 335 578T360 565L364 564Z" />
<glyph unicode="&#xe2;" glyph-name="acircumflex" horiz-adv-x="601" d="M588 248Q592 272 595 293T603 339T617 391T642 458Q639 476 628 488T601 508T565 519T523 522Q506 522 491 521T465 518Q417 512 375 507T294 497T218 486T143 470Q129 454 126 441T122
408V383Q122 372 132 369T157 365Q196 365 235 372T313 387Q345 392 378 397T445 403H466Q471 403 476 403T487 401H489Q501 397 505 393T510 385Q510 383 509 380T507 375Q503 358 501 340T485 308L479 306Q439 319 406 327T330 336H325Q290 336 257 330T191 309T125
269T55 205Q35 182 27 157T18 105Q18 78 26 55T47 15Q67 -10 95 -20T156 -30Q187 -30 222 -22T292 -1T360 28T420 61H427Q431 56 432 51T433 39Q433 28 431 18T429 0Q429 -31 461 -31Q465 -31 470 -29T480 -27Q484 -27 486 -28Q496 -33 509 -33Q523 -33 533 -25T549
-5T558 22T561 52V61L588 248ZM526 671Q521 681 517 685T508 692Q511 690 503 699T478 721T440 743T391 754H388Q374 754 366 745T352 715Q352 710 345 705T329 695T311 685T298 674Q289 666 282 652T275 619Q275 603 280 593Q293 567 314 567Q327 567 342 579Q353
590 360 597T375 613Q379 617 383 621T393 630Q414 628 428 621T469 593Q475 589 481 586T495 583Q505 583 516 592Q534 605 534 634Q534 645 532 654T526 672V671ZM179 99H162Q137 109 137 125Q137 141 157 158T204 191T259 216T305 226H309Q317 227 325 227T341
228Q371 228 396 220T425 192L423 187Q374 147 312 123T179 99Z" />
<glyph unicode="&#xe3;" glyph-name="atilde" horiz-adv-x="601" d="M588 248Q592 272 595 293T603 339T617 391T642 458Q639 476 628 488T601 508T565 519T523 522Q506 522 491 521T465 518Q417 512 375 507T294 497T218 486T143 470Q129 454 126 441T122 408V383Q122
372 132 369T157 365Q196 365 235 372T313 387Q345 392 378 397T445 403H466Q471 403 476 403T487 401H489Q501 397 505 393T510 385Q510 383 509 380T507 375Q503 358 501 340T485 308L479 306Q439 319 406 327T330 336H325Q290 336 257 330T191 309T125 269T55
205Q35 182 27 157T18 105Q18 78 26 55T47 15Q67 -10 95 -20T156 -30Q187 -30 222 -22T292 -1T360 28T420 61H427Q431 56 432 51T433 39Q433 28 431 18T429 0Q429 -31 461 -31Q465 -31 470 -29T480 -27Q484 -27 486 -28Q496 -33 509 -33Q523 -33 533 -25T549 -5T558
22T561 52V61L588 248ZM554 657V659Q554 671 541 680T512 689Q500 689 489 684T473 666Q472 664 472 661T470 656Q468 650 466 644T459 637Q454 637 450 642T441 653V652Q432 663 420 674T382 685Q366 685 347 679T311 661T281 637T268 609V607Q268 593 279 583T311
573Q324 573 333 580T351 596Q356 601 362 606T372 611Q372 611 374 608T381 602Q391 591 406 580T450 569Q496 569 522 587T554 657ZM179 99H162Q137 109 137 125Q137 141 157 158T204 191T259 216T305 226H309Q317 227 325 227T341 228Q371 228 396 220T425 192L423
187Q374 147 312 123T179 99Z" />
<glyph unicode="&#xe4;" glyph-name="adieresis" horiz-adv-x="601" d="M588 248Q592 272 595 293T603 339T617 391T642 458Q639 476 628 488T601 508T565 519T523 522Q506 522 491 521T465 518Q417 512 375 507T294 497T218 486T143 470Q129 454 126 441T122
408V383Q122 372 132 369T157 365Q196 365 235 372T313 387Q345 392 378 397T445 403H466Q471 403 476 403T487 401H489Q501 397 505 393T510 385Q510 383 509 380T507 375Q503 358 501 340T485 308L479 306Q439 319 406 327T330 336H325Q290 336 257 330T191 309T125
269T55 205Q35 182 27 157T18 105Q18 78 26 55T47 15Q67 -10 95 -20T156 -30Q187 -30 222 -22T292 -1T360 28T420 61H427Q431 56 432 51T433 39Q433 28 431 18T429 0Q429 -31 461 -31Q465 -31 470 -29T480 -27Q484 -27 486 -28Q496 -33 509 -33Q523 -33 533 -25T549
-5T558 22T561 52V61L588 248ZM179 99H162Q137 109 137 125Q137 141 157 158T204 191T259 216T305 226H309Q317 227 325 227T341 228Q371 228 396 220T425 192L423 187Q374 147 312 123T179 99ZM406 630Q403 653 381 669T318 685H316Q278 685 255 671T231 634Q236
611 258 596T316 579Q356 579 381 592T406 629V630ZM602 630Q600 653 577 669T516 685H511Q474 685 452 672T429 635Q430 612 452 596T512 579Q550 579 576 592T602 629V630Z" />
<glyph unicode="&#xe5;" glyph-name="aring" horiz-adv-x="601" d="M588 248Q592 272 595 293T603 339T617 391T642 458Q639 476 628 488T601 508T565 519T523 522Q506 522 491 521T465 518Q417 512 375 507T294 497T218 486T143 470Q129 454 126 441T122 408V383Q122
372 132 369T157 365Q196 365 235 372T313 387Q345 392 378 397T445 403H466Q471 403 476 403T487 401H489Q501 397 505 393T510 385Q510 383 509 380T507 375Q503 358 501 340T485 308L479 306Q439 319 406 327T330 336H325Q290 336 257 330T191 309T125 269T55
205Q35 182 27 157T18 105Q18 78 26 55T47 15Q67 -10 95 -20T156 -30Q187 -30 222 -22T292 -1T360 28T420 61H427Q431 56 432 51T433 39Q433 28 431 18T429 0Q429 -31 461 -31Q465 -31 470 -29T480 -27Q484 -27 486 -28Q496 -33 509 -33Q523 -33 533 -25T549 -5T558
22T561 52V61L588 248ZM526 688Q526 691 526 694T527 700Q527 731 509 754T454 778Q423 778 399 765T357 733T330 689T319 644V639Q319 609 336 586T395 563Q419 563 442 573T483 600T512 639T526 687V688ZM179 99H162Q137 109 137 125Q137 141 157 158T204 191T259
216T305 226H309Q317 227 325 227T341 228Q371 228 396 220T425 192L423 187Q374 147 312 123T179 99ZM413 643Q409 643 409 653Q410 667 419 680T448 694Q452 694 452 687V683Q451 667 440 655T413 643Z" />
<glyph unicode="&#xe6;" glyph-name="ae" horiz-adv-x="1054" d="M992 49Q1008 57 1015 78T1023 119Q1023 139 1015 152T990 166Q975 166 955 160T915 145Q901 140 887 135T853 125Q811 116 774 109T703 102Q668 102 640 112T595 159V160Q609 174 635 176T684
179Q732 180 779 183T871 199T954 235T1023 304Q1038 323 1044 347T1050 399Q1050 428 1039 455T1003 494Q975 507 939 513T860 520Q812 516 757 509T653 481Q639 504 609 513T543 522Q526 522 511 521T485 518Q437 512 395 507T314 497T238 486T163 470Q149 454
146 441T142 408V383Q142 372 152 369T177 365Q216 365 255 372T333 387Q365 392 398 397T465 403H486Q491 403 496 403T507 401H509Q521 397 525 393T530 385Q530 383 529 380T527 375Q524 363 523 350T517 326Q516 324 516 323Q516 322 515 321Q510 313 505 308L499
306Q459 319 425 327T345 336Q310 336 277 330T211 309T145 269T75 205Q55 182 47 157T38 105Q38 78 46 55T67 15Q87 -10 115 -20T176 -30Q207 -30 242 -22T312 -1T380 28T440 61H447Q451 56 452 51T453 39Q453 28 451 18T449 0Q449 -31 481 -31Q485 -31 490 -29T500
-27Q504 -27 506 -28Q516 -33 529 -33Q552 -33 564 -14T579 30Q613 11 649 5T728 -2Q791 -2 857 12T991 49H992ZM909 320Q895 308 886 302T863 291T827 285T765 278Q716 282 688 285T644 290T625 295T620 300V303Q621 322 637 340T674 373T719 396T758 406Q778
413 791 415T815 418Q825 418 831 416T844 413H855Q871 413 887 411T916 403T936 391T944 375V371L909 320ZM199 99H182Q157 109 157 125Q157 141 177 158T224 191T281 216T329 226Q337 227 345 227T361 228Q391 228 416 220T445 192L443 187Q394 147 332 123T199
99Z" />
<glyph unicode="&#xe7;" glyph-name="ccedilla" horiz-adv-x="614" d="M447 365H448Q468 358 485 348T522 323Q523 322 523 322Q523 322 524 321H526Q537 313 543 308T563 302Q576 302 593 310T626 329T652 352T663 374V375Q659 378 659 381V382Q622 436 553 468T396
501Q370 501 342 498T284 486Q187 453 129 402T47 285Q44 276 41 259T35 224T30 190T28 165Q34 141 39 122T52 87T75 56T112 26Q157 -4 204 -13L130 -69Q119 -76 115 -79T111 -93Q111 -94 136 -94H195Q206 -94 214 -94Q222 -94 223 -95Q190 -104 168 -116T131 -140T110
-163T104 -180Q104 -197 129 -205T191 -213Q223 -213 259 -208T326 -192T377 -168T397 -137V-126Q397 -106 384 -91T353 -64Q336 -56 320 -50T284 -42L317 -14Q323 -13 329 -13T342 -10Q381 -3 411 4T470 22T525 46T586 83Q593 87 597 97T601 118Q601 128 598 138T590
158T578 172T561 178H556Q536 175 517 167T477 150T437 132T398 118Q369 111 339 107T277 103Q269 101 262 101Q255 101 248 101Q224 101 205 107T174 123T154 144T145 165Q133 184 133 209Q133 229 140 248T159 283T183 309T205 322Q240 347 279 362T364 378Q385
378 405 374T447 365Z" />
<glyph unicode="&#xe8;" glyph-name="egrave" horiz-adv-x="563" d="M549 30Q565 38 572 59T580 100Q580 120 572 133T547 147Q532 147 512 141T472 126Q458 121 444 116T410 106Q368 97 331 90T260 83Q225 83 197 93T152 141Q166 155 192 157T241 160Q289 161
336 164T428 180T511 216T580 285Q595 304 601 328T607 380Q607 409 596 436T560 475Q532 488 496 494T417 501Q391 499 363 497T305 489T247 475T194 454Q175 443 149 416T98 350T57 263T40 160Q40 155 40 149Q40 144 41 139Q41 99 63 72T115 24Q153 -2 195 -11T285
-21Q348 -21 414 -7T548 30H549ZM466 301Q452 289 443 283T420 272T384 266T322 259Q273 263 245 266T201 271T182 276T177 281V284Q178 303 194 321T231 354T276 377T315 387Q335 394 348 396T372 399Q382 399 388 397T401 394H412Q428 394 444 392T473 384T493
372T501 356V352L466 301ZM393 541Q412 548 420 554T429 574Q429 583 418 607Q410 623 399 641T374 676T346 708T318 732Q286 753 263 753Q247 753 238 745T229 716Q229 707 229 703T232 694Q237 678 243 667T257 646T277 627T304 606Q321 594 332 585T349 569Q364
550 375 546T391 541H393Z" />
<glyph unicode="&#xe9;" glyph-name="eacute" horiz-adv-x="563" d="M549 30Q565 38 572 59T580 100Q580 120 572 133T547 147Q532 147 512 141T472 126Q458 121 444 116T410 106Q368 97 331 90T260 83Q225 83 197 93T152 141Q166 155 192 157T241 160Q289 161
336 164T428 180T511 216T580 285Q595 304 601 328T607 380Q607 409 596 436T560 475Q532 488 496 494T417 501Q391 499 363 497T305 489T247 475T194 454Q175 443 149 416T98 350T57 263T40 160Q40 155 40 149Q40 144 41 139Q41 99 63 72T115 24Q153 -2 195 -11T285
-21Q348 -21 414 -7T548 30H549ZM466 301Q452 289 443 283T420 272T384 266T322 259Q273 263 245 266T201 271T182 276T177 281V284Q178 303 194 321T231 354T276 377T315 387Q335 394 348 396T372 399Q382 399 388 397T401 394H412Q428 394 444 392T473 384T493
372T501 356V352L466 301ZM334 555H337Q344 555 352 559T377 583Q382 590 393 599T422 620Q438 632 449 641T468 659T483 680T494 708Q495 713 496 717T497 730Q497 750 488 758T463 767Q452 767 438 762T407 746Q394 737 380 723T353 691T328 655T308 621Q297
597 297 588Q297 574 305 569T330 556L334 555Z" />
<glyph unicode="&#xea;" glyph-name="ecircumflex" horiz-adv-x="563" d="M549 30Q565 38 572 59T580 100Q580 120 572 133T547 147Q532 147 512 141T472 126Q458 121 444 116T410 106Q368 97 331 90T260 83Q225 83 197 93T152 141Q166 155 192 157T241 160Q289
161 336 164T428 180T511 216T580 285Q595 304 601 328T607 380Q607 409 596 436T560 475Q532 488 496 494T417 501Q391 499 363 497T305 489T247 475T194 454Q175 443 149 416T98 350T57 263T40 160Q40 155 40 149Q40 144 41 139Q41 99 63 72T115 24Q153 -2 195
-11T285 -21Q348 -21 414 -7T548 30H549ZM466 301Q452 289 443 283T420 272T384 266T322 259Q273 263 245 266T201 271T182 276T177 281V284Q178 303 194 321T231 354T276 377T315 387Q335 394 348 396T372 399Q382 399 388 397T401 394H412Q428 394 444 392T473
384T493 372T501 356V352L466 301ZM516 662Q511 672 507 676T498 683Q501 681 493 690T468 712T430 734T381 745H378Q364 745 356 736T342 706Q342 701 335 696T319 686T301 676T288 665Q279 657 272 643T265 610Q265 594 270 584Q283 558 304 558Q317 558 332
570Q343 581 350 588T365 604Q369 608 373 612T383 621Q404 619 418 612T459 584Q465 580 471 577T485 574Q495 574 506 583Q524 596 524 625Q524 636 522 645T516 663V662Z" />
<glyph unicode="&#xeb;" glyph-name="edieresis" horiz-adv-x="563" d="M549 30Q565 38 572 59T580 100Q580 120 572 133T547 147Q532 147 512 141T472 126Q458 121 444 116T410 106Q368 97 331 90T260 83Q225 83 197 93T152 141Q166 155 192 157T241 160Q289
161 336 164T428 180T511 216T580 285Q595 304 601 328T607 380Q607 409 596 436T560 475Q532 488 496 494T417 501Q391 499 363 497T305 489T247 475T194 454Q175 443 149 416T98 350T57 263T40 160Q40 155 40 149Q40 144 41 139Q41 99 63 72T115 24Q153 -2 195
-11T285 -21Q348 -21 414 -7T548 30H549ZM466 301Q452 289 443 283T420 272T384 266T322 259Q273 263 245 266T201 271T182 276T177 281V284Q178 303 194 321T231 354T276 377T315 387Q335 394 348 396T372 399Q382 399 388 397T401 394H412Q428 394 444 392T473
384T493 372T501 356V352L466 301ZM378 625Q375 648 353 664T290 680H288Q250 680 227 666T203 629Q208 606 230 591T288 574Q328 574 353 587T378 624V625ZM574 625Q572 648 549 664T488 680H483Q446 680 424 667T401 630Q402 607 424 591T484 574Q522 574 548
587T574 624V625Z" />
<glyph unicode="&#xec;" glyph-name="igrave" horiz-adv-x="232" d="M168 233Q174 253 179 273T191 317T206 375T225 455Q225 457 226 458Q226 460 226 460T227 463Q227 482 213 490T180 499Q156 499 134 488T107 456Q91 398 79 348T51 239Q43 210 37 186T26 138T17
90T7 35Q7 33 7 33T6 30V25Q6 4 19 -3T50 -10Q80 -10 93 -3T114 22T126 69T145 143L168 233ZM220 547Q239 554 247 560T256 580Q256 589 245 613Q237 629 226 647T201 682T173 714T145 738Q113 759 90 759Q74 759 65 751T56 722Q56 713 56 709T59 700Q64 684 70
673T84 652T104 633T131 612Q148 600 159 591T176 575Q191 556 202 552T218 547H220Z" />
<glyph unicode="&#xed;" glyph-name="iacute" horiz-adv-x="232" d="M168 233Q174 253 179 273T191 317T206 375T225 455Q225 457 226 458Q226 460 226 460T227 463Q227 482 213 490T180 499Q156 499 134 488T107 456Q91 398 79 348T51 239Q43 210 37 186T26 138T17
90T7 35Q7 33 7 33T6 30V25Q6 4 19 -3T50 -10Q80 -10 93 -3T114 22T126 69T145 143L168 233ZM130 549H133Q140 549 148 553T173 577Q178 584 189 593T218 614Q234 626 245 635T264 653T279 674T290 702Q291 707 292 711T293 724Q293 744 284 752T259 761Q248 761
234 756T203 740Q190 731 176 717T149 685T124 649T104 615Q93 591 93 582Q93 568 101 563T126 550L130 549Z" />
<glyph unicode="&#xee;" glyph-name="icircumflex" horiz-adv-x="232" d="M168 233Q174 253 179 273T191 317T206 375T225 455Q225 457 226 458Q226 460 226 460T227 463Q227 482 213 490T180 499Q156 499 134 488T107 456Q91 398 79 348T51 239Q43 210 37 186T26
138T17 90T7 35Q7 33 7 33T6 30V25Q6 4 19 -3T50 -10Q80 -10 93 -3T114 22T126 69T145 143L168 233ZM297 666Q292 676 288 680T279 687Q282 685 274 694T249 716T211 738T162 749H159Q145 749 137 740T123 710Q123 705 116 700T100 690T82 680T69 669Q60 661 53
647T46 614Q46 598 51 588Q64 562 85 562Q98 562 113 574Q124 585 131 592T146 608Q150 612 154 616T164 625Q185 623 199 616T240 588Q246 584 252 581T266 578Q276 578 287 587Q305 600 305 629Q305 640 303 649T297 667V666Z" />
<glyph unicode="&#xef;" glyph-name="idieresis" horiz-adv-x="232" d="M168 233Q174 253 179 273T191 317T206 375T225 455Q225 457 226 458Q226 460 226 460T227 463Q227 482 213 490T180 499Q156 499 134 488T107 456Q91 398 79 348T51 239Q43 210 37 186T26
138T17 90T7 35Q7 33 7 33T6 30V25Q6 4 19 -3T50 -10Q80 -10 93 -3T114 22T126 69T145 143L168 233ZM196 631Q193 654 171 670T108 686H106Q68 686 45 672T21 635Q26 612 48 597T106 580Q146 580 171 593T196 630V631ZM392 631Q390 654 367 670T306 686H301Q264
686 242 673T219 636Q220 613 242 597T302 580Q340 580 366 593T392 630V631Z" />
<glyph unicode="&#xf0;" glyph-name="eth" horiz-adv-x="629" d="M384 487H387Q394 487 402 491T427 515Q438 498 447 479T464 436Q465 431 466 428T470 419Q481 386 488 359T488 308Q466 343 441 377T386 443T324 502T254 548L241 554Q203 571 173 570T106 544Q91
533 80 520T61 489Q37 444 40 382Q41 322 52 276T83 191T132 120T201 53Q222 36 242 23T281 0Q350 -35 404 -23T501 39Q515 55 526 70T547 104Q560 128 567 153T582 211Q594 262 596 308T592 398T569 485T528 575Q525 580 523 583T518 591Q526 601 532 612T544
640Q545 645 546 649T547 662Q547 682 538 690T513 699Q502 699 488 694T457 678Q453 676 452 674Q444 682 437 689T419 705V704Q405 718 391 725Q373 734 356 732T326 713H327Q325 711 324 710T320 704Q313 691 314 675T322 643T339 611T362 587Q368 581 372 578Q367
571 364 565T358 553Q347 529 347 520Q347 506 355 501T380 488L384 487ZM137 397L142 405Q150 422 166 421T201 409Q222 398 244 384T285 353Q292 349 297 345Q343 310 368 263T411 171Q413 155 411 147T407 132Q401 120 388 117T359 117T329 126T302 137Q280
149 248 177T190 245Q178 264 167 286T148 329T137 368T137 397Z" />
<glyph unicode="&#xf1;" glyph-name="ntilde" horiz-adv-x="597" d="M504 -9V-7Q511 -6 517 -6T528 -5Q543 -5 551 -2T563 19Q569 67 575 112T586 184Q589 198 590 202T593 217T600 250T616 327Q618 331 623 354T634 403T644 452T649 478Q649 496 637 509T605
522H597Q550 522 506 511T417 482T329 447T237 413Q239 430 241 447T244 481Q244 492 230 498T196 505Q184 505 171 502T148 490T131 468T124 434V428Q121 417 116 394T104 345T93 295T86 255Q83 246 78 223T67 168T56 97T46 17V13Q46 -1 58 -6T83 -11Q99 -11 115
-4T146 14Q160 27 163 43T166 76Q176 119 182 146T192 193T200 227T208 256Q213 263 233 273T278 295T329 316T369 332Q378 337 393 342T424 351T457 359T487 362Q492 362 502 360Q507 352 507 340Q507 331 504 318T495 283T481 232T462 160Q451 128 443 99T431
29V28Q431 -12 469 -12Q482 -12 503 -6L504 -9ZM567 649V651Q567 663 554 672T525 681Q513 681 502 676T486 658Q485 656 485 653T483 648Q481 642 479 636T472 629Q467 629 463 634T454 645V644Q445 655 433 666T395 677Q379 677 360 671T324 653T294 629T281
601V599Q281 585 292 575T324 565Q337 565 346 572T364 588Q369 593 375 598T385 603Q385 603 387 600T394 594Q404 583 419 572T463 561Q509 561 535 579T567 649Z" />
<glyph unicode="&#xf2;" glyph-name="ograve" horiz-adv-x="608" d="M593 435Q582 444 572 451T549 464T514 476T460 489Q436 494 414 497T370 500Q299 500 222 466Q136 421 84 354T25 209Q24 206 24 200Q24 187 28 171T38 142T49 119T55 110Q56 105 68 92T97
65T132 38T166 22Q220 -3 282 -3Q306 -3 335 1T394 12T451 30T500 53Q583 103 618 156T654 270Q654 280 654 294T652 323T646 354T635 383L593 435ZM541 266Q541 244 524 225T482 182Q480 180 479 179T477 176L475 174Q435 140 388 123T289 106Q248 106 212 117Q177
134 160 163T142 225Q142 251 153 275T188 314Q206 329 221 341T250 362T281 374T319 379Q327 382 342 384T376 386Q399 386 421 383T458 372Q504 356 527 334T541 266ZM415 537Q434 544 442 550T451 570Q451 579 440 603Q432 619 421 637T396 672T368 704T340
728Q308 749 285 749Q269 749 260 741T251 712Q251 703 251 699T254 690Q259 674 265 663T279 642T299 623T326 602Q343 590 354 581T371 565Q386 546 397 542T413 537H415Z" />
<glyph unicode="&#xf3;" glyph-name="oacute" horiz-adv-x="608" d="M593 435Q582 444 572 451T549 464T514 476T460 489Q436 494 414 497T370 500Q299 500 222 466Q136 421 84 354T25 209Q24 206 24 200Q24 187 28 171T38 142T49 119T55 110Q56 105 68 92T97
65T132 38T166 22Q220 -3 282 -3Q306 -3 335 1T394 12T451 30T500 53Q583 103 618 156T654 270Q654 280 654 294T652 323T646 354T635 383L593 435ZM541 266Q541 244 524 225T482 182Q480 180 479 179T477 176L475 174Q435 140 388 123T289 106Q248 106 212 117Q177
134 160 163T142 225Q142 251 153 275T188 314Q206 329 221 341T250 362T281 374T319 379Q327 382 342 384T376 386Q399 386 421 383T458 372Q504 356 527 334T541 266ZM291 543H294Q301 543 309 547T334 571Q339 578 350 587T379 608Q395 620 406 629T425 647T440
668T451 696Q452 701 453 705T454 718Q454 738 445 746T420 755Q409 755 395 750T364 734Q351 725 337 711T310 679T285 643T265 609Q254 585 254 576Q254 562 262 557T287 544L291 543Z" />
<glyph unicode="&#xf4;" glyph-name="ocircumflex" horiz-adv-x="608" d="M593 435Q582 444 572 451T549 464T514 476T460 489Q436 494 414 497T370 500Q299 500 222 466Q136 421 84 354T25 209Q24 206 24 200Q24 187 28 171T38 142T49 119T55 110Q56 105 68 92T97
65T132 38T166 22Q220 -3 282 -3Q306 -3 335 1T394 12T451 30T500 53Q583 103 618 156T654 270Q654 280 654 294T652 323T646 354T635 383L593 435ZM541 266Q541 244 524 225T482 182Q480 180 479 179T477 176L475 174Q435 140 388 123T289 106Q248 106 212 117Q177
134 160 163T142 225Q142 251 153 275T188 314Q206 329 221 341T250 362T281 374T319 379Q327 382 342 384T376 386Q399 386 421 383T458 372Q504 356 527 334T541 266ZM472 636Q467 646 463 650T454 657Q457 655 449 664T424 686T386 708T337 719H334Q320 719
312 710T298 680Q298 675 291 670T275 660T257 650T244 639Q235 631 228 617T221 584Q221 568 226 558Q239 532 260 532Q273 532 288 544Q299 555 306 562T321 578Q325 582 329 586T339 595Q360 593 374 586T415 558Q421 554 427 551T441 548Q451 548 462 557Q480
570 480 599Q480 610 478 619T472 637V636Z" />
<glyph unicode="&#xf5;" glyph-name="otilde" horiz-adv-x="608" d="M593 435Q582 444 572 451T549 464T514 476T460 489Q436 494 414 497T370 500Q299 500 222 466Q136 421 84 354T25 209Q24 206 24 200Q24 187 28 171T38 142T49 119T55 110Q56 105 68 92T97
65T132 38T166 22Q220 -3 282 -3Q306 -3 335 1T394 12T451 30T500 53Q583 103 618 156T654 270Q654 280 654 294T652 323T646 354T635 383L593 435ZM541 266Q541 244 524 225T482 182Q480 180 479 179T477 176L475 174Q435 140 388 123T289 106Q248 106 212 117Q177
134 160 163T142 225Q142 251 153 275T188 314Q206 329 221 341T250 362T281 374T319 379Q327 382 342 384T376 386Q399 386 421 383T458 372Q504 356 527 334T541 266ZM495 628V630Q495 642 482 651T453 660Q441 660 430 655T414 637Q413 635 413 632T411 627Q409
621 407 615T400 608Q395 608 391 613T382 624V623Q373 634 361 645T323 656Q307 656 288 650T252 632T222 608T209 580V578Q209 564 220 554T252 544Q265 544 274 551T292 567Q297 572 303 577T313 582Q313 582 315 579T322 573Q332 562 347 551T391 540Q437 540
463 558T495 628Z" />
<glyph unicode="&#xf6;" glyph-name="odieresis" horiz-adv-x="608" d="M593 435Q582 444 572 451T549 464T514 476T460 489Q436 494 414 497T370 500Q299 500 222 466Q136 421 84 354T25 209Q24 206 24 200Q24 187 28 171T38 142T49 119T55 110Q56 105 68 92T97
65T132 38T166 22Q220 -3 282 -3Q306 -3 335 1T394 12T451 30T500 53Q583 103 618 156T654 270Q654 280 654 294T652 323T646 354T635 383L593 435ZM541 266Q541 244 524 225T482 182Q480 180 479 179T477 176L475 174Q435 140 388 123T289 106Q248 106 212 117Q177
134 160 163T142 225Q142 251 153 275T188 314Q206 329 221 341T250 362T281 374T319 379Q327 382 342 384T376 386Q399 386 421 383T458 372Q504 356 527 334T541 266ZM350 601Q347 624 325 640T262 656H260Q222 656 199 642T175 605Q180 582 202 567T260 550Q300
550 325 563T350 600V601ZM546 601Q544 624 521 640T460 656H455Q418 656 396 643T373 606Q374 583 396 567T456 550Q494 550 520 563T546 600V601Z" />
<glyph unicode="&#xf7;" glyph-name="divide" horiz-adv-x="537" d="M45 272Q53 260 73 256T122 252Q134 252 147 252T175 253Q188 254 201 255T228 256H230Q236 256 262 256T318 258T375 260T410 264H430Q456 264 468 265T490 274Q499 278 501 282T504 295Q499
306 494 316T484 330Q458 354 418 360T332 367H289Q279 367 269 366T248 365Q223 365 194 365T139 363T94 361T69 359H70Q50 355 39 351T28 331V327Q28 323 29 321V314Q31 306 34 293T45 272ZM202 477V469Q202 458 205 450T214 435Q234 420 251 415T278 409Q292
409 305 412T328 421Q347 431 359 447T373 482Q373 516 336 531Q326 536 315 539T293 543Q286 543 282 543T272 541Q245 536 225 518T202 477ZM152 152V144Q152 133 155 125T164 110Q184 95 201 90T228 84Q242 84 255 87T278 96Q297 106 309 122T323 157Q323 191
286 206Q276 211 265 214T243 218Q236 218 232 218T222 216Q195 211 175 193T152 152Z" />
<glyph unicode="&#xf9;" glyph-name="ugrave" horiz-adv-x="529" d="M600 443Q607 454 607 471Q607 487 599 500T573 513Q569 513 561 511Q558 511 556 511T550 512Q530 512 511 502T484 462Q474 424 468 402T458 364T450 337T444 311T436 274T424 216Q415 190
407 177T388 158T361 147T319 135Q312 133 293 129T250 121T205 113T169 109Q168 108 166 108Q160 108 160 119Q160 130 163 144T169 165Q179 207 184 227T193 263T203 303T221 375Q223 378 227 391T234 420T241 449T244 465Q244 479 231 487T198 495Q153 495 132
474T101 417Q99 411 95 388T85 330T73 255T60 173T49 93T41 27Q41 24 41 22T40 17Q40 -1 46 -12T60 -26Q70 -26 72 -27T77 -28T84 -28T102 -25T142 -16T214 0Q250 8 276 13T320 22T351 26T371 27Q380 27 386 27T398 26Q398 26 399 17T404 -4T418 -25T444 -35H447Q475
-33 490 -26T505 0Q505 10 499 27Q504 55 508 76T516 117T525 158T537 210Q541 227 546 250T556 296T567 338T578 369L600 443ZM389 529Q408 536 416 542T425 562Q425 571 414 595Q406 611 395 629T370 664T342 696T314 720Q282 741 259 741Q243 741 234 733T225
704Q225 695 225 691T228 682Q233 666 239 655T253 634T273 615T300 594Q317 582 328 573T345 557Q360 538 371 534T387 529H389Z" />
<glyph unicode="&#xfa;" glyph-name="uacute" horiz-adv-x="529" d="M600 443Q607 454 607 471Q607 487 599 500T573 513Q569 513 561 511Q558 511 556 511T550 512Q530 512 511 502T484 462Q474 424 468 402T458 364T450 337T444 311T436 274T424 216Q415 190
407 177T388 158T361 147T319 135Q312 133 293 129T250 121T205 113T169 109Q168 108 166 108Q160 108 160 119Q160 130 163 144T169 165Q179 207 184 227T193 263T203 303T221 375Q223 378 227 391T234 420T241 449T244 465Q244 479 231 487T198 495Q153 495 132
474T101 417Q99 411 95 388T85 330T73 255T60 173T49 93T41 27Q41 24 41 22T40 17Q40 -1 46 -12T60 -26Q70 -26 72 -27T77 -28T84 -28T102 -25T142 -16T214 0Q250 8 276 13T320 22T351 26T371 27Q380 27 386 27T398 26Q398 26 399 17T404 -4T418 -25T444 -35H447Q475
-33 490 -26T505 0Q505 10 499 27Q504 55 508 76T516 117T525 158T537 210Q541 227 546 250T556 296T567 338T578 369L600 443ZM339 531H342Q349 531 357 535T382 559Q387 566 398 575T427 596Q443 608 454 617T473 635T488 656T499 684Q500 689 501 693T502 706Q502
726 493 734T468 743Q457 743 443 738T412 722Q399 713 385 699T358 667T333 631T313 597Q302 573 302 564Q302 550 310 545T335 532L339 531Z" />
<glyph unicode="&#xfb;" glyph-name="ucircumflex" horiz-adv-x="529" d="M600 443Q607 454 607 471Q607 487 599 500T573 513Q569 513 561 511Q558 511 556 511T550 512Q530 512 511 502T484 462Q474 424 468 402T458 364T450 337T444 311T436 274T424 216Q415
190 407 177T388 158T361 147T319 135Q312 133 293 129T250 121T205 113T169 109Q168 108 166 108Q160 108 160 119Q160 130 163 144T169 165Q179 207 184 227T193 263T203 303T221 375Q223 378 227 391T234 420T241 449T244 465Q244 479 231 487T198 495Q153 495
132 474T101 417Q99 411 95 388T85 330T73 255T60 173T49 93T41 27Q41 24 41 22T40 17Q40 -1 46 -12T60 -26Q70 -26 72 -27T77 -28T84 -28T102 -25T142 -16T214 0Q250 8 276 13T320 22T351 26T371 27Q380 27 386 27T398 26Q398 26 399 17T404 -4T418 -25T444 -35H447Q475
-33 490 -26T505 0Q505 10 499 27Q504 55 508 76T516 117T525 158T537 210Q541 227 546 250T556 296T567 338T578 369L600 443ZM489 647Q484 657 480 661T471 668Q474 666 466 675T441 697T403 719T354 730H351Q337 730 329 721T315 691Q315 686 308 681T292 671T274
661T261 650Q252 642 245 628T238 595Q238 579 243 569Q256 543 277 543Q290 543 305 555Q316 566 323 573T338 589Q342 593 346 597T356 606Q377 604 391 597T432 569Q438 565 444 562T458 559Q468 559 479 568Q497 581 497 610Q497 621 495 630T489 648V647Z"
/>
<glyph unicode="&#xfc;" glyph-name="udieresis" horiz-adv-x="529" d="M600 443Q607 454 607 471Q607 487 599 500T573 513Q569 513 561 511Q558 511 556 511T550 512Q530 512 511 502T484 462Q474 424 468 402T458 364T450 337T444 311T436 274T424 216Q415
190 407 177T388 158T361 147T319 135Q312 133 293 129T250 121T205 113T169 109Q168 108 166 108Q160 108 160 119Q160 130 163 144T169 165Q179 207 184 227T193 263T203 303T221 375Q223 378 227 391T234 420T241 449T244 465Q244 479 231 487T198 495Q153 495
132 474T101 417Q99 411 95 388T85 330T73 255T60 173T49 93T41 27Q41 24 41 22T40 17Q40 -1 46 -12T60 -26Q70 -26 72 -27T77 -28T84 -28T102 -25T142 -16T214 0Q250 8 276 13T320 22T351 26T371 27Q380 27 386 27T398 26Q398 26 399 17T404 -4T418 -25T444 -35H447Q475
-33 490 -26T505 0Q505 10 499 27Q504 55 508 76T516 117T525 158T537 210Q541 227 546 250T556 296T567 338T578 369L600 443ZM376 617Q373 640 351 656T288 672H286Q248 672 225 658T201 621Q206 598 228 583T286 566Q326 566 351 579T376 616V617ZM572 617Q570
640 547 656T486 672H481Q444 672 422 659T399 622Q400 599 422 583T482 566Q520 566 546 579T572 616V617Z" />
<glyph unicode="&#xfd;" glyph-name="yacute" horiz-adv-x="492" d="M618 480Q618 494 607 505T580 523Q569 528 557 531T534 535Q511 535 496 515T469 471Q464 453 452 427T421 371T375 307T315 243L308 244Q257 301 225 365T176 483Q169 498 158 504T134 510Q128
510 121 509T104 505Q82 498 66 481T49 447Q49 441 52 435L53 434Q68 401 85 373T118 320T147 275T169 240Q179 228 190 212T211 181T226 154T232 138V137L231 135Q219 111 194 92T138 50T72 0T8 -68Q2 -80 2 -95Q2 -118 14 -137T43 -157Q72 -157 96 -145T146 -109Q181
-78 214 -49T283 17T362 105T458 230Q491 275 516 312T565 387Q571 395 576 403T588 421L618 480ZM307 563H310Q317 563 325 567T350 591Q355 598 366 607T395 628Q411 640 422 649T441 667T456 688T467 716Q468 721 469 725T470 738Q470 758 461 766T436 775Q425
775 411 770T380 754Q367 745 353 731T326 699T301 663T281 629Q270 605 270 596Q270 582 278 577T303 564L307 563Z" />
<glyph unicode="&#xfe;" glyph-name="thorn" horiz-adv-x="597" d="M19 -141Q19 -151 23 -157T38 -170Q57 -178 74 -178Q107 -178 139 -154Q149 -146 152 -137T155 -118V-84Q155 -57 159 -31T179 15L181 17Q199 23 228 29Q273 33 313 48T402 79Q464 106 512 134T594
193T645 258T663 333Q663 379 645 411T597 463T527 492T442 501Q401 501 363 497T287 487Q295 516 304 555T329 658Q329 660 330 661Q330 663 330 663T331 666Q331 685 317 693T284 702Q260 702 238 691T211 659Q185 560 158 461T105 262T57 62T19 -141ZM220 145Q215
145 211 145Q207 145 203 147L200 151L252 359Q269 367 291 372T336 381T383 385T426 387Q474 387 511 378T564 347Q552 311 524 282T458 228T378 186T297 154L220 145Z" />
<glyph unicode="&#xff;" glyph-name="ydieresis" horiz-adv-x="492" d="M618 480Q618 494 607 505T580 523Q569 528 557 531T534 535Q511 535 496 515T469 471Q464 453 452 427T421 371T375 307T315 243L308 244Q257 301 225 365T176 483Q169 498 158 504T134
510Q128 510 121 509T104 505Q82 498 66 481T49 447Q49 441 52 435L53 434Q68 401 85 373T118 320T147 275T169 240Q179 228 190 212T211 181T226 154T232 138V137L231 135Q219 111 194 92T138 50T72 0T8 -68Q2 -80 2 -95Q2 -118 14 -137T43 -157Q72 -157 96 -145T146
-109Q181 -78 214 -49T283 17T362 105T458 230Q491 275 516 312T565 387Q571 395 576 403T588 421L618 480ZM333 626Q330 649 308 665T245 681H243Q205 681 182 667T158 630Q163 607 185 592T243 575Q283 575 308 588T333 625V626ZM529 626Q527 649 504 665T443
681H438Q401 681 379 668T356 631Q357 608 379 592T439 575Q477 575 503 588T529 625V626Z" />
</font>
</defs>
</svg>
